<?xml version="1.0" encoding="UTF-8" standalone="no"?>
<!-- Created with Inkscape (http://www.inkscape.org/) -->

<svg
   xmlns:dc="http://purl.org/dc/elements/1.1/"
   xmlns:cc="http://creativecommons.org/ns#"
   xmlns:rdf="http://www.w3.org/1999/02/22-rdf-syntax-ns#"
   xmlns:svg="http://www.w3.org/2000/svg"
   xmlns="http://www.w3.org/2000/svg"
   xmlns:sodipodi="http://sodipodi.sourceforge.net/DTD/sodipodi-0.dtd"
   xmlns:inkscape="http://www.inkscape.org/namespaces/inkscape"
   width="210mm"
   height="297mm"
   viewBox="0 0 210 297"
   version="1.1"
   id="svg8"
   inkscape:version="0.92.4 (5da689c313, 2019-01-14)"
   sodipodi:docname="arrowStars.svg">
  <defs
     id="defs2">
    <inkscape:path-effect
       fuse_tolerance="0"
       vertical_pattern="false"
       prop_units="false"
       tang_offset="0"
       normal_offset="0"
       spacing="1"
       scale_y_rel="false"
       prop_scale="0.8"
       copytype="repeated_stretched"
       pattern="#path836"
       is_visible="true"
       id="path-effect868"
       effect="skeletal" />
    <inkscape:path-effect
       fuse_tolerance="0"
       vertical_pattern="false"
       prop_units="false"
       tang_offset="0"
       normal_offset="0"
       spacing="20"
       scale_y_rel="false"
       prop_scale="2"
       copytype="repeated_stretched"
       pattern="#path868"
       is_visible="true"
       id="path-effect866"
       effect="skeletal" />
    <inkscape:path-effect
       effect="skeletal"
       id="path-effect862"
       is_visible="true"
       pattern="#path868"
       copytype="repeated_stretched"
       prop_scale="2"
       scale_y_rel="false"
       spacing="30"
       normal_offset="0"
       tang_offset="0"
       prop_units="false"
       vertical_pattern="false"
       fuse_tolerance="0" />
    <inkscape:path-effect
       fuse_tolerance="0"
       vertical_pattern="false"
       prop_units="false"
       tang_offset="0"
       normal_offset="0"
       spacing="40"
       scale_y_rel="false"
       prop_scale="2"
       copytype="repeated_stretched"
       pattern="#path868"
       is_visible="true"
       id="path-effect858"
       effect="skeletal" />
    <inkscape:path-effect
       effect="skeletal"
       id="path-effect952"
       is_visible="true"
       pattern="#path956"
       copytype="repeated_stretched"
       prop_scale="2"
       scale_y_rel="false"
       spacing="20"
       normal_offset="0"
       tang_offset="0"
       prop_units="false"
       vertical_pattern="false"
       fuse_tolerance="0" />
    <inkscape:path-effect
       fuse_tolerance="0"
       vertical_pattern="false"
       prop_units="false"
       tang_offset="0"
       normal_offset="0"
       spacing="30"
       scale_y_rel="false"
       prop_scale="2"
       copytype="repeated_stretched"
       pattern="#path956"
       is_visible="true"
       id="path-effect948"
       effect="skeletal" />
    <inkscape:path-effect
       effect="skeletal"
       id="path-effect944"
       is_visible="true"
       pattern="#path956"
       copytype="repeated_stretched"
       prop_scale="2"
       scale_y_rel="false"
       spacing="40"
       normal_offset="0"
       tang_offset="0"
       prop_units="false"
       vertical_pattern="false"
       fuse_tolerance="0" />
    <inkscape:path-effect
       fuse_tolerance="0"
       vertical_pattern="false"
       prop_units="false"
       tang_offset="0"
       normal_offset="0"
       spacing="40"
       scale_y_rel="false"
       prop_scale="1"
       copytype="repeated_stretched"
       pattern="#path911"
       is_visible="true"
       id="path-effect907"
       effect="skeletal" />
    <inkscape:path-effect
       effect="skeletal"
       id="path-effect903"
       is_visible="true"
       pattern="#path911"
       copytype="repeated_stretched"
       prop_scale="1"
       scale_y_rel="false"
       spacing="40"
       normal_offset="0"
       tang_offset="0"
       prop_units="false"
       vertical_pattern="false"
       fuse_tolerance="0" />
    <inkscape:path-effect
       fuse_tolerance="0"
       vertical_pattern="false"
       prop_units="false"
       tang_offset="0"
       normal_offset="0"
       spacing="40"
       scale_y_rel="false"
       prop_scale="1"
       copytype="repeated_stretched"
       pattern="#path911"
       is_visible="true"
       id="path-effect899"
       effect="skeletal" />
    <inkscape:path-effect
       effect="skeletal"
       id="path-effect877"
       is_visible="true"
       pattern="#path879"
       copytype="repeated_stretched"
       prop_scale="0.8"
       scale_y_rel="false"
       spacing="7"
       normal_offset="0"
       tang_offset="0"
       prop_units="false"
       vertical_pattern="false"
       fuse_tolerance="0" />
    <inkscape:path-effect
       fuse_tolerance="0"
       vertical_pattern="false"
       prop_units="false"
       tang_offset="0"
       normal_offset="0"
       spacing="0.1"
       scale_y_rel="false"
       prop_scale="0.8"
       copytype="repeated_stretched"
       pattern="#path859"
       is_visible="true"
       id="path-effect857"
       effect="skeletal" />
    <inkscape:path-effect
       effect="skeletal"
       id="path-effect848"
       is_visible="true"
       pattern="#path836"
       copytype="repeated_stretched"
       prop_scale="0.8"
       scale_y_rel="false"
       spacing="1"
       normal_offset="0"
       tang_offset="0"
       prop_units="false"
       vertical_pattern="false"
       fuse_tolerance="0" />
    <inkscape:path-effect
       effect="skeletal"
       id="path-effect1007"
       is_visible="true"
       pattern="#path1004"
       copytype="repeated_stretched"
       prop_scale="0.62"
       scale_y_rel="false"
       spacing="-1.1"
       normal_offset="0"
       tang_offset="0"
       prop_units="false"
       vertical_pattern="false"
       fuse_tolerance="0" />
    <inkscape:path-effect
       effect="skeletal"
       id="path-effect967"
       is_visible="true"
       pattern="#path831"
       copytype="repeated_stretched"
       prop_scale="1.1"
       scale_y_rel="false"
       spacing="15"
       normal_offset="0"
       tang_offset="0"
       prop_units="false"
       vertical_pattern="false"
       fuse_tolerance="0" />
    <inkscape:path-effect
       effect="skeletal"
       id="path-effect840"
       is_visible="true"
       pattern="#path831"
       copytype="repeated_stretched"
       prop_scale="1.04"
       scale_y_rel="false"
       spacing="6.5"
       normal_offset="0"
       tang_offset="0"
       prop_units="false"
       vertical_pattern="false"
       fuse_tolerance="0" />
  </defs>
  <sodipodi:namedview
     id="base"
     pagecolor="#ffffff"
     bordercolor="#666666"
     borderopacity="1.0"
     inkscape:pageopacity="0.0"
     inkscape:pageshadow="2"
     inkscape:zoom="0.5"
     inkscape:cx="-3062.6775"
     inkscape:cy="-2703.0156"
     inkscape:document-units="mm"
     inkscape:current-layer="layer1"
     showgrid="false"
     inkscape:window-width="1920"
     inkscape:window-height="1001"
     inkscape:window-x="-9"
     inkscape:window-y="-9"
     inkscape:window-maximized="1" />
  <metadata
     id="metadata5">
    <rdf:RDF>
      <cc:Work
         rdf:about="">
        <dc:format>image/svg+xml</dc:format>
        <dc:type
           rdf:resource="http://purl.org/dc/dcmitype/StillImage" />
        <dc:title />
      </cc:Work>
    </rdf:RDF>
  </metadata>
  <g
     inkscape:label="Layer 1"
     inkscape:groupmode="layer"
     id="layer1">
    <path
       sodipodi:type="star"
       style="opacity:1;fill:#cacecd;fill-opacity:1;stroke:none;stroke-width:1.69999993;stroke-linecap:round;stroke-linejoin:round;stroke-miterlimit:4;stroke-dasharray:none;stroke-opacity:1"
       id="path815"
       sodipodi:sides="6"
       sodipodi:cx="70.02462"
       sodipodi:cy="-2.8764071"
       sodipodi:r1="35.877884"
       sodipodi:r2="16.135618"
       sodipodi:arg1="0.52359878"
       sodipodi:arg2="1.0471976"
       inkscape:flatsided="false"
       inkscape:rounded="0"
       inkscape:randomized="0"
       d="M 101.09578,15.062535 78.092428,11.097449 70.02462,33.001477 61.95681,11.097448 38.953461,15.062535 53.889002,-2.8764079 38.953461,-20.815349 l 23.003351,3.965086 8.067808,-21.904028 8.06781,21.904029 23.00335,-3.965087 -14.935542,17.9389426 z"
       inkscape:transform-center-y="-1.1692104e-06"
       inkscape:export-xdpi="96"
       inkscape:export-ydpi="96" />
    <path
       style="opacity:1;fill:#ffffff;fill-opacity:1;stroke:#ffffff;stroke-width:6;stroke-linecap:round;stroke-linejoin:round;stroke-miterlimit:4;stroke-dasharray:none;stroke-opacity:1"
       d="m 120.62827,-72.081348 -38.487052,38.48654 c -2.925805,2.925804 1.016855,5.976 3.496429,3.496426 l 34.990623,-34.990627 0.11059,0.110588 v -6.992339 z"
       id="rect819"
       inkscape:export-xdpi="96"
       inkscape:export-ydpi="96"
       inkscape:connector-curvature="0"
       inkscape:export-filename="D:\Documents\Unity\arcadegame1\arcadegame1\Assets\sprites\arrow.png" />
    <path
       id="path830"
       d="m 120.73886,-71.97076 38.07512,38.486539 c 2.89449,2.925805 -1.00597,5.976001 -3.45901,3.496427 l -34.61611,-34.990627 -0.1094,0.110588 v -6.992339 z"
       style="opacity:1;fill:#ffffff;fill-opacity:1;stroke:#ffffff;stroke-width:6;stroke-linecap:round;stroke-linejoin:round;stroke-miterlimit:4;stroke-dasharray:none;stroke-opacity:1"
       inkscape:connector-curvature="0"
       inkscape:export-xdpi="96"
       inkscape:export-ydpi="96"
       inkscape:export-filename="D:\Documents\Unity\arcadegame1\arcadegame1\Assets\sprites\arrow.png" />
    <g
       id="g835"
       transform="translate(-56.620833,-4.7625)"
       style="stroke-width:4;stroke-miterlimit:4;stroke-dasharray:none;stroke:#959591;stroke-opacity:1;stroke-linecap:round">
      <path
         id="path831"
         style="fill:none;stroke:#959591;stroke-width:4;stroke-linecap:round;stroke-linejoin:miter;stroke-miterlimit:4;stroke-dasharray:none;stroke-opacity:1"
         d="m 29.798698,154.81953 9.509333,-0.0743 -1.704126,12.64203 m 5.863355,55.15143 c 14.847845,-15.88613 -3.023809,-30.99405 -3.023809,-30.99405 0,0 -18.607472,-18.79855 -5.669642,-32.12797 l 4.534224,-4.67146"
         inkscape:connector-curvature="0"
         sodipodi:nodetypes="cccccsc" />
    </g>
    <path
       style="opacity:1;fill:#cacecd;fill-opacity:0.04511278;stroke:#959591;stroke-width:2;stroke-linecap:round;stroke-linejoin:round;stroke-miterlimit:4;stroke-dasharray:none;stroke-opacity:1"
       d="m 240.97285,166.03792 c -0.21153,5.78194 -0.8906,11.41375 -2.00304,16.85967 -4.04478,-1.825 -8.13556,-3.51192 -12.26819,-5.05619 m -56.4191,-7.1135 c 3.84019,2.70764 6.47291,4.82747 10.19114,6.6606 3.43751,1.69474 6.72096,2.50542 9.95744,2.54165 6.40266,0.0717 11.2038,-3.34759 11.2038,-3.34759 0,0 5.63437,-3.51873 12.4906,-6.86383 3.34585,-1.63243 7.27554,-3.22457 10.97846,-3.08369 3.70303,0.14088 7.65614,2.06437 10.40108,7.84786 1.27972,2.69633 2.43719,5.50629 3.46479,8.4147 m -9.75455,26.46334 c -2.5124,4.6797 -5.39791,9.11194 -8.62235,13.26093 -2.83578,-3.4562 -5.75897,-6.82187 -8.76538,-10.09245 m -47.51047,-32.115 c 1.89246,4.20603 3.63319,7.72816 6.04357,10.84202 2.36204,3.0514 5.01697,5.20695 7.94703,6.63637 5.80184,2.83039 11.71863,1.90876 11.71863,1.90876 0,0 6.73054,-0.60683 14.24674,-0.22872 3.68576,0.18542 7.76688,0.72927 10.9292,2.63643 3.14837,1.89876 5.77102,5.417 5.79591,11.60411 0.0116,2.89312 -0.12089,5.83435 -0.40521,8.80849 m -19.86607,18.73471 c -4.29159,3.04779 -8.86185,5.75077 -13.67661,8.07314 -1.04076,-4.31296 -2.21031,-8.58294 -3.50449,-12.80538 m -28.7268,-49.18627 c 0.23643,9.42768 0.7306,15.89781 5.04209,21.61866 3.83626,5.09029 9.5194,6.79935 9.5194,6.79935 0,0 6.28403,2.31406 12.94193,5.89495 3.26303,1.75499 6.72437,4.01061 8.77425,7.09846 2.03325,3.06279 2.91345,7.36195 0.23096,12.88401 -1.25714,2.58789 -2.68038,5.15837 -4.27733,7.69624 m -27.21986,8.27234 c -3.80255,0.60727 -7.69162,1.00691 -11.6562,1.18741 -1.82096,-0.0667 -3.62703,-0.17971 -5.41709,-0.33801 1.2962,-4.25546 2.44243,-8.54657 3.43413,-12.86918 m -0.37592,-57.10329 c -2.13925,4.45633 -3.76123,6.98992 -5.17399,11.08691 -1.25013,3.62535 -1.6666,6.95823 -1.31302,10.16514 0.69832,6.33363 4.71883,10.65103 4.71883,10.65103 0,0 1.68765,2.19464 4.12706,5.42091 2.29473,3.01531 6.29813,8.11014 7.97564,12.47011 1.74753,4.54197 1.93333,10.42588 -5.33369,15.54735 -0.85883,0.60526 -1.73938,1.20094 -2.64195,1.78644 -1.75275,1.00094 -3.55991,1.94987 -5.41709,2.8446 m -27.96834,-6.7958 c -5.00492,-1.98609 -9.78671,-4.36891 -14.30958,-7.11426 3.121,-3.19297 6.13959,-6.46299 9.0512,-9.8059 m 26.60814,-50.66338 c -3.94519,2.34877 -7.21015,4.41195 -10.06143,7.16512 -2.77448,2.67902 -4.63066,5.55671 -5.73568,8.62657 -2.18903,6.0814 -0.62897,11.84437 -0.62897,11.84437 0,0 1.33661,6.6034 1.83953,14.09467 0.24648,3.67145 0.19542,7.78867 -1.32436,11.13892 -1.51481,3.33928 -4.71097,6.33376 -10.89721,7.03717 -2.89098,0.32873 -5.84646,0.51876 -8.85124,0.56248 M 79.556061,227.04472 c -3.505425,-3.8957 -6.690368,-8.09368 -9.51905,-12.55978 4.171375,-1.54445 8.287884,-3.20735 12.344963,-4.98452 m 45.661956,-34.34845 c -4.53831,0.55575 -8.44883,1.11169 -12.12481,2.34022 -3.63977,1.21642 -6.53288,2.9449 -8.84654,5.20058 -4.56928,4.45478 -5.61099,10.32365 -5.61099,10.32365 0,0 -1.582919,6.53705 -4.412002,13.5551 -1.387039,3.44079 -3.252164,7.12819 -6.100907,9.51038 -2.827784,2.36466 -7.007363,3.71892 -12.796199,1.71217 -2.71126,-0.93989 -5.421491,-2.04039 -8.11549,-3.30912 M 58.8928,188.84499 c -1.476248,-5.28362 -2.534666,-10.77509 -3.139473,-16.44023 4.447305,0.69008 8.887295,1.22034 13.315408,1.59492 m 56.690085,-8.16082 c -7.60739,-2.13331 -11.15121,-4.14252 -17.50315,-4.08233 -5.43534,0.0515 -9.467894,2.07777 -12.177994,4.28139 -1.623025,1.29365 -2.460386,2.39154 -2.460386,2.39154 0,0 -4.525629,4.96656 -10.15207,9.95456 -2.757398,2.44451 -6.042158,4.93689 -9.61937,5.77618 -3.544056,0.83151 -7.89895,0.12968 -12.21884,-4.57264 -2.029524,-2.20919 -3.992493,-4.60092 -5.873704,-7.18281 m 3.139598,-29.17428 c 1.427182,-5.29702 3.274695,-10.39525 5.508353,-15.25891 3.513532,2.73741 7.093763,5.36052 10.736533,7.86475 m 53.19913,20.60565 c -2.81756,-3.6087 -5.15278,-6.55387 -8.23023,-9.10434 -2.96398,-2.45642 -6.02057,-3.98797 -9.18815,-4.753 -6.27536,-1.51563 -11.800484,0.67367 -11.800484,0.67367 0,0 -6.378792,2.06589 -13.751293,3.48231 -3.609637,0.69349 -7.714444,1.16254 -11.217035,0.0663 -3.495212,-1.09389 -6.835678,-3.91682 -8.218453,-10.03554 -0.645762,-2.85748 -1.158313,-5.79583 -1.530035,-8.79985 m 15.155071,-22.94071 c 3.467207,-3.92995 7.260312,-7.56376 11.34513,-10.865644 2.011521,3.981389 4.131133,7.896024 6.354677,11.739344 m 39.352932,41.64199 c -0.99857,-4.50178 -1.98042,-8.34831 -3.6311,-11.87372 -1.63114,-3.48367 -3.71065,-6.15845 -6.23402,-8.19181 -4.98833,-4.01964 -10.95827,-4.39979 -10.95827,-4.39979 0,0 -6.69636,-0.85279 -13.97695,-2.89708 -3.570551,-1.00256 -7.436514,-2.4527 -10.114918,-5.02472 -2.661068,-2.55539 -4.463581,-6.56508 -3.133388,-12.55362 0.622668,-2.80325 1.400472,-5.621856 2.341027,-8.440612 M 114.78915,80.319986 c 4.98554,-2.033196 10.20255,-3.672898 15.61684,-4.883326 -0.0765,4.450926 -0.004,8.882649 0.21474,13.290607 m 15.6317,54.748103 c 0.87269,-4.69847 1.81163,-8.66523 1.92179,-12.99202 0,0 0,0 0,0 0.0134,-0.5267 0.0137,-1.04514 0,-1.55703 -0.13925,-5.24207 -1.74466,-9.27298 -4.12619,-12.36882 -2.25135,-2.92661 -4.71892,-4.32747 -4.71892,-4.32747 0,0 -5.49884,-3.78395 -11.14165,-8.76501 -2.76448,-2.44029 -5.62911,-5.405519 -6.90713,-8.85771 -1.26638,-3.42074 -1.11911,-7.807945 2.91147,-12.595335 1.8918,-2.24702 3.96066,-4.443866 6.21419,-6.575336 m 29.42482,-1.062826 c 5.55603,0.835668 10.93761,2.115274 16.10894,3.804634 -2.30541,3.797466 -4.48464,7.651282 -6.5331,11.557289 m -14.10751,55.117684 c 3.1964,-3.3083 5.75942,-5.84614 7.97074,-9.23889 2.09669,-3.21688 3.27938,-6.40857 3.68834,-9.63177 0.80985,-6.38282 -1.99918,-11.58696 -1.99918,-11.58696 0,0 -2.79372,-6.05591 -5.15706,-13.21661 -1.15544,-3.500882 -2.17227,-7.54364 -1.53567,-11.163557 0.63598,-3.616378 3.03458,-7.276549 9.01911,-9.339742 2.79259,-0.962757 5.68244,-1.797784 8.65434,-2.497463 m 24.78742,12.54104 c 4.32138,3.006113 8.37095,6.361732 12.11293,10.032672 -3.743,2.44196 -7.40736,4.98166 -10.98851,7.61495 m -37.12641,43.74023 c 4.39139,-1.44341 8.10773,-2.82163 11.44613,-4.86554 3.28766,-2.01284 5.71637,-4.40149 7.4551,-7.14949 3.44034,-5.43735 3.16573,-11.42326 3.16573,-11.42326 0,0 0.123,-6.76118 1.35019,-14.2075 0.6019,-3.65219 1.61187,-7.64942 3.86992,-10.58785 2.24566,-2.92232 6.035,-5.147595 12.15625,-4.494624 2.86387,0.305497 5.75948,0.760644 8.67162,1.373074 m 16.37533,21.96311 c 2.55704,4.65487 4.74492,9.56481 6.52787,14.69565 -4.40615,0.50042 -8.7812,1.13999 -13.12061,1.91453 m -52.21506,22.48773 c 4.39986,0.33277 8.21949,0.69936 12.09748,0.41092 3.83257,-0.28506 7.07846,-1.19158 9.91004,-2.77978 2.80327,-1.57234 4.7704,-3.58322 6.10411,-5.3975 1.29961,-1.7679 1.86075,-3.148 1.86075,-3.148 0,0 3.04731,-5.93788 7.34599,-12.13743 2.10614,-3.03747 4.72835,-6.22477 8.01742,-7.90648 3.2604,-1.66705 7.62886,-2.04692 12.81705,1.31029 2.43315,1.57446 4.83249,3.32049 7.18285,5.24571"
       id="path837"
       inkscape:path-effect="#path-effect840"
       inkscape:original-d="m 205.79753,166.03792 a 57.62331,57.62331 0 0 1 -57.62331,57.62331 57.62331,57.62331 0 0 1 -57.623305,-57.62331 57.62331,57.62331 0 0 1 57.623305,-57.62331 57.62331,57.62331 0 0 1 57.62331,57.62331 z"
       inkscape:export-filename="D:\Documents\Unity\arcadegame1\arcadegame1\Assets\sprites\loadingImg.png"
       inkscape:export-xdpi="96"
       inkscape:export-ydpi="96" />
    <path
       style="opacity:1;fill:#cacecd;fill-opacity:0.04511276;stroke:#a7a9a4;stroke-width:4;stroke-linecap:round;stroke-linejoin:round;stroke-miterlimit:4;stroke-dasharray:none;stroke-opacity:1"
       id="path965"
       inkscape:path-effect="#path-effect967"
       sodipodi:type="arc"
       sodipodi:cx="-303.21249"
       sodipodi:cy="86.920822"
       sodipodi:rx="81.491669"
       sodipodi:ry="81.491669"
       d="m -184.51616,86.920822 c -0.14853,5.128761 -0.60024,10.174814 -1.33854,15.120748 -4.40913,-1.52534 -8.84763,-2.943579 -13.31334,-4.252371 m -60.1261,-3.877984 c 8.28319,5.946798 14.62263,8.674535 22.09824,8.000875 6.68449,-0.60237 11.47485,-4.33026 11.47485,-4.33026 0,0 5.70623,-3.853654 12.86612,-7.142516 3.51826,-1.6161 7.62218,-3.093231 11.56048,-2.968598 3.94663,0.124896 8.07251,1.882405 11.24386,7.054898 1.48078,2.415165 2.88078,4.923073 4.19592,7.515966 m -11.76388,36.5579 c -2.12842,4.28694 -4.49924,8.42838 -7.09588,12.40692 -3.35701,-3.27941 -6.77201,-6.48432 -10.24283,-9.61235 m -52.81195,-29.677 c 4.40384,9.22376 9.6496,14.47118 16.58431,16.88955 6.41465,2.23701 12.40683,0.91547 12.40683,0.91547 0,0 6.89351,-1.01069 14.66099,-0.68423 3.83162,0.16103 8.05168,0.73989 11.48148,2.63314 3.42848,1.89252 6.3518,5.26969 7.12738,11.14819 0.36278,2.74972 0.62874,5.54806 0.79381,8.38725 m -25.11275,27.50846 c -3.66284,2.99234 -7.5073,5.77641 -11.51681,8.33479 -1.76477,-4.3324 -3.61614,-8.62288 -5.55195,-12.86906 m -36.54474,-48.18451 c 0.53564,10.19745 3.18137,17.09373 8.48544,22.04391 4.91953,4.5913 10.93074,5.75939 10.93074,5.75939 0,0 6.71485,1.79793 13.73714,5.23351 3.4637,1.69458 7.10716,3.93668 9.50593,7.06249 2.39282,3.11806 3.73649,7.3866 2.09127,13.02619 -0.77039,2.6408 -1.65364,5.28609 -2.65382,7.9281 m -34.90049,14.91977 c -4.75178,1.24498 -9.62441,2.2189 -14.60131,2.90436 0.36759,-4.6843 0.61997,-9.35925 0.7593,-14.02249 m -11.32448,-59.40049 c -0.677,1.76524 -1.28621,3.48684 -1.80155,5.20793 -2.22393,7.79396 -2.25134,13.75818 0,19.33364 0,-1e-5 0,0 0,0 2.31619,5.83643 6.64977,9.12387 6.64977,9.12387 0,0 5.20036,4.582 10.09455,10.6107 2.41271,2.97199 4.79042,6.50966 5.63386,10.31946 0.84068,3.79737 0.22551,8.23724 -3.86447,12.68887 -1.91874,2.0884 -3.96638,4.13717 -6.14699,6.13853 m -39.40595,-2.92264 c -4.76387,-1.19551 -9.41359,-2.66378 -13.93177,-4.38821 2.49122,-3.94986 4.89166,-7.94342 7.19895,-11.97852 m 17.70663,-57.58314 c -7.89503,6.3402 -11.954,12.31887 -12.9181,19.66061 -0.88044,6.70462 1.65357,12.24249 1.65357,12.24249 0,0 2.42757,6.47345 3.84138,14.10462 0.69647,3.75927 1.09389,8.01002 0.0173,11.75799 -1.07754,3.75143 -3.73732,7.32327 -9.38127,9.29775 -2.63811,0.92291 -5.34686,1.75701 -8.11851,2.49822 m -32.46937,-18.8926 c -3.69535,-2.95237 -7.21377,-6.11671 -10.53786,-9.47644 3.89427,-2.62731 7.73034,-5.32694 11.50585,-8.09671 m 39.85489,-45.78632 c -9.98207,2.47026 -16.19813,6.59338 -19.93706,12.85244 -3.47523,5.81763 -3.39097,11.96878 -3.39097,11.96878 0,0 -0.40047,6.97254 -2.34627,14.53827 -0.96012,3.7332 -2.4192,7.74988 -4.9974,10.72941 -2.5742,2.97491 -6.48809,5.15391 -12.36539,4.72083 -2.75062,-0.20269 -5.52776,-0.51022 -8.32367,-0.92668 m -21.64788,-30.45847 c -2.17405,-4.26375 -4.1084,-8.67868 -5.78563,-13.22824 4.59622,-0.76464 9.16684,-1.63021 13.70947,-2.59453 m 54.71163,-25.036447 c -9.89364,-1.437591 -17.14032,-0.578253 -23.22169,3.459327 -5.59577,3.71519 -8.03372,9.28701 -8.03372,9.28701 0,0 -3.1924,6.12269 -7.99336,12.25318 -2.36673,3.02216 -5.30235,6.11944 -8.83976,7.80431 -3.52646,1.67964 -7.97078,2.09114 -13.1342,-0.77573 -2.41966,-1.34346 -4.82171,-2.8078 -7.1984,-4.39711 m -7.28188,-38.463194 c 0.15155,-5.127916 0.60619,-10.173038 1.34734,-15.117955 4.40806,1.528223 8.84553,2.949398 13.31025,4.261166 m 60.12219,3.918375 c -8.27789,-5.95302 -14.61679,-8.684514 -22.09245,-8.015629 -6.68497,0.598139 -11.47777,4.322789 -11.47777,4.322789 0,0 -5.70881,3.849745 -12.87044,7.133284 -3.51916,1.613498 -7.62372,3.087534 -11.56168,2.96011 -3.94627,-0.127692 -8.07076,-1.887923 -11.23883,-7.062032 -1.47926,-2.415927 -2.87772,-4.924538 -4.19129,-7.51807 m 11.78463,-36.547911 c 2.13083,-4.28547 4.50398,-8.425363 7.10286,-12.402269 3.3552,3.281342 6.76842,6.488216 10.23751,9.618264 m 52.79576,29.707392 c -4.39854,-9.226616 -9.64174,-14.47702 -16.57497,-16.899187 -6.41343,-2.240572 -12.40645,-0.922386 -12.40645,-0.922386 0,0 -6.89419,1.006804 -14.66159,0.675742 -3.83158,-0.163309 -8.05132,-0.744715 -11.48006,-2.640022 -3.42742,-1.894579 -6.34883,-5.273465 -7.1211,-11.152291 -0.36124,-2.749875 -0.62564,-5.548304 -0.78911,-8.387527 m 25.12861,-27.4936103 c 3.66464,-2.9902537 7.51082,-5.7721477 11.52196,-8.3282737 1.76221,4.3333672 3.61107,8.6248481 5.5444,12.87208249 m 36.51627,48.20489151 c -0.53029,-10.197315 -3.17151,-17.095028 -8.47255,-22.048417 -4.91665,-4.594201 -10.92707,-5.765757 -10.92707,-5.765757 0,0 -6.71368,-1.801755 -13.73399,-5.241254 -3.46273,-1.69651 -7.10493,-3.940639 -9.50192,-7.0677687 -2.39104,-3.1193639 -3.7323,-7.38862751 -2.08374,-13.0272397 0.77196,-2.6403465 1.6568,-5.2851196 2.65859,-7.9265576 m 34.91147,-14.900067 c 4.75297,-1.242269 9.62671,-2.213396 14.60463,-2.895971 -0.37089,4.6843 -0.62653,9.359294 -0.76908,14.022622 m 11.28373,59.410874 c 0.66603,-1.733208 1.2668,-3.424656 1.77757,-5.115395 2.27017,-7.89113 2.29808,-13.905622 0,-19.529221 0,0 0,-2e-6 0,-2e-6 -2.31968,-5.775921 -6.60237,-9.0260259 -6.60237,-9.0260259 0,0 -5.19737,-4.5858288 -10.08769,-10.6177055 -2.4108,-2.9735701 -4.78629,-6.5127666 -5.62724,-10.3231286 -0.8382,-3.797924 -0.22007,-8.237535 3.87327,-12.686878 1.92033,-2.087343 3.96957,-4.134984 6.15181,-6.135162 m 39.40261,2.950762 c 4.76271,1.198233 9.41119,2.669129 13.92804,4.396106 -2.49362,3.94842 -4.89651,7.940579 -7.2063,11.974313 m -17.74201,57.573084 c 7.8995,-6.334869 11.96196,-12.312052 12.93029,-19.653042 0.88433,-6.70424 -1.64638,-12.243757 -1.64638,-12.243757 0,0 -2.42366,-6.4750776 -3.83252,-14.10708436 -0.69403,-3.75970254 -1.08863,-8.01060674 -0.01,-11.75788064 1.07996,-3.75071 3.74196,-7.320907 9.38688,-9.292097 2.63856,-0.921379 5.34772,-1.753923 8.1197,-2.493555 m 32.45695,18.910914 c 3.69357,2.9544717 7.21013,6.1208308 10.53227,9.4824954 -3.89572,2.625129 -7.73327,5.3226096 -11.51032,8.0902776 m -39.88027,45.763985 c 9.98339,-2.464967 16.20174,-6.584496 19.94413,-12.841323 3.47846,-5.815577 3.39762,-11.966752 3.39762,-11.966752 0,0 0.40432,-6.972291 2.35438,-14.536996 0.96223,-3.732698 2.42359,-7.748587 5.00348,-10.7266988 2.57588,-2.9734843 6.49099,-5.1503182 12.36797,-4.7139161 2.75047,0.20424 5.5274,0.5133511 8.32302,0.9314101 m 21.63061,30.4718938 c 2.17166,4.265236 4.10352,8.681584 5.77818,13.232462 -4.59671,0.761715 -9.16785,1.624395 -13.71105,2.585874 m -54.72701,25.001826 c 9.89211,1.443079 17.13927,0.588985 23.22363,-3.444667 5.59838,-3.711466 8.03982,-9.281673 8.03982,-9.281673 0,0 3.19622,-6.120612 8.00073,-12.248179 2.36849,-3.020713 5.30589,-6.116263 8.84423,-7.798988 3.52739,-1.677518 7.97194,-2.08633 13.13374,0.783898 2.4189,1.345035 4.82013,2.810977 7.19593,4.401904"
       inkscape:export-filename="D:\Documents\Unity\arcadegame1\arcadegame1\Assets\sprites\loadingImg.png"
       inkscape:export-xdpi="96"
       inkscape:export-ydpi="96"
       transform="translate(25.444059,-100.27953)" />
    <rect
       style="opacity:1;fill:#cccccc;fill-opacity:1;stroke:#cccccc;stroke-width:6;stroke-linecap:round;stroke-linejoin:round;stroke-miterlimit:4;stroke-dasharray:none;stroke-opacity:1"
       id="rect983"
       width="217.02284"
       height="29.185829"
       x="-421.95544"
       y="220.20096"
       ry="14.592915" />
    <circle
       style="opacity:1;fill:#a7a9a4;fill-opacity:1;stroke:#a7a9a4;stroke-width:6;stroke-linecap:round;stroke-linejoin:round;stroke-miterlimit:4;stroke-dasharray:none;stroke-opacity:1"
       id="path985"
       cx="-407.13507"
       cy="234.79387"
       r="8.7312498" />
    <circle
       r="8.7312498"
       cy="234.79387"
       cx="-219.36618"
       id="circle987"
       style="opacity:1;fill:#a7a9a4;fill-opacity:1;stroke:#a7a9a4;stroke-width:6;stroke-linecap:round;stroke-linejoin:round;stroke-miterlimit:4;stroke-dasharray:none;stroke-opacity:1" />
    <path
       style="fill:none;fill-rule:evenodd;stroke:#000000;stroke-width:0.26458332"
       d="m -538.72494,443.86169 c 0.90472,-2.85732 3.92945,-5.54615 8.38199,-7.37392 4.15639,-0.51318 6.87455,0.30848 8.39522,1.73427 1.83541,1.3625 3.14971,2.92189 4.05621,4.53442 0,0 0,0 0,0 0.83321,1.28556 1.59048,3.11893 1.91937,5.2009 0,0 0,0 0,0 0.13765,3.1589 -0.76607,6.09319 -2.32395,8.30327 -1.1132,1.54338 -2.47643,2.68586 -3.91753,3.52326 0.52354,-1.56658 0.73532,-3.13973 0.56079,-4.54535 -0.22811,-1.9447 -1.18806,-3.60176 -2.36381,-4.65045 0,0 0,0 0,0 -0.29587,0.0591 -0.90794,0.13448 -1.58504,-0.14043 -0.80296,-0.14632 -1.47784,-0.0985 -1.87597,0.23758 -0.3981,0.54834 0.11305,0.81306 2.25595,0.95196 2.51483,-1.22573 4.25025,-1.88223 4.3415,-2.67159 m 7.04436,15.55007 c -1.09931,1.01451 -2.25886,1.8574 -3.44938,2.54497 -5.73924,3.3923 -12.14436,4.0949 -17.48291,2.71544 0,0 0,0 0,0 -3.51362,-0.95139 -6.55682,-2.66781 -8.9025,-4.80484 3.14449,0.066 6.08705,-0.63318 8.52086,-1.84626 0,0 0,0 0,0 3.40535,-1.76251 5.60465,-4.8981 6.18851,-7.69012 0.0662,-0.57603 0.06,-1.09918 -0.0344,-1.53297 m -16.86573,20.41401 c -1.02984,-0.68075 -2.00558,-1.41702 -2.92243,-2.20157 -3.70496,-3.24487 -6.22025,-7.06152 -7.75954,-10.9597 0,0 0,0 0,0 -1.82615,-4.62003 -2.38111,-9.32783 -1.94503,-13.62202 2.46519,3.4971 5.58998,6.18267 8.86724,7.83853 0,0 0,0 0,0 2.73893,1.36203 5.55799,2.00435 7.96726,1.77124 0,0 0,0 0,0 0.6124,-0.0567 1.20871,-0.16222 1.78089,-0.31001 m -27.48372,-5.61138 c -0.0725,-4.40703 0.65099,-8.63995 2.03302,-12.45271 0,0 0,0 0,0 2.10148,-5.6479 5.49973,-10.31859 9.48487,-13.65596 0,0 0,0 0,-10e-6 0.1942,-0.16263 0.38968,-0.32217 0.58637,-0.47862 -0.0456,0.24493 -0.0881,0.4896 -0.12723,0.73391 -0.80439,5.01053 -0.21682,9.8492 1.35193,13.87253 0,0 0,0 0,0 1.05057,2.61792 2.60105,4.86949 4.38754,6.64118 m -14.42712,-25.03989 c 0.0654,-0.0653 0.13091,-0.1303 0.19663,-0.19504 0,0 0,0 0,0 4.54672,-4.42066 9.73219,-7.3729 14.95309,-9.08323 3.90807,-1.28075 7.82465,-1.88541 11.57876,-1.91935 -2.79184,2.46082 -5.09558,5.23256 -6.82738,8.14131 0,0 0,0 0,0 -2.30011,3.8769 -3.5981,7.98984 -3.73713,11.73952 0,0 0,0 0,0 -0.004,0.10326 -0.007,0.20635 -0.01,0.30924 m 6.01165,-28.63352 c 8.19708,-0.82573 16.02366,0.59625 22.47247,3.6451 1.94258,0.92398 3.76584,1.97976 5.45863,3.14127 -2.02241,0.22701 -3.98247,0.60548 -5.85636,1.12214 -6.20619,1.72032 -11.37373,5.13156 -14.99396,9.17838 m 21.96377,-19.82767 c 5.10355,2.88756 9.43109,6.55231 12.83345,10.64564 2.75424,3.32751 4.8853,6.89807 6.45235,10.53857 -3.53508,-1.71457 -7.16262,-2.88197 -10.71123,-3.46277 -4.4123,-0.72578 -8.72044,-0.55647 -12.59253,0.32333 m 29.34654,-4.31253 c 1.53562,2.89913 2.752,5.8635 3.66933,8.8341 2.01278,6.51167 2.60704,13.01496 2.06746,19.0665 -3.51631,-4.88984 -7.77194,-8.84757 -12.31477,-11.64493 -2.12173,-1.30427 -4.30412,-2.36453 -6.48442,-3.16636 m 27.66628,11.14467 c -0.1345,8.53303 -2.18739,16.52273 -5.66408,23.19881 -0.73417,1.40535 -1.52512,2.75527 -2.36562,4.04699 -0.20623,-1.51375 -0.48075,-2.99754 -0.82018,-4.44474 -1.62091,-6.89485 -4.85006,-12.87502 -8.88007,-17.53285 m 19.24608,22.89996 c -3.85126,6.961 -8.90495,12.71734 -14.53286,17.02738 -1.65528,1.26579 -3.35563,2.40687 -5.08632,3.42796 0.63737,-1.88731 1.15399,-3.78002 1.54682,-5.66358 1.34913,-6.45974 1.23271,-12.8105 -0.0472,-18.45833 m 6.63264,29.19896 c -5.84237,4.01264 -12.06835,6.77169 -18.26045,8.41091 -2.74437,0.72696 -5.48006,1.23349 -8.18026,1.53719 1.83025,-1.97636 3.48099,-4.04298 4.93805,-6.17247 3.32453,-4.85929 5.66113,-10.04442 6.92035,-15.12923 m -6.5231,29.26969 c -9.95168,1.76233 -19.6335,1.09308 -28.11945,-1.39961 8.04503,-3.65119 14.70487,-8.95476 19.47851,-14.94334 m -17.64744,24.35285 c -5.55032,-1.26359 -10.75437,-3.19603 -15.44622,-5.68833 -3.60972,-1.93045 -6.91851,-4.16291 -9.89797,-6.61763 3.82602,-0.086 7.53722,-0.54206 11.06014,-1.33302 4.58634,-1.03302 8.83354,-2.68164 12.65022,-4.76945 m -25.72685,15.47719 c -5.47956,-3.98467 -10.13725,-8.62076 -13.86826,-13.61388 -1.80058,-2.41371 -3.38465,-4.90288 -4.76157,-7.43691 2.67411,1.01136 5.36473,1.81649 8.04166,2.40947 5.59316,1.24059 11.12889,1.55182 16.32684,1.06749 m -29.75339,4.45439 c -3.97712,-6.39925 -6.73336,-13.12411 -8.38438,-19.79634 -0.54069,-2.18384 -0.96193,-4.36125 -1.27038,-6.5222 1.63013,1.42317 3.30746,2.74564 5.02175,3.96201 5.29316,3.75631 10.93601,6.52267 16.54401,8.22372 m -29.38341,-6.6347 c -1.94,-9.74131 -1.82069,-19.28791 -0.0874,-27.97138 4.35047,7.7013 9.97995,14.12085 16.1895,18.89076 m -25.40986,-16.2569 c 1.3478,-9.28055 4.3251,-17.8555 8.55398,-25.15763 0.23791,-0.41068 0.47941,-0.81753 0.7244,-1.22052 0.0768,0.46118 0.15819,0.92021 0.24412,1.37697 1.5389,8.17781 4.63232,15.54737 8.6864,21.7961 m -18.49577,-23.85232 c 4.69094,-8.73052 10.80404,-16.03918 17.62519,-21.68631 -1.47988,8.72099 -1.18369,17.24692 0.58179,24.90357 m -9.39784,-28.67446 c 1.8722,-1.72383 3.80418,-3.33359 5.78378,-4.8252 5.71283,-4.29155 11.77222,-7.58461 17.9091,-9.9586 -3.07395,5.75343 -5.26782,11.6939 -6.53235,17.55626 -0.45103,2.08665 -0.78563,4.16546 -1.00939,6.22417 m 0.37966,-30.1585 c 4.45023,-1.98003 8.96292,-3.51386 13.45789,-4.62518 4.56938,-1.13112 9.11418,-1.81996 13.56972,-2.11005 -3.15946,3.10008 -5.97183,6.39614 -8.40191,9.82202 -2.43136,3.42596 -4.49305,6.98033 -6.16969,10.5804 m 9.65274,-28.63333 c 9.72047,-1.10018 19.14634,-0.47537 27.77237,1.53443 -7.83963,4.10109 -14.59694,9.35633 -19.99055,15.23708 m 17.66891,-24.53829 c 9.61215,1.77331 18.48129,5.08656 26.10221,9.59973 -8.70961,1.55255 -16.64208,4.62997 -23.51602,8.70362 m 24.09174,-18.27285 c 0.42674,0.22355 0.85062,0.45035 1.27158,0.68036 8.10964,4.47703 15.09181,10.05401 20.79457,16.25656 -8.29631,-0.971 -16.37025,-0.57182 -23.78331,1.00528 -0.43722,0.0932 -0.87212,0.19085 -1.30464,0.29279 m 28.41169,-10.29166 c 3.37296,3.34334 6.39949,6.88572 9.05923,10.56362 2.80174,3.88115 5.19391,7.89848 7.19623,11.98332 -4.14628,-1.77406 -8.33978,-3.16499 -12.51288,-4.16074 -4.01101,-0.9581 -8.00539,-1.55101 -11.92162,-1.80571 m 30.17641,-1.71017 c 4.12732,7.54569 7.00883,15.3609 8.74536,23.09423 0.2262,1.00707 0.43265,2.01269 0.61977,3.01627 -0.78963,-0.63305 -1.58664,-1.24863 -2.39042,-1.8464 -6.22721,-4.63184 -12.85489,-8.21796 -19.52805,-10.69516 m 29.51094,6.68699 c 2.18884,9.4535 2.79917,18.79674 2.09901,27.6344 -5.22826,-7.14769 -11.31156,-13.19896 -17.83604,-17.9317 m 26.69546,14.25879 c -0.36169,9.66307 -2.15554,18.8647 -5.11353,27.20959 -3.1982,-8.24559 -7.54135,-15.63512 -12.61562,-21.94647 m 22.11197,20.68844 c -2.1655,7.04133 -5.07557,13.6121 -8.61212,19.53814 -1.11148,1.85838 -2.2793,3.65497 -3.49748,5.38791 -0.20528,-2.08992 -0.48422,-4.15085 -0.83444,-6.17724 -1.12387,-6.50319 -3.02545,-12.61749 -5.52109,-18.24433 m 15.84807,25.76418 c -5.22684,8.14344 -11.4527,15.13302 -18.23886,20.83345 1.42391,-8.73779 1.46622,-17.31498 0.3037,-25.31615 m 8.52691,29.05028 c -2.84781,2.602 -5.80362,4.99232 -8.83953,7.16237 -4.57137,3.26179 -9.30665,6.02246 -14.11824,8.30658 2.13904,-4.82753 3.81158,-9.71874 5.00281,-14.58743 0.80588,-3.29054 1.39201,-6.57233 1.77,-9.81804 m 0.82377,30.25271 c -8.15878,4.28207 -16.57573,7.27412 -24.89712,9.07538 -0.37418,0.081 -0.74816,0.15954 -1.12193,0.23565 0.23169,-0.29886 0.46116,-0.59861 0.6884,-0.89924 5.09481,-6.73954 9.09448,-13.90964 11.93775,-21.15389 m -6.65473,29.55451 c -9.34859,2.28708 -18.61268,3.15972 -27.47449,2.83462 6.91378,-5.51935 12.81106,-11.76207 17.51278,-18.39667 0.006,-0.009 0.0123,-0.0173 0.0184,-0.0259 m -13.49562,27.12211 c -9.59068,0.0109 -18.81437,-1.27393 -27.3533,-3.63795 8.00647,-3.77237 15.18797,-8.50296 21.36473,-13.85898 m -19.45152,23.24878 c -9.33406,-2.21032 -18.01866,-5.59786 -25.73602,-9.94594 8.67622,-1.73568 16.72164,-4.66252 23.9565,-8.44775 m -24.3521,18.02 c -1.65846,-0.84612 -3.28209,-1.7318 -4.8686,-2.65548 -6.58603,-3.8611 -12.51981,-8.32643 -17.7453,-13.20843 7.08351,0.29093 13.97874,-0.19692 20.51192,-1.39139 1.61881,-0.29582 3.21454,-0.63767 4.78576,-1.02293 m -27.951,11.6268 c -6.94746,-6.01605 -12.8641,-12.70812 -17.65591,-19.76151 -0.20708,-0.30482 -0.41208,-0.61028 -0.61502,-0.91636 0.3504,0.0988 0.70082,0.19559 1.05122,0.29023 8.17145,2.20712 16.32527,3.25022 24.16287,3.25329 m -29.93116,4.80356 c -5.59053,-7.79029 -9.90509,-15.9987 -13.03423,-24.29643 7.752,4.23404 15.75874,7.32582 23.69231,9.2206 0.023,0.005 0.0459,0.011 0.0689,0.0164 m -30.22473,-2.15444 c -2.62855,-6.27918 -4.61788,-12.63312 -6.0008,-18.94269 -0.55742,-2.54135 -1.01434,-5.07479 -1.37499,-7.59413 1.89959,1.66055 3.83963,3.23523 5.8138,4.72061 4.9574,3.73137 10.12608,6.91625 15.3851,9.53443 m -29.04218,-8.7431 c -1.68591,-9.3926 -2.12269,-18.64305 -1.48914,-27.49035 5.28225,7.11371 11.25414,13.32949 17.64225,18.49893 m -26.48021,-14.77678 c 0.35414,-9.51749 1.85935,-18.66069 4.33683,-27.16859 3.66485,8.05755 8.21061,15.37731 13.36386,21.81083 m -22.77844,-20.03097 c 2.34819,-9.23227 5.74939,-17.85811 10.02481,-25.61651 1.81575,8.66041 4.70369,16.74315 8.39041,24.09978 m -17.96357,-24.41469 c 1.1725,-2.32985 2.41613,-4.59724 3.72725,-6.79687 3.49834,-5.83602 7.43489,-11.18972 11.69565,-16.02791 -0.0755,6.39081 0.4219,12.62518 1.44907,18.59739 0.39424,2.29475 0.87111,4.54883 1.42472,6.75905 m -12.15773,-27.74539 c 6.04423,-7.36214 12.78055,-13.72096 19.91236,-18.99017 -1.96979,8.63585 -2.79425,17.21057 -2.58783,25.44278 m -5.98444,-29.73562 c 1.78233,-1.41506 3.5917,-2.76636 5.4241,-4.05272 5.83941,-4.09231 11.88997,-7.52261 18.03127,-10.32353 -2.80635,6.07473 -4.9996,12.24321 -6.56047,18.38709 -0.50513,1.98669 -0.94421,3.97133 -1.31893,5.94979 m 0.38433,-30.31321 c 8.50331,-4.22502 17.21141,-7.30411 25.85126,-9.31129 -5.2375,7.14679 -9.47942,14.66651 -12.68103,22.28464 m 6.51992,-29.63169 c 1.40222,-0.37357 2.80396,-0.72066 4.20426,-1.04152 7.7609,-1.782 15.46257,-2.73937 22.97244,-2.96328 -5.50102,5.02169 -10.37202,10.43031 -14.53896,16.09007 -0.79182,1.07431 -1.5594,2.15754 -2.30255,3.24856 m 12.251,-27.75636 c 9.45608,-0.58519 18.66882,-0.0804 27.42002,1.36439 -7.56998,4.60419 -14.38267,9.91586 -20.31341,15.70635 m 17.42758,-24.84936 c 9.38601,1.24966 18.33453,3.5069 26.62734,6.62169 -8.31009,3.04104 -15.99718,6.94942 -22.93662,11.4965 m 21.88248,-21.01464 c 8.97276,3.04541 17.31385,7.01599 24.80508,11.7617 -8.76444,1.28446 -17.04019,3.59612 -24.7026,6.70636"
       id="path1002"
       inkscape:path-effect="#path-effect1007"
       inkscape:original-d="m -529.83508,446.67093 c 1.53837,-6.00341 8.85145,-0.88818 9.97806,2.55687 3.05304,9.33588 -6.73047,16.91948 -15.09181,17.39926 -14.95648,0.8582 -25.4012,-13.72365 -24.82044,-27.62675 0.85228,-20.40337 20.78109,-34.04965 40.16168,-32.24164 25.83129,2.4098 42.76406,27.85736 39.66283,52.69663 -3.90259,31.25769 -34.94161,51.51156 -65.23157,47.08401 -36.6852,-5.36235 -60.27802,-42.03015 -54.5052,-77.7665 6.80307,-42.11406 49.12135,-69.05637 90.30144,-61.92639 47.54405,8.23184 77.84265,56.21431 69.34758,102.83638 -9.65263,52.97495 -63.30853,86.63447 -115.37132,76.76877 -58.40657,-11.06783 -95.43033,-70.40368 -84.18995,-127.90626 12.47895,-63.83876 77.49951,-104.22923 140.44119,-91.61115" />
    <path
       style="fill:none;stroke:#000000;stroke-width:3.5606966;stroke-linecap:round;stroke-linejoin:round;stroke-miterlimit:4;stroke-dasharray:none;stroke-opacity:1"
       d="m -363.67715,417.13979 24.80865,15.38765 -24.99756,14.43236"
       id="path1004"
       inkscape:connector-curvature="0" />
    <path
       style="opacity:1;fill:none;fill-opacity:1;stroke:#cccccc;stroke-width:5.473;stroke-linecap:round;stroke-linejoin:round;stroke-miterlimit:4;stroke-dasharray:none;stroke-opacity:1"
       d="m -231.53418,212.21185 c -6.78559,-26.85413 -25.35255,-49.74901 -51.22375,-61.68615 m 0,168.72199 c 25.87093,-11.93701 44.43752,-34.83161 51.22323,-61.68564"
       id="path993"
       inkscape:connector-curvature="0"
       sodipodi:nodetypes="cccc" />
    <path
       style="fill:none;stroke:#cccccc;stroke-width:5.473;stroke-linecap:round;stroke-linejoin:miter;stroke-miterlimit:4;stroke-dasharray:none;stroke-opacity:1"
       d="m -282.7581,150.52594 4.31798,22.20786"
       id="path1027"
       inkscape:connector-curvature="0" />
    <path
       style="fill:none;stroke:#cccccc;stroke-width:5.473;stroke-linecap:round;stroke-linejoin:miter;stroke-miterlimit:4;stroke-dasharray:none;stroke-opacity:1"
       d="m -282.7581,150.52594 23.7043,-5.25944"
       id="path1042"
       inkscape:connector-curvature="0" />
    <path
       style="fill:none;stroke:#cccccc;stroke-width:5.473;stroke-linecap:round;stroke-linejoin:miter;stroke-miterlimit:4;stroke-dasharray:none;stroke-opacity:1"
       d="m -282.7581,319.24769 3.7679,-27.69106"
       id="path1044"
       inkscape:connector-curvature="0" />
    <path
       style="fill:none;stroke:#ffffff;stroke-width:5.473;stroke-linecap:round;stroke-linejoin:miter;stroke-miterlimit:4;stroke-dasharray:none;stroke-opacity:1"
       d="m -282.7581,319.24769 29.97228,2.07789"
       id="path1046"
       inkscape:connector-curvature="0"
       inkscape:export-filename="D:\Documents\Unity\arcadegame1\arcadegame1\Assets\sprites\bg1.png"
       inkscape:export-xdpi="96"
       inkscape:export-ydpi="96" />
    <path
       style="opacity:1;fill:none;fill-opacity:1;stroke:#ffffff;stroke-width:8;stroke-linecap:square;stroke-linejoin:miter;stroke-miterlimit:4;stroke-dasharray:none;stroke-opacity:1"
       d="m 18.569096,469.50833 c 0.09575,5.33013 -0.448404,10.64428 -1.557037,15.86702 l 25.471561,5.48302 c -3.270786,15.03748 -9.681265,29.15305 -18.465909,41.58118 L 2.6536155,517.26015 c -2.92183767,4.08525 -6.1781878,7.95811 -9.7116445,11.56116 m -0.6917714,0.67061 c -3.9075516,3.90755 -8.1430446,7.48716 -12.6310596,10.6634 l 15.0808217,21.4541 c -12.4729807,8.72121 -26.6231997,15.05805 -41.6851277,18.24499 l -5.329618,-25.48703 c -4.774533,0.98269 -9.623515,1.49293 -14.48954,1.47329 m -0.929092,-0.0299 c -5.33013,0.0957 -10.644277,-0.44842 -15.86702,-1.55706 l -5.483044,25.47156 c -15.03748,-3.27081 -29.15304,-9.6813 -41.58116,-18.46595 l 15.17942,-21.36409 c -4.08525,-2.92184 -7.9581,-6.17819 -11.56115,-9.71165 m -0.67062,-0.69177 c -3.90754,-3.90756 -7.48714,-8.14305 -10.66338,-12.63107 l -21.45412,15.0808 c -8.72119,-12.47299 -15.05802,-26.62322 -18.24494,-41.68515 l 25.48703,-5.32959 c -0.98269,-4.77453 -1.49291,-9.62351 -1.47327,-14.48954 m 0.0299,-0.92909 c -0.0957,-5.33013 0.44843,-10.64428 1.55708,-15.86702 l -25.47155,-5.48307 c 3.27082,-15.03748 9.68132,-29.15303 18.46599,-41.58114 l 21.36407,15.17944 c 2.92184,-4.08525 6.1782,-7.9581 9.71166,-11.56115 m 0.69178,-0.67061 c 3.90755,-3.90754 8.14305,-7.48714 12.63107,-10.66337 l -15.08078,-21.45413 c 12.473,-8.72119 26.62323,-15.058 41.685169,-18.24491 l 5.329563,25.48704 c 4.774535,-0.98268 9.623518,-1.4929 14.489543,-1.47325 m 0.929092,0.0299 c 5.33013,-0.0957 10.644275,0.44844 15.867017,1.55709 l 5.483099,-25.47154 c 15.03747,3.27084 29.153021,9.68136 41.5811231,18.46603 l -15.1794611,21.36406 c 4.085244,2.92185 7.958091,6.17821 11.561136,9.71168 m 0.6706098,0.69177 c 3.9075373,3.90756 7.48713137,8.14306 10.6633627,12.63109 L 24.367956,407.07532 c 8.721173,12.473 15.057972,26.62324 18.244865,41.68518 l -25.487046,5.32954 c 0.982675,4.77453 1.492889,9.62352 1.473237,14.48954"
       id="path834"
       inkscape:path-effect="#path-effect848"
       inkscape:original-d="M 31.75,469.50833 A 99.48333,99.48333 0 0 1 -67.73333,568.99166 99.48333,99.48333 0 0 1 -167.21666,469.50833 99.48333,99.48333 0 0 1 -67.73333,370.025 99.48333,99.48333 0 0 1 31.75,469.50833 Z"
       inkscape:export-filename="D:\Documents\Unity\arcadegame1\arcadegame1\Assets\sprites\bg1.png"
       inkscape:export-xdpi="96"
       inkscape:export-ydpi="96" />
    <path
       style="fill:none;stroke:#000000;stroke-width:10;stroke-linecap:butt;stroke-linejoin:miter;stroke-miterlimit:4;stroke-dasharray:none;stroke-opacity:1"
       d="m 133.35755,493.84192 h 17.21216 v -32.95226 l 37.26731,0 v 32.92761 h 15.71545"
       id="path836"
       inkscape:connector-curvature="0"
       sodipodi:nodetypes="cccccc" />
    <path
       inkscape:original-d="M 31.75,469.50833 A 99.48333,99.48333 0 0 1 -67.73333,568.99166 99.48333,99.48333 0 0 1 -167.21666,469.50833 99.48333,99.48333 0 0 1 -67.73333,370.025 99.48333,99.48333 0 0 1 31.75,469.50833 Z"
       inkscape:path-effect="#path-effect857"
       id="path855"
       d="m 9.992724,469.50833 c 0.146813,4.36708 -0.2289822,8.74991 -1.0669348,13.08805 l 42.1839328,8.44166 c -2.352421,11.5075 -6.357969,22.48939 -11.748316,32.67734 L 1.3353097,503.36346 c -2.00342053,3.6786 -4.309353,7.23706 -6.8717842,10.62937 m -0.064658,0.053 c -2.8094284,3.71221 -5.9261203,7.22483 -9.2896233,10.4774 l 30.134629,31.204 c -8.2582977,7.96815 -17.5880996,14.82906 -27.721079,20.31441 l -20.718738,-37.84043 c -3.663536,2.04073 -7.450061,3.78179 -11.313563,5.17718 m -0.08029,0.008 c -4.231424,1.52309 -8.554765,2.63124 -12.909573,3.264 l 6.67102,42.55204 c -5.533923,0.90659 -11.17852,1.43163 -16.904978,1.54632 -6.321356,-0.1266 -12.54296,-0.75325 -18.626052,-1.84119 l 7.329251,-42.40135 c -3.972221,-0.64805 -7.914065,-1.68837 -11.779518,-3.07496 m -0.06725,-0.0449 c -4.231423,-1.52309 -8.370929,-3.46112 -12.358071,-5.75363 l -21.24962,37.58607 c -10.05301,-5.62054 -19.28958,-12.6034 -27.44141,-20.68024 l 30.52232,-30.79856 c -3.03476,-3.00858 -5.85962,-6.22991 -8.42857,-9.61798 m -0.0333,-0.0765 c -2.80943,-3.71221 -5.31159,-7.624 -7.44604,-11.67494 l -38.30481,19.8296 c -5.25294,-10.2657 -9.10782,-21.31209 -11.29633,-32.87085 l 42.30626,-7.78662 c -0.69647,-3.96828 -1.00352,-7.96979 -0.87514,-11.95852 m 0.0222,-0.0761 c -0.14681,-4.36708 0.22899,-8.74991 1.06695,-13.08805 l -42.18393,-8.44168 c 2.35243,-11.5075 6.35798,-22.48939 11.74833,-32.67734 l 38.02609,20.35194 c 2.00342,-3.6786 4.30936,-7.23705 6.87179,-10.62936 m 0.0647,-0.053 c 2.80943,-3.7122 5.92612,-7.22482 9.28963,-10.47739 l -30.13462,-31.20401 c 8.2583,-7.96815 17.58811,-14.82906 27.72109,-20.3144 l 20.71872,37.84044 c 3.663536,-2.04072 7.450062,-3.78179 11.313564,-5.17717 m 0.08029,-0.008 c 4.231425,-1.52309 8.554767,-2.63124 12.909575,-3.264 l -6.670996,-42.55204 c 5.533903,-0.90658 11.178479,-1.43162 16.904915,-1.54631 6.321378,0.1266 12.543003,0.75325 18.626114,1.8412 l -7.329275,42.40134 c 3.972222,0.64806 7.914065,1.68839 11.779518,3.07497 m 0.06725,0.0449 c 4.231424,1.52309 8.370929,3.46112 12.358065,5.75363 l 21.249642,-37.58606 c 10.05300369,5.62055 19.2895796,12.60341 27.441401,20.68026 l -30.522338,30.79854 c 3.034762,3.00858 5.859625,6.22991 8.428574,9.61799 m 0.033297,0.0765 c 2.8094248,3.71221 5.31158613,7.62401 7.4460325,11.67495 L 40.149769,416.81629 c 5.25293,10.26571 9.10781,21.3121 11.296315,32.87086 l -42.3062708,7.7866 c 0.6964713,3.96828 1.0035198,7.96979 0.8751318,11.95852"
       style="opacity:1;fill:none;fill-opacity:1;stroke:#ffffff;stroke-width:8;stroke-linecap:square;stroke-linejoin:miter;stroke-miterlimit:4;stroke-dasharray:none;stroke-opacity:1"
       inkscape:connector-curvature="0"
       transform="translate(0,318.79909)"
       inkscape:export-filename="D:\Documents\Unity\arcadegame1\arcadegame1\Assets\sprites\bg1.png"
       inkscape:export-xdpi="96"
       inkscape:export-ydpi="96" />
    <path
       sodipodi:nodetypes="cccccc"
       inkscape:connector-curvature="0"
       id="path859"
       d="m 142.33781,810.28359 h 17.21216 l 0,-54.39319 28.28705,0 0,54.36854 h 15.71545"
       style="fill:none;stroke:#000000;stroke-width:10;stroke-linecap:butt;stroke-linejoin:miter;stroke-miterlimit:4;stroke-dasharray:none;stroke-opacity:1" />
    <path
       transform="matrix(1.5661736,0,0,1.5661736,38.348821,427.15325)"
       inkscape:connector-curvature="0"
       style="opacity:1;fill:none;fill-opacity:1;stroke:#ffffff;stroke-width:6.38498823;stroke-linecap:square;stroke-linejoin:miter;stroke-miterlimit:4;stroke-dasharray:none;stroke-opacity:1"
       d="m 21.65384,469.50833 c 0.04317,3.27044 -0.139623,6.53107 -0.532995,9.76652 l 19.849521,2.53057 c -1.247669,9.43738 -3.789759,18.58649 -7.431828,27.2529 l -18.383043,-7.7683 c -1.467931,3.45047 -3.161723,6.82207 -5.058782,10.0922 m -3.4344461,5.44867 c -1.8647909,2.7685 -3.8769393,5.44859 -6.02106574,8.0249 L 16.121785,537.70275 c -5.991354,7.23673 -12.8505496,13.75862 -20.3831427,19.37123 L -16.286366,540.9927 c -3.042151,2.28455 -6.208587,4.38865 -9.476717,6.2897 m -5.660607,3.01573 c -2.969308,1.46312 -6.007372,2.75923 -9.098812,3.87296 l 6.734252,18.78596 c -8.86333,3.16438 -18.167921,5.18733 -27.719329,5.87443 l -1.293846,-20.02113 c -1.640167,0.0909 -3.28479,0.12652 -4.931905,0.10483 -2.071608,0.0273 -4.139273,-0.0361 -6.199089,-0.18613 m -6.256816,-0.74266 c -3.220276,-0.50915 -6.411098,-1.2246 -9.557085,-2.13099 l -5.520055,19.16767 c -9.062685,-2.60906 -17.730465,-6.4059 -25.808895,-11.19608 l 10.25653,-17.20351 c -3.24462,-1.94711 -6.38497,-4.09469 -9.39845,-6.42014 m -4.98565,-4.13701 c -2.51748,-2.21625 -4.92691,-4.5602 -7.21289,-7.01648 l -14.7421,13.70438 c -6.39411,-6.88482 -11.96674,-14.53084 -16.52344,-22.74361 l 17.47623,-9.75219 c -1.85036,-3.293 -3.49487,-6.68489 -4.91095,-10.15308 m -2.16545,-5.97377 c -1.01124,-3.1199 -1.83582,-6.28891 -2.45837,-9.49164 l -19.58674,3.8637 c -1.23774,-6.2019 -1.91913,-12.55296 -1.98627,-18.99531 0.0334,-3.20666 0.21902,-6.39071 0.54966,-9.545 l 19.92214,1.9719 c 0.33832,-3.69094 0.95329,-7.35378 1.82232,-10.96595 m 1.73727,-6.08424 c 1.01125,-3.1199 2.20915,-6.1907 3.57833,-9.19701 l -18.21223,-8.23595 c 3.85348,-8.57101 8.78809,-16.64047 14.60939,-24.01395 l 15.75066,12.47144 c 2.36921,-2.98168 4.91349,-5.83369 7.61025,-8.53344 m 4.74223,-4.42583 c 2.51748,-2.21624 5.14301,-4.30478 7.86123,-6.25023 l -11.65459,-16.36363 c 7.66131,-5.43452 15.97716,-9.9409 24.75313,-13.32472 l 7.206062,18.59786 c 3.486761,-1.35909 7.04702,-2.48693 10.658185,-3.36095 m 6.189598,-1.21836 c 3.220276,-0.50915 6.470008,-0.81198 9.733814,-0.89313 l -0.719557,-20.11393 c 1.14407,-0.0508 2.291379,-0.0824 3.441598,-0.0944 8.498796,0.0886 16.838716,1.24612 24.886892,3.33975 l -5.006769,19.28925 c 3.599249,0.93167 7.145012,2.11459 10.614697,3.52618 m 5.814866,2.63454 c 2.969308,1.46312 5.86986,3.09325 8.686276,4.87502 l 10.678253,-16.9832 c 7.9623604,4.98091 15.3165276,10.93631 21.8680579,17.67174 l -14.4130251,14.0245 c 2.6616546,2.73422 5.16825001,5.61812 7.4971936,8.62911 m 3.7691846,5.25009 c 1.8647894,2.7685 3.582221,5.62541 5.136916,8.55534 l 17.711592,-9.33121 c 4.357934,8.32081 7.681094,17.18953 9.775037,26.41171 l -19.446153,4.38661 c 0.810727,3.62344 1.364821,7.29498 1.639689,10.99204"
       id="path875"
       inkscape:path-effect="#path-effect877"
       inkscape:original-d="M 31.75,469.50833 A 99.48333,99.48333 0 0 1 -67.73333,568.99166 99.48333,99.48333 0 0 1 -167.21666,469.50833 99.48333,99.48333 0 0 1 -67.73333,370.025 99.48333,99.48333 0 0 1 31.75,469.50833 Z"
       inkscape:export-filename="D:\Documents\Unity\arcadegame1\arcadegame1\Assets\sprites\bg1.png"
       inkscape:export-xdpi="96"
       inkscape:export-ydpi="96" />
    <path
       style="fill:none;stroke:#000000;stroke-width:10;stroke-linecap:butt;stroke-linejoin:miter;stroke-miterlimit:4;stroke-dasharray:none;stroke-opacity:1"
       d="m 351.88781,1179.6419 10.86216,0 v -25.2404 l 25.30465,0 v 25.2158 h 12.34785"
       id="path879"
       inkscape:connector-curvature="0"
       sodipodi:nodetypes="cccccc" />
    <path
       inkscape:export-ydpi="96"
       inkscape:export-xdpi="96"
       inkscape:export-filename="D:\Documents\Unity\arcadegame1\arcadegame1\Assets\sprites\bg3.png"
       inkscape:original-d="M 31.75,469.50833 A 99.48333,99.48333 0 0 1 -67.73333,568.99166 99.48333,99.48333 0 0 1 -167.21666,469.50833 99.48333,99.48333 0 0 1 -67.73333,370.025 99.48333,99.48333 0 0 1 31.75,469.50833 Z"
       inkscape:path-effect="#path-effect899"
       id="path897"
       d="M 48.213805,469.50833 H 15.286195 M 37.16159,516.39794 7.7363626,502.33893 m 1.0903471,52.16773 -22.0840717,-24.27925 m -18.675321,48.74892 -10.904142,-30.66071 m -37.176438,36.26272 3.874638,-32.4119 m -49.024475,16.58357 16.97395,-27.94983 m -52.12836,-3.94663 26.2345,-19.64898 m -46.53532,-23.45746 31.65627,-7.50935 m -31.65626,-40.96822 31.65626,7.50936 m -11.35545,-50.61579 26.2345,19.64897 m 8.91991,-51.54543 16.97395,27.94982 m 28.17589,-43.77815 3.874637,32.4119 m 44.205943,-26.80988 -10.904143,30.6607 M 8.8267119,384.51 -13.25736,408.78925 m 50.418951,13.82947 -29.4252274,14.05901"
       style="opacity:1;fill:none;fill-opacity:1;stroke:#ff4aff;stroke-width:13.22916667;stroke-linecap:square;stroke-linejoin:miter;stroke-miterlimit:4;stroke-dasharray:none;stroke-opacity:1"
       inkscape:connector-curvature="0"
       transform="translate(1253.0667,63.5)" />
    <path
       inkscape:export-ydpi="96"
       inkscape:export-xdpi="96"
       inkscape:export-filename="D:\Documents\Unity\arcadegame1\arcadegame1\Assets\sprites\bg3.png"
       transform="translate(1253.0667,382.29909)"
       inkscape:connector-curvature="0"
       style="opacity:1;fill:none;fill-opacity:1;stroke:#ff4aff;stroke-width:13.22916667;stroke-linecap:square;stroke-linejoin:miter;stroke-miterlimit:4;stroke-dasharray:none;stroke-opacity:1"
       d="M 48.213805,469.50833 H 15.286195 M 37.16159,516.39794 7.7363626,502.33893 m 1.0903471,52.16773 -22.0840717,-24.27925 m -18.675321,48.74892 -10.904142,-30.66071 m -37.176438,36.26272 3.874638,-32.4119 m -49.024475,16.58357 16.97395,-27.94983 m -52.12836,-3.94663 26.2345,-19.64898 m -46.53532,-23.45746 31.65627,-7.50935 m -31.65626,-40.96822 31.65626,7.50936 m -11.35545,-50.61579 26.2345,19.64897 m 8.91991,-51.54543 16.97395,27.94982 m 28.17589,-43.77815 3.874637,32.4119 m 44.205943,-26.80988 -10.904143,30.6607 M 8.8267119,384.51 -13.25736,408.78925 m 50.418951,13.82947 -29.4252274,14.05901"
       id="path901"
       inkscape:path-effect="#path-effect903"
       inkscape:original-d="M 31.75,469.50833 A 99.48333,99.48333 0 0 1 -67.73333,568.99166 99.48333,99.48333 0 0 1 -167.21666,469.50833 99.48333,99.48333 0 0 1 -67.73333,370.025 99.48333,99.48333 0 0 1 31.75,469.50833 Z" />
    <path
       inkscape:export-ydpi="96"
       inkscape:export-xdpi="96"
       inkscape:export-filename="D:\Documents\Unity\arcadegame1\arcadegame1\Assets\sprites\bg3.png"
       inkscape:original-d="M 31.75,469.50833 A 99.48333,99.48333 0 0 1 -67.73333,568.99166 99.48333,99.48333 0 0 1 -167.21666,469.50833 99.48333,99.48333 0 0 1 -67.73333,370.025 99.48333,99.48333 0 0 1 31.75,469.50833 Z"
       inkscape:path-effect="#path-effect907"
       id="path905"
       d="M 48.213805,469.50833 H 15.286195 M 37.16159,516.39794 7.7363626,502.33893 m 1.0903471,52.16773 -22.0840717,-24.27925 m -18.675321,48.74892 -10.904142,-30.66071 m -37.176438,36.26272 3.874638,-32.4119 m -49.024475,16.58357 16.97395,-27.94983 m -52.12836,-3.94663 26.2345,-19.64898 m -46.53532,-23.45746 31.65627,-7.50935 m -31.65626,-40.96822 31.65626,7.50936 m -11.35545,-50.61579 26.2345,19.64897 m 8.91991,-51.54543 16.97395,27.94982 m 28.17589,-43.77815 3.874637,32.4119 m 44.205943,-26.80988 -10.904143,30.6607 M 8.8267119,384.51 -13.25736,408.78925 m 50.418951,13.82947 -29.4252274,14.05901"
       style="opacity:1;fill:none;fill-opacity:1;stroke:#ff4aff;stroke-width:8.44680734;stroke-linecap:square;stroke-linejoin:miter;stroke-miterlimit:4;stroke-dasharray:none;stroke-opacity:1"
       inkscape:connector-curvature="0"
       transform="matrix(1.5661736,0,0,1.5661736,1291.4155,490.65325)" />
    <path
       sodipodi:nodetypes="cc"
       inkscape:connector-curvature="0"
       id="path909"
       d="m 1566.4687,460.88966 v 32.92761"
       style="fill:none;stroke:#000000;stroke-width:10;stroke-linecap:butt;stroke-linejoin:miter;stroke-miterlimit:4;stroke-dasharray:none;stroke-opacity:1" />
    <path
       style="fill:none;stroke:#000000;stroke-width:10;stroke-linecap:butt;stroke-linejoin:miter;stroke-miterlimit:4;stroke-dasharray:none;stroke-opacity:1"
       d="m 1566.4687,460.88966 v 32.92761"
       id="path911"
       inkscape:connector-curvature="0"
       sodipodi:nodetypes="cc" />
    <path
       transform="translate(1964.2667,63.5)"
       inkscape:connector-curvature="0"
       style="opacity:1;fill:none;fill-opacity:1;stroke:#42ffff;stroke-width:13.22916698;stroke-linecap:square;stroke-linejoin:miter;stroke-miterlimit:4;stroke-dasharray:none;stroke-opacity:1"
       d="m 62.278054,491.50174 c -12.532766,7.0213 -25.449375,11.32735 -38.18301,13.29189 2.72127,-6.16547 4.810155,-12.6066 6.164825,-19.23213 0.856117,-5.29073 1.243007,-10.65891 1.115941,-16.05317 -10.848801,5.39426 -22.005746,8.68503 -33.1341066,10.11294 m 10.5400421,96.07106 c -13.7283603,-3.63857 -26.2784595,-9.16585 -37.0834805,-16.20813 6.148009,-2.77919 12.044842,-6.18839 17.588669,-10.13637 4.2608444,-3.30744 8.2727906,-6.93392 11.9911109,-10.82809 -11.4555319,-3.84305 -22.0630789,-9.09539 -31.4859109,-15.51639 m -59.518943,76.51635 c -7.021291,-12.53277 -11.327341,-25.44938 -13.291871,-38.18302 6.165475,2.72128 12.606604,4.81017 19.232128,6.16484 5.290731,0.85612 10.658909,1.24301 16.053169,1.11595 -5.394254,-10.8488 -8.685013,-22.00575 -10.112916,-33.13411 m -96.071071,10.53999 c 3.63857,-13.72836 9.16587,-26.27846 16.20815,-37.08347 2.77918,6.14801 6.18838,12.04484 10.13635,17.58867 3.30744,4.26085 6.93393,8.2728 10.82809,11.99112 3.84306,-11.45553 9.0954,-22.06308 15.5164,-31.48591 m -76.51631,-59.51898 c 12.53278,-7.02128 25.44939,-11.32732 38.18303,-13.29184 -2.72128,6.16547 -4.81017,12.60659 -6.16485,19.23212 -0.85612,5.29073 -1.24302,10.6589 -1.11596,16.05316 10.84881,-5.39424 22.00576,-8.685 33.13412,-10.11289 m -10.53994,-96.07108 c 13.72835,3.63858 26.27845,9.16588 37.08346,16.20817 -6.14801,2.77917 -12.04485,6.18838 -17.58868,10.13634 -4.26085,3.30744 -8.2728,6.93392 -11.99112,10.82808 11.45553,3.84306 22.06307,9.09542 31.4859,15.51642 m 59.519019,-76.51627 c 7.021275,12.53277 11.327309,25.44939 13.291824,38.18303 -6.165469,-2.72128 -12.606595,-4.81018 -19.232118,-6.16486 -5.290729,-0.85613 -10.658906,-1.24303 -16.053166,-1.11597 5.394239,10.84881 8.684986,22.00576 10.112876,33.13412 m 96.071088,-10.53989 c -3.638589,13.72836 -9.165893,26.27845 -16.20819,37.08346 -2.779171,-6.14802 -6.18837,-12.04485 -10.136334,-17.58869 -3.3074352,-4.26085 -6.9339146,-8.2728 -10.8280747,-11.99112 -3.8430669,11.45552 -9.0954238,22.06306 -15.5164333,31.48588"
       id="path942"
       inkscape:path-effect="#path-effect944"
       inkscape:original-d="M 31.75,469.50833 A 99.48333,99.48333 0 0 1 -67.73333,568.99166 99.48333,99.48333 0 0 1 -167.21666,469.50833 99.48333,99.48333 0 0 1 -67.73333,370.025 99.48333,99.48333 0 0 1 31.75,469.50833 Z"
       inkscape:export-filename="D:\Documents\Unity\arcadegame1\arcadegame1\Assets\sprites\bg5.png"
       inkscape:export-xdpi="96"
       inkscape:export-ydpi="96" />
    <path
       inkscape:original-d="M 31.75,469.50833 A 99.48333,99.48333 0 0 1 -67.73333,568.99166 99.48333,99.48333 0 0 1 -167.21666,469.50833 99.48333,99.48333 0 0 1 -67.73333,370.025 99.48333,99.48333 0 0 1 31.75,469.50833 Z"
       inkscape:path-effect="#path-effect948"
       id="path946"
       d="m 62.175769,492.02698 c -12.600949,7.18333 -25.609404,11.58131 -38.427953,13.58374 2.842289,-6.29379 5.025203,-12.88061 6.439378,-19.66218 0.903473,-5.41534 1.315739,-10.91379 1.188616,-16.44021 -10.848744,5.52642 -22.0260226,8.89656 -33.177171,10.36177 m 18.989135,89.14382 c -14.1145071,-2.44975 -27.20576,-6.94037 -38.676344,-13.08206 6.078582,-3.32174 11.8531491,-7.26744 17.214337,-11.73881 4.1027562,-3.71187 7.9201045,-7.73202 11.4038636,-12.00531 -11.8029742,-2.82639 -22.8764816,-7.18202 -32.8658576,-12.81555 m -41.013935,82.51656 c -0.330543,-0.3641 -0.658273,-0.72968 -0.983168,-1.09674 -9.27325,-10.97312 -15.785117,-22.64163 -19.887123,-34.46676 6.462277,1.61587 13.12086,2.53333 19.887123,2.65373 0.237061,0.004 0.47406,0.007 0.710992,0.01 5.544926,-0.1705 11.010242,-0.87446 16.347769,-2.05672 -7.445671,-9.46267 -13.103874,-19.82755 -16.619944,-30.8433 m -83.954627,34.11786 c 0.16585,-14.28578 2.55868,-27.906 6.7887,-40.26324 4.27362,5.48595 9.08846,10.57904 14.34625,15.16991 4.31004,3.46767 8.87207,6.59848 13.63094,9.34425 0.89911,-12.06238 3.48423,-23.65978 7.504,-34.43756 m -88.28131,-26.12239 c 7.57279,-9.80744 16.24242,-18.0639 25.76083,-24.38919 1.55726,-1.02842 3.12643,-2.00163 4.70588,-2.92072 -0.0501,0.97117 -0.0839,1.94483 -0.10095,2.92072 -0.10952,6.00222 0.41605,11.96538 1.51417,17.81988 1.22815,5.34911 2.93345,10.56717 5.06077,15.60598 7.96453,-9.03295 16.98802,-16.54293 26.81915,-22.17528 m -47.92216,-76.37103 c 14.09061,-2.20096 27.87335,-1.98883 40.75081,0.24662 -4.74902,5.08625 -9.01635,10.63099 -12.69262,16.53596 -2.72275,4.79334 -5.0572,9.78237 -6.95516,14.91196 11.9898,-1.13544 23.77914,-0.42813 35.01334,1.8706 m 11.15804,-91.30744 c 12.67262,6.76886 23.606605,15.20632 32.204543,24.92263 -6.830975,1.00026 -13.535615,2.78993 -20.004553,5.27074 -5.04348,2.17092 -9.90445,4.76271 -14.53474,7.72022 10.28827,6.3591 19.318061,13.93392 26.734723,22.47313 m 66.686096,-61.06761 c 4.650689,13.529 6.70216,27.10782 6.54419,40.13905 -5.75964,-3.8678 -11.895042,-7.16507 -18.307934,-9.78244 -5.161771,-1.86803 -10.462949,-3.29629 -15.848388,-4.23662 3.27729,11.58525 4.555061,23.23455 4.084651,34.59321 m 91.594948,-3.87913 c -4.650762,13.57679 -11.156258,25.77263 -19.126711,35.99011 -2.230624,-6.52692 -5.167928,-12.83867 -8.713642,-18.82588 -2.998827,-4.62803 -6.36223,-9.0221 -10.0350619,-13.13404 -4.6463863,11.21161 -10.6652566,21.42924 -17.8052731,30.29825"
       style="opacity:1;fill:none;fill-opacity:1;stroke:#42ffff;stroke-width:13.22916698;stroke-linecap:square;stroke-linejoin:miter;stroke-miterlimit:4;stroke-dasharray:none;stroke-opacity:1"
       inkscape:connector-curvature="0"
       transform="translate(1969.2128,454.81689)"
       inkscape:export-filename="D:\Documents\Unity\arcadegame1\arcadegame1\Assets\sprites\bg5.png"
       inkscape:export-xdpi="96"
       inkscape:export-ydpi="96" />
    <path
       transform="matrix(1.5661736,0,0,1.5661736,2002.6155,682.23205)"
       inkscape:connector-curvature="0"
       style="opacity:1;fill:none;fill-opacity:1;stroke:#42ffff;stroke-width:8.44680691;stroke-linecap:square;stroke-linejoin:miter;stroke-miterlimit:4;stroke-dasharray:none;stroke-opacity:1"
       d="m 62.322778,491.26852 c -12.503005,6.94925 -25.379545,11.21427 -38.076083,13.16172 2.668348,-6.10809 4.716174,-12.48435 6.044876,-19.04054 0.835449,-5.23536 1.211279,-10.54573 1.084239,-15.88137 -10.848827,5.33564 -21.9969483,8.59117 -33.1154273,10.00256 m 31.1645583,77.5771 c -14.067835,-0.95275 -27.3883508,-3.99228 -39.4080111,-8.75192 5.423404,-3.95152 10.4976399,-8.42326 15.1241052,-13.32697 3.5013653,-4.03585 6.6998029,-8.3187 9.5520629,-12.79881 -11.9188803,-1.5931 -23.3071774,-4.7651 -33.835954,-9.28006 m -13.266103,83.30973 c -11.760196,-7.91432 -21.65222,-17.31798 -29.122534,-27.84428 6.685399,-0.35597 13.292984,-1.48421 19.724152,-3.29645 5.03257,-1.64755 9.918905,-3.71409 14.615754,-6.14988 -9.474817,-7.33122 -17.589173,-15.74014 -24.01413,-24.99083 m -56.569133,60.76787 c -4.88558,-13.25725 -7.23629,-26.60783 -7.4188,-39.4982 5.70385,3.49709 11.73889,6.4415 18.01686,8.73462 5.046934,1.60831 10.211873,2.79617 15.445076,3.52034 -3.491826,-11.44579 -5.028851,-22.9834 -4.847021,-34.28391 m -81.503575,20.24038 c 2.78132,-13.85396 7.50005,-26.6804 13.78953,-37.92576 3.18753,5.87888 6.9583,11.47643 11.22404,16.69404 3.55022,3.99055 7.39044,7.71734 11.47092,11.13713 3.13925,-11.63731 7.73211,-22.53657 13.54263,-32.36883 m -80.58737,-24.6797 c 5.78092,-6.43177 12.05722,-12.0693 18.74646,-16.78817 4.38998,-3.04217 8.87176,-5.66028 13.41199,-7.87639 -0.28651,2.60539 -0.45684,5.23263 -0.50503,7.87639 -0.0769,4.10088 0.14217,8.18377 0.63743,12.22653 0.86472,5.23808 2.19143,10.36909 3.93039,15.34979 8.57972,-8.31472 18.11184,-15.0615 28.36044,-19.91142 m -51.66651,-64.89847 c 13.76949,-2.88068 27.35207,-3.37586 40.19423,-1.8522 -4.23251,5.20968 -7.98018,10.81355 -11.14441,16.72337 -2.31025,4.7842 -4.23923,9.72941 -5.74368,14.78588 11.82312,-1.72243 23.53059,-1.61536 34.79349,0.0853 m -9.19385,-83.76783 c 13.39806,4.5511 25.48839,10.89026 35.71742,18.6508 -6.24103,2.3336 -12.26858,5.31346 -17.98403,8.8513 -4.40881,2.9903 -8.59304,6.31359 -12.50944,9.92013 11.13611,4.611 21.3267,10.5503 30.24282,17.58196 m 36.203874,-76.0608 c 9.071665,11.50674 15.309736,23.66722 19.080882,35.92791 -6.422387,-1.7463 -13.049942,-2.80425 -19.794401,-3.07523 -0.622541,9.7e-4 -1.245515,0.009 -1.868845,0.0232 -4.73294,0.10998 -9.408943,0.60972 -13.998169,1.46492 6.127929,8.61872 10.869634,17.88323 13.998169,27.63077 0.412029,1.24183 0.797014,2.48658 1.155327,3.73374 M 5.4105135,360.93176 c 0.934564,14.03968 -0.3670148,27.61224 -3.538065,40.16416 -4.6255581,-4.87462 -9.7083307,-9.33224 -15.1600545,-13.27424 -4.447174,-2.94128 -9.09835,-5.54045 -13.903786,-7.75427 0.02745,11.98081 -1.649309,23.63851 -4.794323,34.64416 m 84.369871,1.97504 c -6.262113,12.70014 -14.162916,23.81232 -23.335739,32.78299 -1.389746,-6.50987 -3.488754,-12.8741 -6.20876,-18.99407 -2.356066,-4.75615 -5.088126,-9.32689 -8.146438,-13.66898 -6.0083202,10.41527 -13.2196499,19.67755 -21.3980429,27.45789"
       id="path950"
       inkscape:path-effect="#path-effect952"
       inkscape:original-d="M 31.75,469.50833 A 99.48333,99.48333 0 0 1 -67.73333,568.99166 99.48333,99.48333 0 0 1 -167.21666,469.50833 99.48333,99.48333 0 0 1 -67.73333,370.025 99.48333,99.48333 0 0 1 31.75,469.50833 Z"
       inkscape:export-filename="D:\Documents\Unity\arcadegame1\arcadegame1\Assets\sprites\bg5.png"
       inkscape:export-xdpi="96"
       inkscape:export-ydpi="96" />
    <path
       sodipodi:nodetypes="ccccc"
       inkscape:connector-curvature="0"
       id="path956"
       d="m 2393.027,460.36049 19.8314,16.6509 -19.8314,-0.18709 -15.7154,0.18709 15.7154,16.27671"
       style="fill:none;stroke:#000000;stroke-width:10;stroke-linecap:butt;stroke-linejoin:miter;stroke-miterlimit:4;stroke-dasharray:none;stroke-opacity:1" />
    <path
       inkscape:export-ydpi="96"
       inkscape:export-xdpi="96"
       inkscape:export-filename="D:\Documents\Unity\arcadegame1\arcadegame1\Assets\sprites\bg5.png"
       inkscape:original-d="M 31.75,469.50833 A 99.48333,99.48333 0 0 1 -67.73333,568.99166 99.48333,99.48333 0 0 1 -167.21666,469.50833 99.48333,99.48333 0 0 1 -67.73333,370.025 99.48333,99.48333 0 0 1 31.75,469.50833 Z"
       inkscape:path-effect="#path-effect858"
       id="path856"
       d="M 47.91046,531.58426 C 48.460385,507.61515 42.424538,485.6046 31.18872,469.50833 20.348092,485.63606 5.5287544,495.16871 -9.384969,499.40562 m -33.539654,99.72965 c 18.988128,-15.42251 30.480097,-34.51806 35.8617087,-53.33093 -19.2990667,1.78578 -37.0388567,-2.22522 -49.3350467,-10.73367 m -97.130139,33.43289 c 23.20896,5.40925 45.86726,4.00514 64.019187,-2.82654 -12.812377,-14.31455 -19.229247,-31.22331 -20.549947,-46.84197 m -90.0133,-54.78463 c 0.78739,1.85168 1.61545,3.6717 2.48342,5.45791 10.83259,20.14631 25.68042,33.87093 41.47766,42.24791 2.06267,-17.55441 8.82959,-32.63467 19.2996,-42.24791 0.85578,-0.87278 1.73363,-1.70536 2.63132,-2.49849 m -11.3617,-102.95901 c -10.10208,21.53113 -13.16319,43.91951 -10.56914,63.20942 16.88228,-9.31693 34.97426,-12.43793 50.39162,-10.66233 m 73.03422,-74.09682 c -12.875475,2.42021 -24.76666,6.69943 -35.04817,12.61857 -8.732876,5.28349 -15.946589,11.48454 -21.775394,18.21992 8.292597,2.96379 15.675764,7.06169 21.775394,12.16858 7.207255,5.72012 12.596013,12.49123 16.372715,19.69616 M 52.583888,416.6777 C 33.648246,402.04932 12.447462,394.6895 -7.0627616,393.21245 c 5.6413835,18.54377 5.286415,36.91276 0.234421,51.22263"
       style="opacity:1;fill:none;fill-opacity:1;stroke:#fdffff;stroke-width:13.22916698;stroke-linecap:square;stroke-linejoin:miter;stroke-miterlimit:4;stroke-dasharray:none;stroke-opacity:1"
       inkscape:connector-curvature="0"
       transform="translate(2892.2265,63.5)" />
    <path
       inkscape:export-ydpi="96"
       inkscape:export-xdpi="96"
       inkscape:export-filename="D:\Documents\Unity\arcadegame1\arcadegame1\Assets\sprites\bg5.png"
       transform="translate(2897.1726,454.81689)"
       inkscape:connector-curvature="0"
       style="opacity:1;fill:none;fill-opacity:1;stroke:#fdffff;stroke-width:13.22916698;stroke-linecap:square;stroke-linejoin:miter;stroke-miterlimit:4;stroke-dasharray:none;stroke-opacity:1"
       d="M 48.302329,530.87216 C 48.584465,507.13279 42.424404,485.39851 31.18872,469.50833 20.347957,485.42956 5.6374234,494.84574 -9.1735164,499.03925 m -18.6251676,95.91883 c 16.447453,-17.30305 25.6402126,-37.43946 28.9448529,-56.57023 -18.8889169,3.59033 -36.8901219,1.39138 -50.2342489,-5.31445 m -80.00911,52.47057 c 23.73937,0.28214 45.473652,-5.87791 61.363834,-17.11359 -15.92123,-10.84077 -25.337403,-25.5513 -29.530914,-40.36225 m -95.91882,-18.62519 c 17.30304,16.44746 37.43946,25.64023 56.57022,28.94487 -3.59033,-18.88892 -1.39137,-36.89012 5.31447,-50.23425 m -52.47056,-80.00912 c -0.28214,23.73937 5.87791,45.47365 17.11358,61.36384 10.84077,-15.92123 25.55131,-25.3374 40.36225,-29.53091 m 18.62522,-95.91881 c -16.44746,17.30303 -25.64023,37.43945 -28.94488,56.57022 18.88892,-3.59033 36.890121,-1.39137 50.234243,5.31447 m 80.0091362,-52.47053 c -23.7393652,-0.28215 -45.4736522,5.87789 -61.3638402,17.11356 15.921222,10.84078 25.337387,25.55132 29.530892,40.36226 m 95.918813,18.62524 C 40.413421,413.12632 20.27701,403.93354 1.1462434,400.62889 c 3.59032,18.88892 1.3913582,36.89012 -5.314491,50.23424"
       id="path860"
       inkscape:path-effect="#path-effect862"
       inkscape:original-d="M 31.75,469.50833 A 99.48333,99.48333 0 0 1 -67.73333,568.99166 99.48333,99.48333 0 0 1 -167.21666,469.50833 99.48333,99.48333 0 0 1 -67.73333,370.025 99.48333,99.48333 0 0 1 31.75,469.50833 Z" />
    <path
       inkscape:export-ydpi="96"
       inkscape:export-xdpi="96"
       inkscape:export-filename="D:\Documents\Unity\arcadegame1\arcadegame1\Assets\sprites\bg5.png"
       inkscape:original-d="M 31.75,469.50833 A 99.48333,99.48333 0 0 1 -67.73333,568.99166 99.48333,99.48333 0 0 1 -167.21666,469.50833 99.48333,99.48333 0 0 1 -67.73333,370.025 99.48333,99.48333 0 0 1 31.75,469.50833 Z"
       inkscape:path-effect="#path-effect866"
       id="path864"
       d="M 47.707589,531.94902 C 48.396072,507.86284 42.424607,485.71045 31.18872,469.50833 20.348161,485.74212 5.4723549,495.33454 -9.4945065,499.59346 m -8.7712605,91.71953 c 15.3132057,-18.60026 23.2658819,-39.68782 25.2535543,-59.24622 -18.7411493,5.30239 -37.1696943,4.57619 -51.3414423,-0.87073 m -65.080195,63.14844 c 15.524419,-2.08043 29.784043,-6.8597 41.70052,-13.96312 6.555289,-4.05971 12.208737,-8.66314 17.022715,-13.63079 -6.317311,-2.62338 -12.049967,-5.92617 -17.022715,-9.85027 -9.067053,-6.86057 -15.49349,-15.27482 -19.631582,-24.18039 m -91.574658,6.30513 c 20.80766,11.81139 42.99735,16.43739 62.55262,15.27353 -8.20188,-17.59156 -10.22197,-35.95746 -7.36815,-51.15352 m -74.6676,-52.94021 c 2.10165,6.81634 4.73481,13.28357 7.86535,19.30349 8.27902,14.72149 18.89419,25.67435 30.40943,33.35757 2.878,-13.37972 8.55053,-24.96625 16.55269,-33.35757 3.03456,-3.45449 6.35956,-6.39691 9.87718,-8.8597 m -21.44482,-88.68557 c -8.20668,22.45778 -9.40312,45.19233 -4.98484,64.18718 15.8916,-10.99026 33.64452,-15.64554 49.31454,-15.27371 m 38.734637,-83.77639 c -22.008293,12.5135 -36.305767,29.72488 -44.287937,47.61766 19.389278,0.83 36.292006,7.38219 46.763994,18.34872 M 13.439828,366.6537 c -23.550613,-4.49909 -46.272731,-2.16308 -64.149893,5.6125 13.667534,13.64131 20.8469,30.23088 22.84596,45.82451 m 89.12005,23.78485 C 45.420466,423.16331 25.992382,411.98674 6.988155,406.95032 c 2.2917003,19.34041 -1.2919881,37.28122 -9.4432054,49.87824"
       style="opacity:1;fill:none;fill-opacity:1;stroke:#fdffff;stroke-width:8.44680691;stroke-linecap:square;stroke-linejoin:miter;stroke-miterlimit:4;stroke-dasharray:none;stroke-opacity:1"
       inkscape:connector-curvature="0"
       transform="matrix(1.5661736,0,0,1.5661736,2930.5753,682.23205)" />
    <path
       style="fill:none;stroke:#000000;stroke-width:10;stroke-linecap:butt;stroke-linejoin:miter;stroke-miterlimit:4;stroke-dasharray:none;stroke-opacity:1"
       d="m 3349.5178,460.36049 -47.8946,16.83799 47.9882,16.27671"
       id="path868"
       inkscape:connector-curvature="0"
       sodipodi:nodetypes="ccc" />
    <path
       inkscape:export-ydpi="96"
       inkscape:export-xdpi="96"
       inkscape:export-filename="D:\Documents\Unity\arcadegame1\arcadegame1\Assets\sprites\bgIcon.png"
       inkscape:original-d="M 31.75,469.50833 A 99.48333,99.48333 0 0 1 -67.73333,568.99166 99.48333,99.48333 0 0 1 -167.21666,469.50833 99.48333,99.48333 0 0 1 -67.73333,370.025 99.48333,99.48333 0 0 1 31.75,469.50833 Z"
       inkscape:path-effect="#path-effect868"
       id="path866"
       d="m 18.569096,469.50833 c 0.09575,5.33013 -0.448404,10.64428 -1.557037,15.86702 l 25.471561,5.48302 c -3.270786,15.03748 -9.681265,29.15305 -18.465909,41.58118 L 2.6536155,517.26015 c -2.92183767,4.08525 -6.1781878,7.95811 -9.7116445,11.56116 m -0.6917714,0.67061 c -3.9075516,3.90755 -8.1430446,7.48716 -12.6310596,10.6634 l 15.0808217,21.4541 c -12.4729807,8.72121 -26.6231997,15.05805 -41.6851277,18.24499 l -5.329618,-25.48703 c -4.774533,0.98269 -9.623515,1.49293 -14.48954,1.47329 m -0.929092,-0.0299 c -5.33013,0.0957 -10.644277,-0.44842 -15.86702,-1.55706 l -5.483044,25.47156 c -15.03748,-3.27081 -29.15304,-9.6813 -41.58116,-18.46595 l 15.17942,-21.36409 c -4.08525,-2.92184 -7.9581,-6.17819 -11.56115,-9.71165 m -0.67062,-0.69177 c -3.90754,-3.90756 -7.48714,-8.14305 -10.66338,-12.63107 l -21.45412,15.0808 c -8.72119,-12.47299 -15.05802,-26.62322 -18.24494,-41.68515 l 25.48703,-5.32959 c -0.98269,-4.77453 -1.49291,-9.62351 -1.47327,-14.48954 m 0.0299,-0.92909 c -0.0957,-5.33013 0.44843,-10.64428 1.55708,-15.86702 l -25.47155,-5.48307 c 3.27082,-15.03748 9.68132,-29.15303 18.46599,-41.58114 l 21.36407,15.17944 c 2.92184,-4.08525 6.1782,-7.9581 9.71166,-11.56115 m 0.69178,-0.67061 c 3.90755,-3.90754 8.14305,-7.48714 12.63107,-10.66337 l -15.08078,-21.45413 c 12.473,-8.72119 26.62323,-15.058 41.685169,-18.24491 l 5.329563,25.48704 c 4.774535,-0.98268 9.623518,-1.4929 14.489543,-1.47325 m 0.929092,0.0299 c 5.33013,-0.0957 10.644275,0.44844 15.867017,1.55709 l 5.483099,-25.47154 c 15.03747,3.27084 29.153021,9.68136 41.5811231,18.46603 l -15.1794611,21.36406 c 4.085244,2.92185 7.958091,6.17821 11.561136,9.71168 m 0.6706098,0.69177 c 3.9075373,3.90756 7.48713137,8.14306 10.6633627,12.63109 L 24.367956,407.07532 c 8.721173,12.473 15.057972,26.62324 18.244865,41.68518 l -25.487046,5.32954 c 0.982675,4.77453 1.492889,9.62352 1.473237,14.48954"
       style="opacity:1;fill:none;fill-opacity:1;stroke:#ffffff;stroke-width:20;stroke-linecap:square;stroke-linejoin:miter;stroke-miterlimit:4;stroke-dasharray:none;stroke-opacity:1"
       inkscape:connector-curvature="0"
       transform="translate(-733.38758,547.79562)" />
  </g>
</svg>
