<?xml version="1.0" encoding="UTF-8" standalone="no"?>
<!-- Created with Inkscape (http://www.inkscape.org/) -->

<svg
   xmlns:dc="http://purl.org/dc/elements/1.1/"
   xmlns:cc="http://creativecommons.org/ns#"
   xmlns:rdf="http://www.w3.org/1999/02/22-rdf-syntax-ns#"
   xmlns:svg="http://www.w3.org/2000/svg"
   xmlns="http://www.w3.org/2000/svg"
   xmlns:sodipodi="http://sodipodi.sourceforge.net/DTD/sodipodi-0.dtd"
   xmlns:inkscape="http://www.inkscape.org/namespaces/inkscape"
   width="210mm"
   height="297mm"
   viewBox="0 0 210 297"
   version="1.1"
   id="svg1885"
   inkscape:version="0.92.4 (5da689c313, 2019-01-14)"
   sodipodi:docname="boards.svg.2020_11_13_19_41_53.0.svg">
  <defs
     id="defs1879">
    <inkscape:path-effect
       effect="skeletal"
       id="path-effect1079"
       is_visible="true"
       pattern="#path1040"
       copytype="repeated_stretched"
       prop_scale="1"
       scale_y_rel="false"
       spacing="0"
       normal_offset="0"
       tang_offset="0"
       prop_units="false"
       vertical_pattern="false"
       fuse_tolerance="0" />
    <inkscape:path-effect
       fuse_tolerance="0"
       vertical_pattern="false"
       prop_units="false"
       tang_offset="0"
       normal_offset="0"
       spacing="0"
       scale_y_rel="false"
       prop_scale="1"
       copytype="repeated_stretched"
       pattern="#path1040"
       is_visible="true"
       id="path-effect1034"
       effect="skeletal" />
    <inkscape:path-effect
       fuse_tolerance="0"
       vertical_pattern="false"
       prop_units="false"
       tang_offset="0"
       normal_offset="0"
       spacing="0"
       scale_y_rel="false"
       prop_scale="0.8"
       copytype="single_stretched"
       pattern="#path1008"
       is_visible="true"
       id="path-effect1026"
       effect="skeletal" />
    <inkscape:path-effect
       effect="skeletal"
       id="path-effect975"
       is_visible="true"
       pattern="#path1008"
       copytype="single_stretched"
       prop_scale="0.8"
       scale_y_rel="false"
       spacing="0"
       normal_offset="0"
       tang_offset="0"
       prop_units="false"
       vertical_pattern="false"
       fuse_tolerance="0" />
    <inkscape:path-effect
       fuse_tolerance="0"
       vertical_pattern="false"
       prop_units="false"
       tang_offset="0"
       normal_offset="0"
       spacing="0"
       scale_y_rel="false"
       prop_scale="0.29"
       copytype="single_stretched"
       pattern="#path981"
       is_visible="true"
       id="path-effect915"
       effect="skeletal" />
    <inkscape:path-effect
       effect="skeletal"
       id="path-effect990"
       is_visible="true"
       pattern="#path981"
       copytype="single_stretched"
       prop_scale="0.19461789"
       scale_y_rel="false"
       spacing="0"
       normal_offset="0"
       tang_offset="0"
       prop_units="false"
       vertical_pattern="false"
       fuse_tolerance="0" />
    <inkscape:path-effect
       effect="skeletal"
       id="path-effect965"
       is_visible="true"
       pattern="M 811.90964,671.24318 402.5363,710.21765 c -141.23322,2.02965 -134.75864,-95.9401 0,-90.30497 z"
       copytype="single_stretched"
       prop_scale="1"
       scale_y_rel="false"
       spacing="0"
       normal_offset="0"
       tang_offset="0"
       prop_units="false"
       vertical_pattern="false"
       fuse_tolerance="0" />
    <inkscape:path-effect
       fuse_tolerance="0"
       vertical_pattern="false"
       prop_units="false"
       tang_offset="0"
       normal_offset="0"
       spacing="0"
       scale_y_rel="false"
       prop_scale="0.7"
       copytype="single_stretched"
       pattern="m 491.9325,625.74152 c 0,9.16764 -7.43185,16.59948 -16.59949,16.59948 -9.16764,0 -300.24629,-7.43184 -300.24629,-16.59948 0,-9.16764 291.07865,-16.59949 300.24629,-16.59949 9.16765,0 16.59949,7.43184 16.59949,16.59949 z"
       is_visible="true"
       id="path-effect999"
       effect="skeletal" />
    <inkscape:path-effect
       effect="skeletal"
       id="path-effect933"
       is_visible="true"
       pattern="m 491.9325,625.74152 c 0,9.16764 -7.43185,16.59948 -16.59949,16.59948 -9.16764,0 -300.24629,-7.43184 -300.24629,-16.59948 0,-9.16764 291.07865,-16.59949 300.24629,-16.59949 9.16765,0 16.59949,7.43184 16.59949,16.59949 z"
       copytype="single_stretched"
       prop_scale="0.63833544"
       scale_y_rel="false"
       spacing="0"
       normal_offset="0"
       tang_offset="0"
       prop_units="false"
       vertical_pattern="false"
       fuse_tolerance="0" />
    <inkscape:path-effect
       fuse_tolerance="0"
       vertical_pattern="false"
       prop_units="false"
       tang_offset="0"
       normal_offset="0"
       spacing="2"
       scale_y_rel="false"
       prop_scale="0.76"
       copytype="repeated"
       pattern="#rect7625-0-8"
       is_visible="true"
       id="path-effect5835"
       effect="skeletal" />
    <inkscape:path-effect
       fuse_tolerance="0"
       vertical_pattern="false"
       prop_units="false"
       tang_offset="0"
       normal_offset="0"
       spacing="2"
       scale_y_rel="false"
       prop_scale="0.76"
       copytype="repeated"
       pattern="#rect7625-0-8-7"
       is_visible="true"
       id="path-effect5831"
       effect="skeletal" />
    <inkscape:path-effect
       fuse_tolerance="0"
       vertical_pattern="false"
       prop_units="false"
       tang_offset="0"
       normal_offset="0"
       spacing="2.4"
       scale_y_rel="false"
       prop_scale="0.8"
       copytype="repeated"
       pattern="#rect7625"
       is_visible="true"
       id="path-effect5825"
       effect="skeletal" />
    <inkscape:path-effect
       fuse_tolerance="0"
       vertical_pattern="false"
       prop_units="false"
       tang_offset="0"
       normal_offset="0"
       spacing="1.4"
       scale_y_rel="false"
       prop_scale="1.5"
       copytype="repeated"
       pattern="#path2669"
       is_visible="true"
       id="path-effect5821"
       effect="skeletal" />
    <inkscape:path-effect
       effect="taper_stroke"
       id="path-effect5811"
       is_visible="true"
       stroke_width="0.26"
       attach_start="0.5"
       end_offset="0.2"
       smoothing="0.5"
       jointype="miter"
       miter_limit="100" />
    <inkscape:path-effect
       effect="skeletal"
       id="path-effect5810"
       is_visible="true"
       pattern="#path5828"
       copytype="repeated_stretched"
       prop_scale="1.5"
       scale_y_rel="false"
       spacing="21.8"
       normal_offset="0"
       tang_offset="20"
       prop_units="false"
       vertical_pattern="false"
       fuse_tolerance="0" />
    <inkscape:path-effect
       fuse_tolerance="0"
       vertical_pattern="false"
       prop_units="false"
       tang_offset="0"
       normal_offset="0"
       spacing="1.4"
       scale_y_rel="false"
       prop_scale="1.5"
       copytype="repeated"
       pattern="#path2669"
       is_visible="true"
       id="path-effect5805"
       effect="skeletal" />
    <inkscape:path-effect
       fuse_tolerance="0"
       vertical_pattern="false"
       prop_units="false"
       tang_offset="0"
       normal_offset="0"
       spacing="1.3"
       scale_y_rel="false"
       prop_scale="1"
       copytype="repeated"
       pattern="#rect7625"
       is_visible="true"
       id="path-effect5991"
       effect="skeletal" />
    <inkscape:path-effect
       fuse_tolerance="0"
       vertical_pattern="false"
       prop_units="false"
       tang_offset="0"
       normal_offset="0"
       spacing="0.5"
       scale_y_rel="false"
       prop_scale="1.2"
       copytype="repeated"
       pattern="#path2669"
       is_visible="true"
       id="path-effect5983"
       effect="skeletal" />
    <inkscape:path-effect
       effect="skeletal"
       id="path-effect7627"
       is_visible="true"
       pattern="#rect7625"
       copytype="repeated"
       prop_scale="0.8"
       scale_y_rel="false"
       spacing="2.4"
       normal_offset="0"
       tang_offset="0"
       prop_units="false"
       vertical_pattern="false"
       fuse_tolerance="0" />
    <inkscape:path-effect
       effect="skeletal"
       id="path-effect2689"
       is_visible="true"
       pattern="#path2669"
       copytype="repeated"
       prop_scale="1.5"
       scale_y_rel="false"
       spacing="1.4"
       normal_offset="0"
       tang_offset="0"
       prop_units="false"
       vertical_pattern="false"
       fuse_tolerance="0" />
    <inkscape:path-effect
       effect="skeletal"
       id="path-effect7627-6"
       is_visible="true"
       pattern="#rect7625"
       copytype="repeated"
       prop_scale="0.8"
       scale_y_rel="false"
       spacing="2.4"
       normal_offset="0"
       tang_offset="0"
       prop_units="false"
       vertical_pattern="false"
       fuse_tolerance="0" />
    <inkscape:path-effect
       effect="skeletal"
       id="path-effect7627-6-6"
       is_visible="true"
       pattern="#rect7625-0-8"
       copytype="repeated"
       prop_scale="0.76"
       scale_y_rel="false"
       spacing="2"
       normal_offset="0"
       tang_offset="0"
       prop_units="false"
       vertical_pattern="false"
       fuse_tolerance="0" />
    <inkscape:path-effect
       effect="skeletal"
       id="path-effect7627-6-6-7"
       is_visible="true"
       pattern="#rect7625-0-8-7"
       copytype="repeated"
       prop_scale="0.76"
       scale_y_rel="false"
       spacing="2"
       normal_offset="0"
       tang_offset="0"
       prop_units="false"
       vertical_pattern="false"
       fuse_tolerance="0" />
  </defs>
  <sodipodi:namedview
     id="base"
     pagecolor="#cbcbd2"
     bordercolor="#666666"
     borderopacity="1.0"
     inkscape:pageopacity="0"
     inkscape:pageshadow="2"
     inkscape:zoom="0.1767767"
     inkscape:cx="-496.35284"
     inkscape:cy="-1140.4049"
     inkscape:document-units="mm"
     inkscape:current-layer="layer1"
     showgrid="false"
     inkscape:window-width="1920"
     inkscape:window-height="1001"
     inkscape:window-x="-9"
     inkscape:window-y="-9"
     inkscape:window-maximized="1"
     inkscape:snap-object-midpoints="true"
     inkscape:snap-intersection-paths="true"
     inkscape:snap-others="true"
     inkscape:snap-nodes="false" />
  <metadata
     id="metadata1882">
    <rdf:RDF>
      <cc:Work
         rdf:about="">
        <dc:format>image/svg+xml</dc:format>
        <dc:type
           rdf:resource="http://purl.org/dc/dcmitype/StillImage" />
        <dc:title />
      </cc:Work>
    </rdf:RDF>
  </metadata>
  <g
     inkscape:label="Layer 1"
     inkscape:groupmode="layer"
     id="layer1">
    <circle
       r="16.599483"
       cy="218.40988"
       cx="-261.534"
       id="circle922"
       style="opacity:1;fill:#d5d5d5;fill-opacity:1;stroke:none;stroke-width:14.76193142;stroke-linecap:square;stroke-linejoin:miter;stroke-miterlimit:4;stroke-dasharray:none;stroke-opacity:1"
       inkscape:export-filename="D:\Documents\Unity\arcadegame1\arcadegame1\Assets\sprites\boards.png"
       inkscape:export-xdpi="96"
       inkscape:export-ydpi="96" />
    <circle
       style="opacity:1;fill:#d5d5d5;fill-opacity:1;stroke:none;stroke-width:14.76193142;stroke-linecap:square;stroke-linejoin:miter;stroke-miterlimit:4;stroke-dasharray:none;stroke-opacity:1"
       id="circle924"
       cx="-80.046318"
       cy="218.40988"
       r="16.599483"
       inkscape:export-filename="D:\Documents\Unity\arcadegame1\arcadegame1\Assets\sprites\boards.png"
       inkscape:export-xdpi="96"
       inkscape:export-ydpi="96" />
    <path
       id="path917"
       style="opacity:1;fill:none;fill-opacity:1;stroke:#b8a804;stroke-width:8.85046101;stroke-linecap:round;stroke-linejoin:round;stroke-miterlimit:4;stroke-dasharray:none;stroke-opacity:1"
       sodipodi:type="arc"
       sodipodi:cx="628.39984"
       sodipodi:cy="90.739899"
       sodipodi:rx="53.783249"
       sodipodi:ry="53.783249"
       sodipodi:start="0"
       sodipodi:end="4.733761"
       sodipodi:open="true"
       d="M 682.18309,90.739899 A 53.783249,53.783249 0 0 1 648.71602,140.5384 53.783249,53.783249 0 0 1 589.96513,128.36184 53.783249,53.783249 0 0 1 579.04688,69.364149 53.783249,53.783249 0 0 1 629.54921,36.968932"
       transform="rotate(90)" />
    <path
       style="fill:none;stroke:#fcffff;stroke-width:1.46389151;stroke-linecap:round;stroke-linejoin:miter;stroke-miterlimit:4;stroke-dasharray:none;stroke-opacity:1"
       d="m -259.46269,154.84063 c 70.92459,0 126.53047,0 181.487688,0"
       id="path5993"
       inkscape:connector-curvature="0"
       sodipodi:nodetypes="cc"
       inkscape:export-filename="D:\Documents\Unity\arcadegame1\arcadegame1\Assets\sprites\boards.png"
       inkscape:export-xdpi="96"
       inkscape:export-ydpi="96" />
    <path
       style="fill:none;fill-opacity:1;stroke:#fffffd;stroke-width:0;stroke-linecap:round;stroke-linejoin:miter;stroke-miterlimit:4;stroke-dasharray:none;stroke-opacity:1"
       d="m -261.534,-69.08576 c 29.95285,19.180975 60.27135,14.595331 90.74384,0 31.17639,-14.390907 61.76917,-19.735797 90.743839,0"
       id="path5985"
       inkscape:connector-curvature="0"
       sodipodi:nodetypes="ccc"
       inkscape:export-filename="D:\Documents\Unity\arcadegame1\arcadegame1\Assets\sprites\boards.png"
       inkscape:export-xdpi="96"
       inkscape:export-ydpi="96" />
    <g
       id="g969"
       inkscape:export-filename="D:\Documents\Unity\arcadegame1\arcadegame1\Assets\sprites\boards.png"
       inkscape:export-xdpi="96"
       inkscape:export-ydpi="96"
       transform="matrix(2.927783,0,0,2.927783,-307.72891,-334.29074)">
      <rect
         y="33.928574"
         x="15.805303"
         height="11.339286"
         width="61.988094"
         id="rect2430"
         style="opacity:1;fill:#fffdff;fill-opacity:1;stroke:none;stroke-width:5;stroke-linecap:square;stroke-linejoin:miter;stroke-miterlimit:4;stroke-dasharray:none;stroke-opacity:1" />
      <circle
         r="5.6696429"
         cy="39.598213"
         cx="15.778118"
         id="path2432"
         style="opacity:1;fill:#d5d5d5;fill-opacity:1;stroke:none;stroke-width:5.04201698;stroke-linecap:square;stroke-linejoin:miter;stroke-miterlimit:4;stroke-dasharray:none;stroke-opacity:1" />
      <circle
         style="opacity:1;fill:#d5d5d5;fill-opacity:1;stroke:none;stroke-width:5.04201698;stroke-linecap:square;stroke-linejoin:miter;stroke-miterlimit:4;stroke-dasharray:none;stroke-opacity:1"
         id="circle2434"
         cx="77.766212"
         cy="39.598213"
         r="5.6696429" />
    </g>
    <path
       transform="matrix(2.927783,0,0,2.927783,-302.64421,-237.81845)"
       style="fill:none;stroke:#fcffff;stroke-width:0.9099035;stroke-linecap:round;stroke-linejoin:miter;stroke-miterlimit:4;stroke-dasharray:none;stroke-opacity:1"
       d="m 14.441772,105.5716 h 3.422391 v 6.05966 h -3.422391 z m 5.822391,0 h 3.422391 v 6.05966 h -3.422391 z m 5.822391,0 h 3.422391 v 6.05966 h -3.422391 z m 5.822391,0 h 3.422391 v 6.05966 h -3.422391 z m 5.822391,0 h 3.422391 v 6.05966 h -3.422391 z m 5.822391,0 h 3.422391 v 6.05966 h -3.422391 z m 5.822391,0 h 3.422391 v 6.05966 h -3.422391 z m 5.822391,0 H 58.6209 v 6.05966 h -3.422391 z m 5.822391,0 h 3.422391 v 6.05966 H 61.0209 Z m 5.822391,0 h 3.422391 v 6.05966 h -3.422391 z m 5.822391,0 h 3.422391 v 6.05966 h -3.422391 z"
       id="path2578-0-0"
       inkscape:connector-curvature="0"
       sodipodi:nodetypes="cc"
       inkscape:path-effect="#path-effect7627-6"
       inkscape:original-d="m 14.441772,108.60143 c 24.224676,0 43.217162,0 61.988094,0"
       inkscape:export-filename="D:\Documents\Unity\arcadegame1\arcadegame1\Assets\sprites\boards.png"
       inkscape:export-xdpi="96"
       inkscape:export-ydpi="96" />
    <circle
       style="opacity:1;fill:#d5d5d5;fill-opacity:1;stroke:none;stroke-width:14.76193142;stroke-linecap:square;stroke-linejoin:miter;stroke-miterlimit:4;stroke-dasharray:none;stroke-opacity:1"
       id="path2432-1"
       cx="-261.534"
       cy="79.992279"
       r="16.599483"
       inkscape:export-filename="D:\Documents\Unity\arcadegame1\arcadegame1\Assets\sprites\boards.png"
       inkscape:export-xdpi="96"
       inkscape:export-ydpi="96" />
    <circle
       r="16.599483"
       cy="79.992279"
       cx="-80.046318"
       id="circle2434-34"
       style="opacity:1;fill:#d5d5d5;fill-opacity:1;stroke:none;stroke-width:14.76193142;stroke-linecap:square;stroke-linejoin:miter;stroke-miterlimit:4;stroke-dasharray:none;stroke-opacity:1"
       inkscape:export-filename="D:\Documents\Unity\arcadegame1\arcadegame1\Assets\sprites\boards.png"
       inkscape:export-xdpi="96"
       inkscape:export-ydpi="96" />
    <circle
       style="opacity:1;fill:#a8a8a9;fill-opacity:1;stroke:none;stroke-width:5.04201698;stroke-linecap:square;stroke-linejoin:miter;stroke-miterlimit:4;stroke-dasharray:none;stroke-opacity:1"
       id="path2432-55"
       cx="18.985353"
       cy="287.52454"
       r="5.6696429" />
    <circle
       r="5.6696429"
       cy="287.52454"
       cx="80.97345"
       id="circle2434-9"
       style="opacity:1;fill:#a8a8a9;fill-opacity:1;stroke:none;stroke-width:5.04201698;stroke-linecap:square;stroke-linejoin:miter;stroke-miterlimit:4;stroke-dasharray:none;stroke-opacity:1" />
    <rect
       style="opacity:1;fill:#fffdff;fill-opacity:1;stroke:none;stroke-width:5;stroke-linecap:square;stroke-linejoin:miter;stroke-miterlimit:4;stroke-dasharray:none;stroke-opacity:1"
       id="rect2430-8"
       width="61.988098"
       height="11.339286"
       x="19.012539"
       y="281.85489" />
    <circle
       style="opacity:1;fill:#a8a8a9;fill-opacity:1;stroke:none;stroke-width:5.04201698;stroke-linecap:square;stroke-linejoin:miter;stroke-miterlimit:4;stroke-dasharray:none;stroke-opacity:1"
       id="path2432-9"
       cx="325.28711"
       cy="193.35091"
       r="5.6696429" />
    <circle
       r="5.6696429"
       cy="193.35091"
       cx="387.27521"
       id="circle2434-16"
       style="opacity:1;fill:#a8a8a9;fill-opacity:1;stroke:none;stroke-width:5.04201698;stroke-linecap:square;stroke-linejoin:miter;stroke-miterlimit:4;stroke-dasharray:none;stroke-opacity:1" />
    <rect
       style="opacity:1;fill:#fffdff;fill-opacity:1;stroke:none;stroke-width:5;stroke-linecap:square;stroke-linejoin:miter;stroke-miterlimit:4;stroke-dasharray:none;stroke-opacity:1"
       id="rect2430-4"
       width="61.988098"
       height="11.339286"
       x="325.3143"
       y="187.68127" />
    <circle
       style="opacity:1;fill:#a8a8a9;fill-opacity:1;stroke:none;stroke-width:5.04201698;stroke-linecap:square;stroke-linejoin:miter;stroke-miterlimit:4;stroke-dasharray:none;stroke-opacity:1"
       id="path2432-7"
       cx="329.06689"
       cy="221.32115"
       r="5.6696429" />
    <circle
       r="5.6696429"
       cy="221.32115"
       cx="391.05499"
       id="circle2434-12"
       style="opacity:1;fill:#a8a8a9;fill-opacity:1;stroke:none;stroke-width:5.04201698;stroke-linecap:square;stroke-linejoin:miter;stroke-miterlimit:4;stroke-dasharray:none;stroke-opacity:1" />
    <rect
       style="opacity:1;fill:#fffdff;fill-opacity:1;stroke:none;stroke-width:5;stroke-linecap:square;stroke-linejoin:miter;stroke-miterlimit:4;stroke-dasharray:none;stroke-opacity:1"
       id="rect2430-5"
       width="61.988098"
       height="11.339286"
       x="329.09406"
       y="215.6515" />
    <circle
       style="opacity:1;fill:#a8a8a9;fill-opacity:1;stroke:none;stroke-width:5.04201698;stroke-linecap:square;stroke-linejoin:miter;stroke-miterlimit:4;stroke-dasharray:none;stroke-opacity:1"
       id="path2432-15"
       cx="324.90915"
       cy="248.15746"
       r="5.6696429" />
    <circle
       r="5.6696429"
       cy="248.15746"
       cx="386.89725"
       id="circle2434-6"
       style="opacity:1;fill:#a8a8a9;fill-opacity:1;stroke:none;stroke-width:5.04201698;stroke-linecap:square;stroke-linejoin:miter;stroke-miterlimit:4;stroke-dasharray:none;stroke-opacity:1" />
    <rect
       style="opacity:1;fill:#fffdff;fill-opacity:1;stroke:none;stroke-width:5;stroke-linecap:square;stroke-linejoin:miter;stroke-miterlimit:4;stroke-dasharray:none;stroke-opacity:1"
       id="rect2430-7"
       width="61.988098"
       height="11.339286"
       x="324.93634"
       y="242.48782" />
    <circle
       style="opacity:1;fill:#a8a8a9;fill-opacity:1;stroke:none;stroke-width:5.04201698;stroke-linecap:square;stroke-linejoin:miter;stroke-miterlimit:4;stroke-dasharray:none;stroke-opacity:1"
       id="path2432-58"
       cx="323.77521"
       cy="275.74973"
       r="5.6696429" />
    <circle
       r="5.6696429"
       cy="275.74973"
       cx="385.76331"
       id="circle2434-90"
       style="opacity:1;fill:#a8a8a9;fill-opacity:1;stroke:none;stroke-width:5.04201698;stroke-linecap:square;stroke-linejoin:miter;stroke-miterlimit:4;stroke-dasharray:none;stroke-opacity:1" />
    <rect
       style="opacity:1;fill:#fffdff;fill-opacity:1;stroke:none;stroke-width:5;stroke-linecap:square;stroke-linejoin:miter;stroke-miterlimit:4;stroke-dasharray:none;stroke-opacity:1"
       id="rect2430-87"
       width="61.988098"
       height="11.339286"
       x="323.8024"
       y="270.08008" />
    <circle
       style="opacity:1;fill:#a8a8a9;fill-opacity:1;stroke:none;stroke-width:5.04201698;stroke-linecap:square;stroke-linejoin:miter;stroke-miterlimit:4;stroke-dasharray:none;stroke-opacity:1"
       id="path2432-0"
       cx="323.77521"
       cy="297.67233"
       r="5.6696429" />
    <circle
       r="5.6696429"
       cy="297.67233"
       cx="385.76331"
       id="circle2434-2"
       style="opacity:1;fill:#a8a8a9;fill-opacity:1;stroke:none;stroke-width:5.04201698;stroke-linecap:square;stroke-linejoin:miter;stroke-miterlimit:4;stroke-dasharray:none;stroke-opacity:1" />
    <rect
       style="opacity:1;fill:#fffdff;fill-opacity:1;stroke:none;stroke-width:5;stroke-linecap:square;stroke-linejoin:miter;stroke-miterlimit:4;stroke-dasharray:none;stroke-opacity:1"
       id="rect2430-39"
       width="61.988098"
       height="11.339286"
       x="323.8024"
       y="292.00272" />
    <circle
       style="opacity:1;fill:#a8a8a9;fill-opacity:1;stroke:none;stroke-width:5.04201698;stroke-linecap:square;stroke-linejoin:miter;stroke-miterlimit:4;stroke-dasharray:none;stroke-opacity:1"
       id="path2432-92"
       cx="323.77521"
       cy="316.94913"
       r="5.6696429" />
    <circle
       r="5.6696429"
       cy="316.94913"
       cx="385.76331"
       id="circle2434-91"
       style="opacity:1;fill:#a8a8a9;fill-opacity:1;stroke:none;stroke-width:5.04201698;stroke-linecap:square;stroke-linejoin:miter;stroke-miterlimit:4;stroke-dasharray:none;stroke-opacity:1" />
    <rect
       style="opacity:1;fill:#fffdff;fill-opacity:1;stroke:none;stroke-width:5;stroke-linecap:square;stroke-linejoin:miter;stroke-miterlimit:4;stroke-dasharray:none;stroke-opacity:1"
       id="rect2430-0"
       width="61.988098"
       height="11.339286"
       x="323.8024"
       y="311.27948" />
    <circle
       style="opacity:1;fill:#a8a8a9;fill-opacity:1;stroke:none;stroke-width:5.04201698;stroke-linecap:square;stroke-linejoin:miter;stroke-miterlimit:4;stroke-dasharray:none;stroke-opacity:1"
       id="path2432-23"
       cx="323.77521"
       cy="347.56519"
       r="5.6696429" />
    <circle
       r="5.6696429"
       cy="347.56519"
       cx="385.76331"
       id="circle2434-75"
       style="opacity:1;fill:#a8a8a9;fill-opacity:1;stroke:none;stroke-width:5.04201698;stroke-linecap:square;stroke-linejoin:miter;stroke-miterlimit:4;stroke-dasharray:none;stroke-opacity:1" />
    <rect
       style="opacity:1;fill:#fffdff;fill-opacity:1;stroke:none;stroke-width:5;stroke-linecap:square;stroke-linejoin:miter;stroke-miterlimit:4;stroke-dasharray:none;stroke-opacity:1"
       id="rect2430-33"
       width="61.988098"
       height="11.339286"
       x="323.8024"
       y="341.89557" />
    <circle
       style="opacity:1;fill:#d5d5d5;fill-opacity:1;stroke:none;stroke-width:14.76193142;stroke-linecap:square;stroke-linejoin:miter;stroke-miterlimit:4;stroke-dasharray:none;stroke-opacity:1"
       id="path2432-5"
       cx="-261.534"
       cy="-143.69131"
       r="16.599483"
       inkscape:export-filename="D:\Documents\Unity\arcadegame1\arcadegame1\Assets\sprites\boards.png"
       inkscape:export-xdpi="96"
       inkscape:export-ydpi="96" />
    <circle
       r="16.599483"
       cy="-143.69131"
       cx="-80.046318"
       id="circle2434-3"
       style="opacity:1;fill:#d5d5d5;fill-opacity:1;stroke:none;stroke-width:14.76193142;stroke-linecap:square;stroke-linejoin:miter;stroke-miterlimit:4;stroke-dasharray:none;stroke-opacity:1"
       inkscape:export-filename="D:\Documents\Unity\arcadegame1\arcadegame1\Assets\sprites\boards.png"
       inkscape:export-xdpi="96"
       inkscape:export-ydpi="96" />
    <path
       style="fill:none;stroke:#ffffff;stroke-width:8.78334904;stroke-linecap:round;stroke-linejoin:miter;stroke-miterlimit:4;stroke-dasharray:none;stroke-opacity:0.97368421"
       d="m -261.534,-143.69131 c 29.95285,19.18098 55.20095,19.14865 90.74384,0 35.62467,-19.95124 62.46638,-20.60731 90.743843,0"
       id="path2578"
       inkscape:connector-curvature="0"
       sodipodi:nodetypes="ccc"
       inkscape:export-filename="D:\Documents\Unity\arcadegame1\arcadegame1\Assets\sprites\boards.png"
       inkscape:export-xdpi="96"
       inkscape:export-ydpi="96" />
    <circle
       r="9.5569191"
       cy="-143.69131"
       cx="-261.534"
       id="circle2595"
       style="opacity:1;fill:#d5d5d5;fill-opacity:1;stroke:none;stroke-width:8.4989748;stroke-linecap:square;stroke-linejoin:miter;stroke-miterlimit:4;stroke-dasharray:none;stroke-opacity:1"
       inkscape:export-filename="D:\Documents\Unity\arcadegame1\arcadegame1\Assets\sprites\boards.png"
       inkscape:export-xdpi="96"
       inkscape:export-ydpi="96" />
    <circle
       r="9.5569201"
       cy="-143.69131"
       cx="-80.046318"
       id="circle2595-4"
       style="opacity:1;fill:#d5d5d5;fill-opacity:1;stroke:none;stroke-width:8.4989748;stroke-linecap:square;stroke-linejoin:miter;stroke-miterlimit:4;stroke-dasharray:none;stroke-opacity:1"
       inkscape:export-filename="D:\Documents\Unity\arcadegame1\arcadegame1\Assets\sprites\boards.png"
       inkscape:export-xdpi="96"
       inkscape:export-ydpi="96" />
    <path
       inkscape:export-ydpi="96"
       inkscape:export-xdpi="96"
       inkscape:export-filename="D:\Documents\Unity\arcadegame1\arcadegame1\Assets\sprites\boardTrails1.png"
       sodipodi:nodetypes="ccc"
       inkscape:connector-curvature="0"
       id="path5817"
       d="m 170.9081,-143.69131 c 29.95286,19.18098 55.20095,19.14865 90.74382,0 35.62468,-19.95124 62.46639,-20.60731 90.74386,0"
       style="fill:none;stroke:#ffffff;stroke-width:8.78334904;stroke-linecap:round;stroke-linejoin:miter;stroke-miterlimit:4;stroke-dasharray:none;stroke-opacity:0.97368421" />
    <path
       style="fill:#d9dcda;fill-opacity:1;stroke:#fffffd;stroke-width:1;stroke-linecap:round;stroke-linejoin:miter;stroke-miterlimit:4;stroke-dasharray:none;stroke-opacity:1"
       d="m 17.331369,84.945319 -0.591797,1.070279 c 0.06538,0.204254 0.134135,0.408387 0.206217,0.612339 0.253759,0.71821 0.548786,1.434185 0.883119,2.145338 -0.751549,0.229278 -1.526922,0.426933 -2.325842,0.589729 -0.226902,0.04624 -0.455703,0.08967 -0.686398,0.130213 l -0.591797,1.07028 c 0.868958,-0.135027 1.71243,-0.309367 2.530106,-0.519411 0.817676,-0.210044 1.609557,-0.455792 2.375333,-0.733634 -0.384423,-0.718301 -0.727992,-1.443163 -1.028516,-2.1717 -0.300575,-0.728428 -0.558114,-1.460534 -0.770425,-2.193433 z m 4.107744,1.788571 -0.378467,1.159177 c 0.103815,0.187417 0.210615,0.37434 0.320355,0.560711 0.386371,0.65631 0.809203,1.305766 1.266532,1.945781 -0.698718,0.361164 -1.422856,0.697176 -2.172137,1.004802 -0.212803,0.08737 -0.427634,0.172458 -0.644487,0.255178 l -0.378467,1.159179 c 0.817094,-0.293604 1.606985,-0.619558 2.369365,-0.974253 0.762378,-0.354695 1.497245,-0.738131 2.20429,-1.146699 -0.505429,-0.641491 -0.975176,-1.294512 -1.407052,-1.956178 -0.431906,-0.661548 -0.825947,-1.331743 -1.179932,-2.007698 z m 4.429053,1.019149 -0.176019,1.210499 c 0.135747,0.167584 0.274092,0.334303 0.41499,0.500096 0.496093,0.58386 1.023838,1.156247 1.581273,1.714574 -0.632177,0.471902 -1.29137,0.925125 -1.977301,1.356434 -0.19481,0.122501 -0.391777,0.243234 -0.590895,0.362126 l -0.176019,1.2105 c 0.75101,-0.430246 1.4731,-0.885881 2.165961,-1.363294 0.692861,-0.477412 1.356493,-0.976603 1.990587,-1.493962 -0.602693,-0.553739 -1.174877,-1.123976 -1.714361,-1.707827 -0.539495,-0.58373 -1.046297,-1.181074 -1.518216,-1.789146 z m 4.593463,0.295168 0.01555,1.224245 c 0.161179,0.144756 0.324568,0.288274 0.490121,0.430494 0.363062,0.31195 0.736537,0.617658 1.119952,0.916499 0.232833,0.181 0.468696,0.359768 0.707404,0.536393 -0.208896,0.211005 -0.421071,0.420617 -0.63672,0.628779 -0.357173,0.343693 -0.725404,0.682177 -1.104626,1.014672 -0.172923,0.151622 -0.348132,0.301998 -0.525621,0.451055 l 0.01555,1.224246 c 0.586407,-0.476463 1.149395,-0.967011 1.688757,-1.469231 0.07684,-0.07223 0.153255,-0.144625 0.229244,-0.217193 0.604602,-0.577384 1.182436,-1.165512 1.73757,-1.763151 -0.670874,-0.464113 -1.322161,-0.943132 -1.950011,-1.438868 -0.07891,-0.06229 -0.15745,-0.124846 -0.235612,-0.187669 -0.53892,-0.436806 -1.056591,-0.887539 -1.551549,-1.350271 z m 4.685194,-0.368219 0.167074,1.208999 c 0.180745,0.122566 0.362938,0.244102 0.546499,0.364647 0.646342,0.424538 1.309655,0.836776 1.986489,1.23834 -0.494091,0.61246 -1.004186,1.218549 -1.533932,1.817159 -0.150451,0.170016 -0.302487,0.339428 -0.456191,0.508212 l 0.167073,1.209 c 0.575923,-0.618333 1.128585,-1.244977 1.662057,-1.878697 0.533471,-0.63372 1.047752,-1.274515 1.546912,-1.921149 -0.711376,-0.401709 -1.410132,-0.813594 -2.09242,-1.237469 -0.682268,-0.423755 -1.348071,-0.859498 -1.993561,-1.309042 z m 4.760519,-0.879726 0.264781,1.194587 c 0.192921,0.107146 0.386766,0.213616 0.581458,0.31945 0.68554,0.372738 1.381573,0.737572 2.08465,1.096126 -0.455276,0.644577 -0.919511,1.286193 -1.396353,1.923741 -0.135426,0.181074 -0.271868,0.361821 -0.409411,0.542214 l 0.264782,1.194588 c 0.511358,-0.660326 1.007034,-1.325294 1.491097,-1.993668 0.484063,-0.668372 0.956513,-1.34015 1.421421,-2.014098 -0.733517,-0.363903 -1.461384,-0.733255 -2.179751,-1.109867 -0.718339,-0.376494 -1.427179,-0.760247 -2.122674,-1.153073 z m 4.827539,-1.200815 0.316678,1.183509 c 0.200069,0.09846 0.400542,0.196602 0.601338,0.29446 0.707037,0.344655 1.41809,0.685802 2.129709,1.025064 -0.437403,0.655787 -0.876722,1.312025 -1.321603,1.967606 -0.126348,0.186196 -0.253145,0.372339 -0.380474,0.558404 l 0.316679,1.18351 c 0.468516,-0.680637 0.928927,-1.362245 1.385304,-2.043589 0.23624,-0.352691 0.471398,-0.705312 0.706039,-1.057689 0.219148,-0.328 0.437515,-0.656426 0.655696,-0.985127 -0.356531,-0.169006 -0.71273,-0.338036 -1.068057,-0.507376 -0.381851,-0.182112 -0.763557,-0.364652 -1.144586,-0.54787 -0.736055,-0.353832 -1.469578,-0.710195 -2.196723,-1.070902 z m 4.900304,-1.347962 0.327531,1.180515 c 0.203005,0.09581 0.406095,0.191723 0.609171,0.287798 0.715064,0.338378 1.429952,0.678735 2.14033,1.023362 -0.442533,0.653791 -0.879115,1.309354 -1.314497,1.965482 -0.12365,0.186351 -0.247203,0.372747 -0.370769,0.559162 l 0.327532,1.180516 c 0.450164,-0.680132 0.898879,-1.359872 1.351448,-2.037873 0.452569,-0.678001 0.908991,-1.354263 1.374569,-2.02744 -0.732849,-0.364679 -1.47295,-0.722971 -2.215465,-1.077431 -0.742483,-0.354342 -1.487378,-0.704854 -2.22985,-1.054091 z m 5.046099,-1.33096 0.289109,1.189334 c 0.20278,0.101803 0.404995,0.204199 0.606545,0.307241 0.709689,0.36291 1.411141,0.733831 2.10002,1.115052 -0.475677,0.627289 -0.93615,1.260315 -1.386171,1.897871 -0.127807,0.181077 -0.254772,0.362519 -0.381002,0.544299 l 0.289109,1.189336 c 0.4528,-0.66236 0.914106,-1.320061 1.389218,-1.971758 0.475113,-0.651697 0.964032,-1.297389 1.472061,-1.93573 -0.704431,-0.411676 -1.424786,-0.810476 -2.156228,-1.198957 -0.731416,-0.388363 -1.473915,-0.766407 -2.222661,-1.136688 z m 5.251498,-1.066428 0.192027,1.205152 c 0.196497,0.116749 0.391778,0.234578 0.585745,0.353539 0.682979,0.418962 1.349659,0.851966 1.995705,1.301302 -0.536967,0.57517 -1.049477,1.160043 -1.542283,1.753411 -0.139959,0.168527 -0.27833,0.337739 -0.415219,0.507609 l 0.192027,1.205154 c 0.484631,-0.618017 0.98772,-1.227111 1.51457,-1.825934 0.405609,-0.461019 0.825301,-0.915951 1.261495,-1.364181 0.130242,-0.133991 0.262085,-0.267312 0.395596,-0.399874 -0.150288,-0.113217 -0.302068,-0.22537 -0.45523,-0.336436 -0.511928,-0.371534 -1.037774,-0.731939 -1.575332,-1.082383 -0.698225,-0.455074 -1.416205,-0.893342 -2.149101,-1.317359 z m 5.503799,-0.540634 0.02871,1.223758 c 0.184037,0.142389 0.365816,0.286412 0.545156,0.432033 0.631463,0.512836 1.232676,1.045485 1.795686,1.596407 -0.625639,0.478485 -1.216358,0.980914 -1.777024,1.500812 -0.159233,0.147661 -0.316042,0.296732 -0.470537,0.447063 l 0.02871,1.223759 c 0.538747,-0.54851 1.106525,-1.081341 1.70876,-1.59127 0.602234,-0.509928 1.238927,-0.996952 1.915505,-1.45385 -0.548906,-0.604436 -1.143856,-1.189392 -1.775975,-1.753145 -0.632125,-0.563632 -1.301411,-1.106061 -1.998987,-1.625567 z m 5.743473,0.434634 -0.223221,1.201917 c 0.104068,0.118886 0.206521,0.238485 0.307303,0.358785 0.04978,0.05941 0.09911,0.11898 0.147985,0.178716 0.521651,0.637748 0.991216,1.294031 1.408665,1.962205 -0.720883,0.317684 -1.405417,0.674549 -2.049169,1.065648 -0.06031,0.03664 -0.120259,0.07358 -0.179848,0.11082 -0.121424,0.07526 -0.241493,0.15167 -0.36024,0.229174 l -0.223222,1.201919 c 0.112237,-0.07856 0.225733,-0.156063 0.340523,-0.23246 0.507994,-0.342919 1.04595,-0.662713 1.611177,-0.956378 0.692255,-0.359663 1.425416,-0.680132 2.194536,-0.955885 -0.382821,-0.721916 -0.822357,-1.435047 -1.318575,-2.131979 -0.40519,-0.56895 -0.84816,-1.127099 -1.328894,-1.670412 -0.107416,-0.121433 -0.216441,-0.242127 -0.32702,-0.36207 z"
       id="path2578-8"
       inkscape:connector-curvature="0"
       sodipodi:nodetypes="cc"
       inkscape:path-effect="#path-effect2689"
       inkscape:original-d="m 15.77812,87.754408 c 21.662241,11.977854 44.352998,-11.417924 61.988094,0"
       transform="matrix(2.927783,0,0,2.927783,-307.72891,-326.01161)"
       inkscape:export-filename="D:\Documents\Unity\arcadegame1\arcadegame1\Assets\sprites\boards.png"
       inkscape:export-xdpi="96"
       inkscape:export-ydpi="96" />
    <circle
       style="opacity:1;fill:#d5d5d5;fill-opacity:1;stroke:none;stroke-width:14.76193142;stroke-linecap:square;stroke-linejoin:miter;stroke-miterlimit:4;stroke-dasharray:none;stroke-opacity:1"
       id="path2432-5-7"
       cx="-261.534"
       cy="-69.085785"
       r="16.599483"
       inkscape:export-filename="D:\Documents\Unity\arcadegame1\arcadegame1\Assets\sprites\boards.png"
       inkscape:export-xdpi="96"
       inkscape:export-ydpi="96" />
    <circle
       r="16.599483"
       cy="-69.085785"
       cx="-80.046318"
       id="circle2434-3-4"
       style="opacity:1;fill:#d5d5d5;fill-opacity:1;stroke:none;stroke-width:14.76193142;stroke-linecap:square;stroke-linejoin:miter;stroke-miterlimit:4;stroke-dasharray:none;stroke-opacity:1"
       inkscape:export-filename="D:\Documents\Unity\arcadegame1\arcadegame1\Assets\sprites\boards.png"
       inkscape:export-xdpi="96"
       inkscape:export-ydpi="96" />
    <circle
       r="9.5569201"
       cy="-69.085785"
       cx="-261.534"
       id="circle2595-8"
       style="opacity:1;fill:#d5d5d5;fill-opacity:1;stroke:none;stroke-width:8.4989748;stroke-linecap:square;stroke-linejoin:miter;stroke-miterlimit:4;stroke-dasharray:none;stroke-opacity:1"
       inkscape:export-filename="D:\Documents\Unity\arcadegame1\arcadegame1\Assets\sprites\boards.png"
       inkscape:export-xdpi="96"
       inkscape:export-ydpi="96" />
    <circle
       r="9.5569201"
       cy="-69.085785"
       cx="-80.046318"
       id="circle2595-4-1"
       style="opacity:1;fill:#d5d5d5;fill-opacity:1;stroke:none;stroke-width:8.4989748;stroke-linecap:square;stroke-linejoin:miter;stroke-miterlimit:4;stroke-dasharray:none;stroke-opacity:1"
       inkscape:export-filename="D:\Documents\Unity\arcadegame1\arcadegame1\Assets\sprites\boards.png"
       inkscape:export-xdpi="96"
       inkscape:export-ydpi="96" />
    <path
       style="fill:none;stroke:#fcffff;stroke-width:0.9099035;stroke-linecap:round;stroke-linejoin:miter;stroke-miterlimit:4;stroke-dasharray:none;stroke-opacity:1"
       d="m 16.075686,106.04992 c 0.857226,0.54774 1.748561,1.04421 2.665906,1.48489 l -2.623017,5.46481 c -1.140275,-0.54695 -2.246547,-1.16401 -3.310717,-1.84668 z m 4.631392,2.32813 c 0.949844,0.36023 1.920021,0.6615 2.902431,0.89931 L 22.193677,115.16 c -1.232535,-0.29528 -2.444843,-0.66837 -3.628827,-1.11474 z m 4.984474,1.30442 c 0.995586,0.14658 1.997728,0.22653 2.998327,0.23534 l -0.06985,6.05148 c -1.277919,-0.0175 -2.549388,-0.12047 -3.806309,-0.30441 z m 5.1208,0.16146 c 1.018561,-0.0768 2.037554,-0.21839 3.055111,-0.41529 l 1.123238,5.93898 c -1.216647,0.23018 -2.451378,0.40171 -3.702324,0.50519 z m 5.193076,-0.90793 c 1.014623,-0.26989 2.026499,-0.58853 3.033759,-0.94651 l 1.994794,5.74041 c -1.149703,0.40252 -2.320671,0.76238 -3.511034,1.07019 z m 5.145369,-1.75442 c 0.999865,-0.40854 1.993804,-0.84982 2.979945,-1.31445 l 2.577243,5.48436 c -1.07194,0.52042 -2.168324,1.0142 -3.287283,1.47191 z m 5.269056,-2.33763 c 1.104192,-0.46831 2.230114,-0.90812 3.376529,-1.30949 l 2.044073,5.71913 c -1.011433,0.35876 -2.020015,0.75378 -3.024508,1.17509 z m 5.818155,-2.09371 c 1.174549,-0.34254 2.368723,-0.63964 3.581286,-0.88134 l 1.201978,5.91754 c -1.017556,0.20655 -2.034365,0.46631 -3.04919,0.76932 z m 6.158968,-1.30466 c 0.886018,-0.11389 1.781015,-0.19581 2.684535,-0.2421 0.365119,-0.0151 0.730118,-0.0229 1.094777,-0.0236 l 0.02068,6.05484 c -0.283178,0.002 -0.566181,0.009 -0.848787,0.0225 -0.728138,0.0256 -1.456792,0.0857 -2.185507,0.17659 z m 6.469499,-0.1393 c 1.272634,0.12162 2.534328,0.33017 3.775482,0.62207 l -1.387317,5.88889 c -0.976144,-0.23046 -1.966442,-0.39459 -2.961296,-0.48877 z m 6.353,1.35785 c 1.207626,0.407 2.387981,0.8948 3.531465,1.45981 l -2.684436,5.42779 c -0.900199,-0.44574 -1.830883,-0.83129 -2.782454,-1.15302 z"
       id="path2578-0"
       inkscape:connector-curvature="0"
       sodipodi:nodetypes="ccc"
       inkscape:path-effect="#path-effect7627"
       inkscape:original-d="m 14.441772,108.60143 c 10.230559,6.55137 20.586004,4.98512 30.994048,0 10.648463,-4.91529 21.097592,-6.74087 30.994046,0"
       transform="matrix(2.927783,0,0,2.927783,-303.81639,-312.48293)"
       inkscape:export-filename="D:\Documents\Unity\arcadegame1\arcadegame1\Assets\sprites\boards.png"
       inkscape:export-xdpi="96"
       inkscape:export-ydpi="96" />
    <circle
       style="opacity:1;fill:#d5d5d5;fill-opacity:1;stroke:none;stroke-width:14.76193142;stroke-linecap:square;stroke-linejoin:miter;stroke-miterlimit:4;stroke-dasharray:none;stroke-opacity:1"
       id="path2432-5-4"
       cx="-261.534"
       cy="5.4784875"
       r="16.599483"
       inkscape:export-filename="D:\Documents\Unity\arcadegame1\arcadegame1\Assets\sprites\boards.png"
       inkscape:export-xdpi="96"
       inkscape:export-ydpi="96" />
    <circle
       r="16.599483"
       cy="5.4784875"
       cx="-80.046318"
       id="circle2434-3-5"
       style="opacity:1;fill:#d5d5d5;fill-opacity:1;stroke:none;stroke-width:14.76193142;stroke-linecap:square;stroke-linejoin:miter;stroke-miterlimit:4;stroke-dasharray:none;stroke-opacity:1"
       inkscape:export-filename="D:\Documents\Unity\arcadegame1\arcadegame1\Assets\sprites\boards.png"
       inkscape:export-xdpi="96"
       inkscape:export-ydpi="96" />
    <circle
       r="9.5569201"
       cy="5.4784875"
       cx="-261.534"
       id="circle2595-3"
       style="opacity:1;fill:#d5d5d5;fill-opacity:1;stroke:none;stroke-width:8.4989748;stroke-linecap:square;stroke-linejoin:miter;stroke-miterlimit:4;stroke-dasharray:none;stroke-opacity:1"
       inkscape:export-filename="D:\Documents\Unity\arcadegame1\arcadegame1\Assets\sprites\boards.png"
       inkscape:export-xdpi="96"
       inkscape:export-ydpi="96" />
    <circle
       r="9.5569201"
       cy="5.4784875"
       cx="-80.046318"
       id="circle2595-4-6"
       style="opacity:1;fill:#d5d5d5;fill-opacity:1;stroke:none;stroke-width:8.4989748;stroke-linecap:square;stroke-linejoin:miter;stroke-miterlimit:4;stroke-dasharray:none;stroke-opacity:1"
       inkscape:export-filename="D:\Documents\Unity\arcadegame1\arcadegame1\Assets\sprites\boards.png"
       inkscape:export-xdpi="96"
       inkscape:export-ydpi="96" />
    <path
       style="opacity:1;fill:#c8c8c8;fill-opacity:1;stroke:#fffffb;stroke-width:1.39296269;stroke-linecap:round;stroke-linejoin:miter;stroke-miterlimit:4;stroke-dasharray:none;stroke-opacity:1"
       d="m -38.328034,72.988028 v 0.815331 l 0.507483,0.292972 1.786866,1.031761 -1.786866,1.031521 -0.507483,0.292972 v 0.815332 l 1.853331,-1.069913 1.85333,-1.069912 -1.85333,-1.070153 z"
       id="path2669"
       inkscape:connector-curvature="0" />
    <path
       style="opacity:1;fill:#c8c8c8;fill-opacity:1;stroke:#fffffb;stroke-width:3.224;stroke-linecap:round;stroke-linejoin:miter;stroke-miterlimit:4;stroke-dasharray:none;stroke-opacity:1"
       d="m -38.185899,105.26405 h 3.422391 v 7.57457 h -3.422391 z"
       id="rect7625"
       inkscape:connector-curvature="0" />
    <path
       inkscape:connector-curvature="0"
       style="opacity:1;fill:#c8c8c8;fill-opacity:1;stroke:#fffffb;stroke-width:1;stroke-linecap:round;stroke-linejoin:miter;stroke-miterlimit:4;stroke-dasharray:none;stroke-opacity:1"
       d="m -37.136162,124.92634 h 1.322917 v 5.29167 h -1.322917 z"
       id="rect7625-0" />
    <rect
       style="opacity:1;fill:#fffcff;fill-opacity:0.58270677;stroke:#ffffff;stroke-width:0.71109611;stroke-linecap:round;stroke-linejoin:miter;stroke-miterlimit:4;stroke-dasharray:none;stroke-opacity:0.54511276"
       id="rect7726"
       width="43.65625"
       height="6.4983034"
       x="28.151276"
       y="265.35629" />
    <path
       inkscape:connector-curvature="0"
       style="opacity:1;fill:#c8c8c8;fill-opacity:1;stroke:#fffffb;stroke-width:0.61199999;stroke-linecap:round;stroke-linejoin:miter;stroke-miterlimit:4;stroke-dasharray:none;stroke-opacity:1"
       d="m -38.245094,162.81007 c 4.793052,-4.07487 4.071778,-2.87309 1.603903,0 v 6.41561 h -1.603903 z"
       id="rect7625-0-8"
       sodipodi:nodetypes="cccccc" />
    <path
       inkscape:connector-curvature="0"
       style="opacity:1;fill:#c8c8c8;fill-opacity:1;stroke:#fffffb;stroke-width:0.61176282;stroke-linecap:round;stroke-linejoin:miter;stroke-miterlimit:4;stroke-dasharray:none;stroke-opacity:1"
       d="m -34.704999,169.22568 c -4.791195,4.07329 -4.0702,2.87198 -1.603282,0 v -6.41312 h 1.603282 z"
       id="rect7625-0-8-7"
       sodipodi:nodetypes="cccccc" />
    <path
       transform="matrix(2.927783,0,0,2.927783,-304.25707,-159.79969)"
       style="fill:none;stroke:#fcffff;stroke-width:0.68311074;stroke-linecap:round;stroke-linejoin:miter;stroke-miterlimit:4;stroke-dasharray:none;stroke-opacity:1"
       d="m 17.975368,110.04142 c -4.791195,3.0957 -4.0702,2.1827 -1.603282,0 v -4.87397 h 1.603282 z m 5.533597,0 c -4.791195,3.0957 -4.0702,2.1827 -1.603282,0 v -4.87397 h 1.603282 z m 5.533596,0 c -4.791195,3.0957 -4.0702,2.1827 -1.603282,0 v -4.87397 h 1.603282 z m 5.533596,0 c -4.791195,3.0957 -4.0702,2.1827 -1.603282,0 v -4.87397 h 1.603282 z m 5.533597,0 c -4.791195,3.0957 -4.0702,2.1827 -1.603282,0 v -4.87397 h 1.603282 z m 5.533596,0 c -4.791195,3.0957 -4.0702,2.1827 -1.603282,0 v -4.87397 h 1.603282 z m 5.533596,0 c -4.791195,3.0957 -4.0702,2.1827 -1.603282,0 v -4.87397 h 1.603282 z m 5.533597,0 c -4.791195,3.0957 -4.0702,2.1827 -1.603282,0 v -4.87397 h 1.603282 z m 5.533596,0 c -4.791195,3.0957 -4.0702,2.1827 -1.603282,0 v -4.87397 h 1.603282 z m 5.533596,0 c -4.791195,3.0957 -4.0702,2.1827 -1.603282,0 v -4.87397 h 1.603282 z m 5.533597,0 c -4.791195,3.0957 -4.0702,2.1827 -1.603282,0 v -4.87397 h 1.603282 z"
       id="path2578-0-0-8-5"
       inkscape:connector-curvature="0"
       sodipodi:nodetypes="cc"
       inkscape:path-effect="#path-effect7627-6-6-7"
       inkscape:original-d="m 14.441772,108.60143 c 24.224676,0 43.217162,0 61.988094,0"
       inkscape:export-filename="D:\Documents\Unity\arcadegame1\arcadegame1\Assets\sprites\boards.png"
       inkscape:export-xdpi="96"
       inkscape:export-ydpi="96" />
    <path
       transform="matrix(2.927783,0,0,2.927783,-303.32145,-165.63603)"
       style="fill:none;stroke:#fcffff;stroke-width:0.68311074;stroke-linecap:round;stroke-linejoin:miter;stroke-miterlimit:4;stroke-dasharray:none;stroke-opacity:1"
       d="m 14.441772,107.16088 c 4.793052,-3.0969 4.071778,-2.18355 1.603903,0 v 4.87586 h -1.603903 z m 5.534966,0 c 4.793052,-3.0969 4.071778,-2.18355 1.603903,0 v 4.87586 h -1.603903 z m 5.534966,0 c 4.793052,-3.0969 4.071778,-2.18355 1.603903,0 v 4.87586 h -1.603903 z m 5.534966,0 c 4.793052,-3.0969 4.071778,-2.18355 1.603903,0 v 4.87586 H 31.04667 Z m 5.534966,0 c 4.793052,-3.0969 4.071778,-2.18355 1.603903,0 v 4.87586 h -1.603903 z m 5.534966,0 c 4.793052,-3.0969 4.071778,-2.18355 1.603903,0 v 4.87586 h -1.603903 z m 5.534966,0 c 4.793052,-3.0969 4.071778,-2.18355 1.603903,0 v 4.87586 h -1.603903 z m 5.534966,0 c 4.793052,-3.0969 4.071778,-2.18355 1.603903,0 v 4.87586 h -1.603903 z m 5.534966,0 c 4.793052,-3.0969 4.071778,-2.18355 1.603903,0 v 4.87586 H 58.7215 Z m 5.534966,0 c 4.793052,-3.0969 4.071778,-2.18355 1.603903,0 v 4.87586 h -1.603903 z m 5.534966,0 c 4.793052,-3.0969 4.071778,-2.18355 1.603903,0 v 4.87586 h -1.603903 z"
       id="path2578-0-0-8"
       inkscape:connector-curvature="0"
       sodipodi:nodetypes="cc"
       inkscape:path-effect="#path-effect7627-6-6"
       inkscape:original-d="m 14.441772,108.60143 c 24.224676,0 43.217162,0 61.988094,0"
       inkscape:export-filename="D:\Documents\Unity\arcadegame1\arcadegame1\Assets\sprites\boards.png"
       inkscape:export-xdpi="96"
       inkscape:export-ydpi="96" />
    <circle
       style="opacity:1;fill:#d5d5d5;fill-opacity:1;stroke:none;stroke-width:14.76193142;stroke-linecap:square;stroke-linejoin:miter;stroke-miterlimit:4;stroke-dasharray:none;stroke-opacity:1"
       id="path2432-26"
       cx="-261.534"
       cy="154.57932"
       r="16.599483"
       inkscape:export-filename="D:\Documents\Unity\arcadegame1\arcadegame1\Assets\sprites\boards.png"
       inkscape:export-xdpi="96"
       inkscape:export-ydpi="96" />
    <circle
       r="16.599483"
       cy="154.57932"
       cx="-80.046318"
       id="circle2434-7"
       style="opacity:1;fill:#d5d5d5;fill-opacity:1;stroke:none;stroke-width:14.76193142;stroke-linecap:square;stroke-linejoin:miter;stroke-miterlimit:4;stroke-dasharray:none;stroke-opacity:1"
       inkscape:export-filename="D:\Documents\Unity\arcadegame1\arcadegame1\Assets\sprites\boards.png"
       inkscape:export-xdpi="96"
       inkscape:export-ydpi="96" />
    <path
       style="opacity:1;fill:#fffcf9;fill-opacity:1;stroke:none;stroke-width:0.58418173;stroke-linecap:round;stroke-linejoin:miter;stroke-miterlimit:4;stroke-dasharray:none;stroke-opacity:0.54511276"
       d="m 140.38332,240.00471 a 4.2094951,4.2094951 0 0 0 -4.20956,4.20956 4.2094951,4.2094951 0 0 0 4.20956,4.20956 4.2094951,4.2094951 0 0 0 4.20956,-4.20956 4.2094951,4.2094951 0 0 0 -4.20956,-4.20956 z m 0,1.72289 a 2.4867482,2.4867482 0 0 1 2.48667,2.48667 2.4867482,2.4867482 0 0 1 -2.48667,2.48667 2.4867482,2.4867482 0 0 1 -2.48667,-2.48667 2.4867482,2.4867482 0 0 1 2.48667,-2.48667 z"
       id="path996"
       inkscape:connector-curvature="0"
       inkscape:export-filename="D:\Documents\Unity\arcadegame1\arcadegame1\Assets\sprites\store.png"
       inkscape:export-xdpi="96"
       inkscape:export-ydpi="96" />
    <rect
       style="opacity:1;fill:#fffcf9;fill-opacity:1;stroke:none;stroke-width:0.55636364;stroke-linecap:round;stroke-linejoin:miter;stroke-miterlimit:4;stroke-dasharray:none;stroke-opacity:0.54511276"
       id="rect994"
       width="10.690781"
       height="10.690781"
       x="134.97112"
       y="244.41473"
       inkscape:export-filename="D:\Documents\Unity\arcadegame1\arcadegame1\Assets\sprites\store.png"
       inkscape:export-xdpi="96"
       inkscape:export-ydpi="96" />
    <path
       inkscape:connector-curvature="0"
       id="path881"
       d="m 17.139232,-237.52501 v 3.51775 l 2.189532,1.26402 7.709425,4.45153 -7.709425,4.45049 -2.189532,1.26403 v 3.51774 l 7.996187,-4.61613 7.996182,-4.61613 -7.996182,-4.61717 z"
       style="opacity:1;fill:#c8c8c8;fill-opacity:1;stroke:#fffffb;stroke-width:4;stroke-linecap:round;stroke-linejoin:miter;stroke-miterlimit:4;stroke-dasharray:none;stroke-opacity:1"
       inkscape:export-filename="D:\Documents\Unity\arcadegame1\arcadegame1\Assets\sprites\boardTrail1.png"
       inkscape:export-xdpi="96"
       inkscape:export-ydpi="96" />
    <path
       inkscape:connector-curvature="0"
       id="path883"
       d="m 17.752472,-145.17985 h 14.765889 v 32.68044 H 17.752472 Z"
       style="opacity:1;fill:#000000;fill-opacity:0;stroke:#fffffb;stroke-width:4;stroke-linecap:round;stroke-linejoin:miter;stroke-miterlimit:4;stroke-dasharray:none;stroke-opacity:1"
       inkscape:export-filename="D:\Documents\Unity\arcadegame1\arcadegame1\Assets\sprites\boardTrail2.png"
       inkscape:export-xdpi="96"
       inkscape:export-ydpi="96" />
    <path
       id="path885"
       d="m 22.281557,-40.802424 h 5.707719 v 22.830883 h -5.707719 z"
       style="opacity:1;fill:#c8c8c8;fill-opacity:1;stroke:#fffffb;stroke-width:4;stroke-linecap:round;stroke-linejoin:miter;stroke-miterlimit:4;stroke-dasharray:none;stroke-opacity:1"
       inkscape:connector-curvature="0"
       inkscape:export-filename="D:\Documents\Unity\arcadegame1\arcadegame1\Assets\sprites\boardTrail3.png"
       inkscape:export-xdpi="96"
       inkscape:export-ydpi="96" />
    <g
       id="g891"
       inkscape:export-filename="D:\Documents\Unity\arcadegame1\arcadegame1\Assets\sprites\boardTrail4.png"
       inkscape:export-xdpi="96"
       inkscape:export-ydpi="96">
      <path
         inkscape:export-ydpi="96"
         inkscape:export-xdpi="96"
         inkscape:export-filename="D:\Documents\Unity\arcadegame1\arcadegame1\Assets\sprites\boardTrails.png"
         inkscape:connector-curvature="0"
         style="opacity:1;fill:#c8c8c8;fill-opacity:1;stroke:#fffffb;stroke-width:4;stroke-linecap:round;stroke-linejoin:miter;stroke-miterlimit:4;stroke-dasharray:none;stroke-opacity:1"
         d="m 18.933415,150.01176 c 20.679598,-17.581 17.567665,-12.39593 6.920031,0 v 27.68012 h -6.920031 z"
         id="path887"
         sodipodi:nodetypes="cccccc" />
      <path
         inkscape:export-ydpi="96"
         inkscape:export-xdpi="96"
         inkscape:export-filename="D:\Documents\Unity\arcadegame1\arcadegame1\Assets\sprites\boardTrails.png"
         inkscape:connector-curvature="0"
         style="opacity:1;fill:#c8c8c8;fill-opacity:1;stroke:#fffffb;stroke-width:4;stroke-linecap:round;stroke-linejoin:miter;stroke-miterlimit:4;stroke-dasharray:none;stroke-opacity:1"
         d="m 32.770797,177.69188 c -20.671586,17.57419 -17.560856,12.39114 -6.917351,0 v -27.66937 h 6.917351 z"
         id="path889"
         sodipodi:nodetypes="cccccc" />
    </g>
    <path
       style="fill:#f9ffff;fill-rule:nonzero;stroke:#000000;stroke-width:5;stroke-miterlimit:4;stroke-dasharray:none;fill-opacity:1"
       d="m -542.69455,421.45273 c -3.42135,5.11212 -8.41856,8.8929 -14.51914,10.88568 -8.96495,2.49754 -17.78588,1.25033 -24.99608,-3.13181 l 15.16126,-25.22882 c 0.51202,0.25852 1.30659,0.57664 0.917,0.34455 -0.59224,0.23942 -0.73944,0.29299 -0.91411,0.61737 z m -56.11051,-24.64918 c 0.46853,-7.95296 3.34328,-15.4366 8.23803,-21.59777 2.42938,-3.06501 5.23401,-5.75125 8.33398,-8.00934 l 17.29841,23.7894 c -0.97881,0.70778 -1.85425,1.53295 -2.54638,2.42612 -1.13599,1.48598 -1.96902,3.51713 -2.11286,5.24028 z m 48.59807,-37.13998 c 8.2557,1.28083 15.97279,4.77482 22.38019,10.11888 1.89463,1.58024 3.65933,3.2877 5.28464,5.10643 l -21.94065,19.56881 c -0.66467,-0.74882 -1.37776,-1.44027 -2.12981,-2.05839 -2.31543,-1.90123 -5.3129,-3.28524 -8.22135,-3.78894 z m 40.12721,43.65216 c 0.88493,10.46575 -1.31422,20.72131 -6.06467,29.66099 l -25.97381,-13.82088 c 2.1973,-4.11737 3.30965,-8.84406 2.80425,-13.07438 z m -26.68027,51.21193 c -7.05017,4.24742 -15.00389,6.97826 -23.36144,7.90338 -1.67713,0.15991 -3.35083,0.24928 -5.01743,0.26989 l -0.49,-29.32355 c 0.81005,-0.0208 1.61303,-0.0813 2.40525,-0.1834 3.87058,-0.37234 7.79821,-1.75391 11.28321,-3.85556 z m -56.70281,1.56578 c -4.56774,-2.31942 -8.84762,-5.21401 -12.72502,-8.62771 -3.4051,-3.00135 -6.46749,-6.33649 -9.14956,-9.93944 l 23.59782,-17.54495 c 1.4721,1.98439 3.13872,3.80684 4.96228,5.40137 1.99509,1.7481 4.25208,3.26447 6.65635,4.49302 z m -33.47567,-44.60867 c -0.43289,-2.16046 -0.757,-4.35098 -0.96799,-6.56397 -0.60712,-7.41776 0.0249,-14.77685 1.76632,-21.81483 l 28.47237,7.12604 c -1.02072,3.99819 -1.38343,8.09428 -0.95837,12.02585 0.0955,1.15691 0.26018,2.31635 0.48977,3.47075 z m 12.95095,-53.65064 c 1.06069,-1.3849 2.17579,-2.73145 3.3435,-4.03601 5.07965,-5.66777 11.00344,-10.46871 17.51195,-14.2566 l 14.79841,25.41346 c -3.89738,2.27153 -7.44815,5.13374 -10.39287,8.44039 -0.65947,0.73896 -1.29245,1.507 -1.89712,2.30047 z m 47.0921,-27.40675 c 1.34432,-0.19026 2.69703,-0.34274 4.05667,-0.45663 7.90858,-0.62278 15.85625,0.0432 23.51933,1.94731 l -7.08909,28.53155 c -4.60112,-1.14311 -9.40832,-1.5501 -14.09792,-1.17034 -0.77558,0.056 -1.55178,0.13729 -2.32711,0.24295 z m 52.57028,12.9281 c 2.69639,1.88463 5.2683,3.93818 7.69919,6.14537 4.3128,3.91495 8.1644,8.27924 11.4998,12.99454 l -24.01361,16.97314 c -2.11488,-2.99576 -4.54182,-5.75465 -7.22583,-8.17834 -1.5258,-1.37729 -3.13663,-2.66171 -4.81592,-3.838 z m 30.88457,43.58407 c 1.43355,5.06645 2.36957,10.29518 2.76678,15.61243 0.26566,3.79663 0.26081,7.60009 -0.009,11.3801 l -29.32223,-2.1004 c 0.17274,-2.40439 0.17569,-4.8162 0.004,-7.20516 -0.20811,-3.2403 -0.78647,-6.48634 -1.69382,-9.66435 z m -3.6625,53.27613 c -3.56619,8.25704 -8.42952,15.86247 -14.33458,22.53582 l -22.03488,-19.46901 c 3.88202,-4.4036 7.09427,-9.40058 9.38135,-14.71048 z m -34.86428,39.55954 c -7.6064,4.55282 -15.89484,7.95047 -24.5611,10.02389 l -6.84715,-28.55634 c 5.68902,-1.36864 11.22442,-3.65804 16.30196,-6.69916 z m -51.22933,12.08793 c -8.14671,-0.64598 -16.18606,-2.4241 -23.85819,-5.28847 -0.65292,-0.24502 -1.30252,-0.49741 -1.94871,-0.75705 l 10.93627,-27.28646 c 0.43308,0.17292 0.86788,0.34046 1.3043,0.50251 5.08341,1.90228 10.46797,3.09237 15.89385,3.52437 z m -48.63288,-19.31747 c -1.8455,-1.46258 -3.63457,-2.99479 -5.36277,-4.59263 -4.72353,-4.36693 -8.97184,-9.19752 -12.69072,-14.39373 l 23.91825,-17.10649 c 2.57134,3.59875 5.49434,6.93018 8.7148,9.89623 1.18815,1.09419 2.41741,2.14467 3.68334,3.14743 z m -30.2311,-42.18692 c -2.95837,-8.22308 -4.78819,-16.87804 -5.35094,-25.71435 l 29.34659,-1.76675 c 0.32539,5.91624 1.5856,11.83484 3.64209,17.50527 z m -3.27682,-51.87274 c 0.98763,-4.47648 2.29793,-8.88362 3.92358,-13.18167 1.47297,-3.87689 3.18717,-7.64578 5.1243,-11.28622 l 25.94459,13.81787 c -1.36253,2.55503 -2.5592,5.18745 -3.57174,7.87679 -1.12117,2.95855 -2.02745,6.00771 -2.71152,9.10771 z m 24.13918,-45.62943 c 0.004,-0.004 0.007,-0.008 0.0107,-0.0115 5.90627,-6.34545 12.59441,-11.89019 19.85488,-16.51886 l 15.8073,24.79852 c -5.1982,3.31285 -9.97716,7.26375 -14.12734,11.73732 -0.003,0.003 -0.005,0.005 -0.008,0.008 z m 43.25888,-27.58683 c 8.20368,-2.674 16.76972,-4.31481 25.48822,-4.80684 l 1.55754,29.35988 c -6.04073,0.29095 -12.08228,1.45229 -17.91475,3.36845 z"
       id="path5807"
       inkscape:path-effect="#path-effect5810"
       inkscape:original-d="m -561.67261,403.58929 c 0,-4.43456 5.9777,-2.18786 7.37054,0 3.77449,5.92895 -1.66001,12.92336 -7.37053,14.74108 -10.21477,3.25147 -20.04467,-5.00085 -22.11161,-14.74106 -3.03333,-14.29415 8.35662,-27.29298 22.11158,-29.48216 18.3332,-2.91783 34.59035,11.71372 36.8527,29.48212 2.84694,22.35971 -15.07048,41.91206 -36.85265,44.22324 -26.38112,2.79914 -49.24769,-18.42685 -51.59378,-44.22318 -2.76477,-30.40009 21.78294,-56.59203 51.59371,-58.96432 34.41772,-2.7389 63.94218,25.13885 66.33486,58.96424 2.71872,38.43455 -28.49465,71.2964 -66.33477,73.7054 -42.45089,2.70254 -78.65358,-31.85037 -81.07594,-73.7053 -2.68928,-46.46691 35.20603,-86.01298 81.07583,-88.44648" />
    <path
       inkscape:connector-curvature="0"
       id="path5812"
       d="m -375.8546,444.86163 v 3.6807 l 2.29095,1.32262 8.06659,4.65774 -8.06659,4.65666 -2.29095,1.32257 v 3.6807 l 8.36661,-4.82996 8.36661,-4.82997 -8.36661,-4.8311 z"
       style="opacity:1;fill:#c8c8c8;fill-opacity:1;stroke:#fffffb;stroke-width:3.38800001;stroke-linecap:round;stroke-linejoin:miter;stroke-miterlimit:4;stroke-dasharray:none;stroke-opacity:1" />
    <path
       inkscape:export-ydpi="96"
       inkscape:export-xdpi="96"
       inkscape:export-filename="D:\Documents\Unity\arcadegame1\arcadegame1\Assets\sprites\boardTrail3.png"
       inkscape:connector-curvature="0"
       style="opacity:1;fill:#e1c8c8;fill-opacity:1;stroke:#fffffb;stroke-width:7.23009825;stroke-linecap:round;stroke-linejoin:miter;stroke-miterlimit:4;stroke-dasharray:none;stroke-opacity:1"
       d="m -380.33224,411.36025 h 21.72102 v 19.60078 h -21.72102 z"
       id="path5828" />
    <path
       inkscape:export-ydpi="96"
       inkscape:export-xdpi="96"
       inkscape:export-filename="D:\Documents\Unity\arcadegame1\arcadegame1\Assets\sprites\boardTrails2.png"
       transform="matrix(2.927783,0,0,2.927783,127.41214,-343.31223)"
       inkscape:original-d="m 15.77812,87.754408 c 24.523013,0 37.764554,0 61.988094,0"
       inkscape:path-effect="#path-effect5821"
       sodipodi:nodetypes="cc"
       inkscape:connector-curvature="0"
       id="path5819"
       d="m 15.77812,84.544491 v 1.222997 l 0.507483,0.439458 1.786866,1.547641 -1.786866,1.547282 -0.507483,0.439458 v 1.222998 l 1.853331,-1.60487 1.85333,-1.604868 -1.85333,-1.605229 z m 5.106661,0 v 1.222997 l 0.507483,0.439458 1.786866,1.547641 -1.786866,1.547282 -0.507483,0.439458 v 1.222998 l 1.853331,-1.60487 1.85333,-1.604868 -1.85333,-1.605229 z m 5.106661,0 v 1.222997 l 0.507483,0.439458 1.786866,1.547641 -1.786866,1.547282 -0.507483,0.439458 v 1.222998 l 1.853331,-1.60487 1.85333,-1.604868 -1.85333,-1.605229 z m 5.106661,0 v 1.222997 l 0.507483,0.439458 1.786866,1.547641 -1.786866,1.547282 -0.507483,0.439458 v 1.222998 l 1.853331,-1.60487 1.85333,-1.604868 -1.85333,-1.605229 z m 5.106661,0 v 1.222997 l 0.507483,0.439458 1.786866,1.547641 -1.786866,1.547282 -0.507483,0.439458 v 1.222998 l 1.853331,-1.60487 1.85333,-1.604868 -1.85333,-1.605229 z m 5.106661,0 v 1.222997 l 0.507483,0.439458 1.786866,1.547641 -1.786866,1.547282 -0.507483,0.439458 v 1.222998 l 1.853331,-1.60487 1.85333,-1.604868 -1.85333,-1.605229 z m 5.106661,0 v 1.222997 l 0.507483,0.439458 1.786866,1.547641 -1.786866,1.547282 -0.507483,0.439458 v 1.222998 l 1.853331,-1.60487 1.85333,-1.604868 -1.85333,-1.605229 z m 5.106661,0 v 1.222997 l 0.507483,0.439458 1.786866,1.547641 -1.786866,1.547282 -0.507483,0.439458 v 1.222998 l 1.853331,-1.60487 1.85333,-1.604868 -1.85333,-1.605229 z m 5.106661,0 v 1.222997 l 0.507483,0.439458 1.786866,1.547641 -1.786866,1.547282 -0.507483,0.439458 v 1.222998 l 1.853331,-1.60487 1.85333,-1.604868 -1.85333,-1.605229 z m 5.106661,0 v 1.222997 l 0.507483,0.439458 1.786866,1.547641 -1.786866,1.547282 -0.507483,0.439458 v 1.222998 l 1.853331,-1.60487 1.85333,-1.604868 -1.85333,-1.605229 z m 5.106661,0 v 1.222997 l 0.507483,0.439458 1.786866,1.547641 -1.786866,1.547282 -0.507483,0.439458 v 1.222998 l 1.853331,-1.60487 1.85333,-1.604868 -1.85333,-1.605229 z m 5.106661,0 v 1.222997 l 0.507483,0.439458 1.786866,1.547641 -1.786866,1.547282 -0.507483,0.439458 v 1.222998 l 1.853331,-1.60487 1.85333,-1.604868 -1.85333,-1.605229 z"
       style="fill:#d9dcda;fill-opacity:1;stroke:#fffffd;stroke-width:1;stroke-linecap:round;stroke-linejoin:miter;stroke-miterlimit:4;stroke-dasharray:none;stroke-opacity:1" />
    <path
       inkscape:export-ydpi="96"
       inkscape:export-xdpi="96"
       inkscape:export-filename="D:\Documents\Unity\arcadegame1\arcadegame1\Assets\sprites\boardTrails3.png"
       inkscape:original-d="m 14.441772,108.60143 c 24.224676,0 43.217162,0 61.988094,0"
       inkscape:path-effect="#path-effect5825"
       sodipodi:nodetypes="cc"
       inkscape:connector-curvature="0"
       id="path5823"
       d="m 14.441772,105.5716 h 3.422391 v 6.05966 h -3.422391 z m 5.822391,0 h 3.422391 v 6.05966 h -3.422391 z m 5.822391,0 h 3.422391 v 6.05966 h -3.422391 z m 5.822391,0 h 3.422391 v 6.05966 h -3.422391 z m 5.822391,0 h 3.422391 v 6.05966 h -3.422391 z m 5.822391,0 h 3.422391 v 6.05966 h -3.422391 z m 5.822391,0 h 3.422391 v 6.05966 h -3.422391 z m 5.822391,0 H 58.6209 v 6.05966 h -3.422391 z m 5.822391,0 h 3.422391 v 6.05966 H 61.0209 Z m 5.822391,0 h 3.422391 v 6.05966 h -3.422391 z m 5.822391,0 h 3.422391 v 6.05966 h -3.422391 z"
       style="fill:none;stroke:#fcffff;stroke-width:0.90990353;stroke-linecap:round;stroke-linejoin:miter;stroke-miterlimit:4;stroke-dasharray:none;stroke-opacity:1"
       transform="matrix(2.927783,0,0,2.927783,129.12501,-346.62444)" />
    <g
       id="g5839"
       inkscape:export-filename="D:\Documents\Unity\arcadegame1\arcadegame1\Assets\sprites\boardTrails4.png"
       inkscape:export-xdpi="96"
       inkscape:export-ydpi="96">
      <path
         transform="matrix(2.927783,0,0,2.927783,133.18986,-285.98097)"
         style="fill:none;stroke:#fcffff;stroke-width:0.68311071;stroke-linecap:round;stroke-linejoin:miter;stroke-miterlimit:4;stroke-dasharray:none;stroke-opacity:1"
         d="m 17.975368,110.04142 c -4.791195,3.0957 -4.0702,2.1827 -1.603282,0 v -4.87397 h 1.603282 z m 5.533597,0 c -4.791195,3.0957 -4.0702,2.1827 -1.603282,0 v -4.87397 h 1.603282 z m 5.533596,0 c -4.791195,3.0957 -4.0702,2.1827 -1.603282,0 v -4.87397 h 1.603282 z m 5.533596,0 c -4.791195,3.0957 -4.0702,2.1827 -1.603282,0 v -4.87397 h 1.603282 z m 5.533597,0 c -4.791195,3.0957 -4.0702,2.1827 -1.603282,0 v -4.87397 h 1.603282 z m 5.533596,0 c -4.791195,3.0957 -4.0702,2.1827 -1.603282,0 v -4.87397 h 1.603282 z m 5.533596,0 c -4.791195,3.0957 -4.0702,2.1827 -1.603282,0 v -4.87397 h 1.603282 z m 5.533597,0 c -4.791195,3.0957 -4.0702,2.1827 -1.603282,0 v -4.87397 h 1.603282 z m 5.533596,0 c -4.791195,3.0957 -4.0702,2.1827 -1.603282,0 v -4.87397 h 1.603282 z m 5.533596,0 c -4.791195,3.0957 -4.0702,2.1827 -1.603282,0 v -4.87397 h 1.603282 z m 5.533597,0 c -4.791195,3.0957 -4.0702,2.1827 -1.603282,0 v -4.87397 h 1.603282 z"
         id="path5829"
         inkscape:connector-curvature="0"
         sodipodi:nodetypes="cc"
         inkscape:path-effect="#path-effect5831"
         inkscape:original-d="m 14.441772,108.60143 c 24.224676,0 43.217162,0 61.988094,0"
         inkscape:export-filename="D:\Documents\Unity\arcadegame1\arcadegame1\Assets\sprites\boards.png"
         inkscape:export-xdpi="96"
         inkscape:export-ydpi="96" />
      <path
         transform="matrix(2.927783,0,0,2.927783,133.16781,-291.81731)"
         style="fill:none;stroke:#fcffff;stroke-width:0.68311071;stroke-linecap:round;stroke-linejoin:miter;stroke-miterlimit:4;stroke-dasharray:none;stroke-opacity:1"
         d="m 14.441772,107.16088 c 4.793052,-3.0969 4.071778,-2.18355 1.603903,0 v 4.87586 h -1.603903 z m 5.534966,0 c 4.793052,-3.0969 4.071778,-2.18355 1.603903,0 v 4.87586 h -1.603903 z m 5.534966,0 c 4.793052,-3.0969 4.071778,-2.18355 1.603903,0 v 4.87586 h -1.603903 z m 5.534966,0 c 4.793052,-3.0969 4.071778,-2.18355 1.603903,0 v 4.87586 H 31.04667 Z m 5.534966,0 c 4.793052,-3.0969 4.071778,-2.18355 1.603903,0 v 4.87586 h -1.603903 z m 5.534966,0 c 4.793052,-3.0969 4.071778,-2.18355 1.603903,0 v 4.87586 h -1.603903 z m 5.534966,0 c 4.793052,-3.0969 4.071778,-2.18355 1.603903,0 v 4.87586 h -1.603903 z m 5.534966,0 c 4.793052,-3.0969 4.071778,-2.18355 1.603903,0 v 4.87586 h -1.603903 z m 5.534966,0 c 4.793052,-3.0969 4.071778,-2.18355 1.603903,0 v 4.87586 H 58.7215 Z m 5.534966,0 c 4.793052,-3.0969 4.071778,-2.18355 1.603903,0 v 4.87586 h -1.603903 z m 5.534966,0 c 4.793052,-3.0969 4.071778,-2.18355 1.603903,0 v 4.87586 h -1.603903 z"
         id="path5833"
         inkscape:connector-curvature="0"
         sodipodi:nodetypes="cc"
         inkscape:path-effect="#path-effect5835"
         inkscape:original-d="m 14.441772,108.60143 c 24.224676,0 43.217162,0 61.988094,0"
         inkscape:export-filename="D:\Documents\Unity\arcadegame1\arcadegame1\Assets\sprites\boards.png"
         inkscape:export-xdpi="96"
         inkscape:export-ydpi="96" />
    </g>
    <path
       transform="matrix(0,0.53256454,-0.53256454,0,-42.414486,293.73715)"
       d="M 810.70253,90.74276 A 182.30659,182.30659 0 0 1 697.26074,259.54244 182.30659,182.30659 0 0 1 498.11556,218.26812 182.30659,182.30659 0 0 1 461.10647,18.286368 182.30659,182.30659 0 0 1 632.2919,-91.522201"
       sodipodi:open="true"
       sodipodi:end="4.733761"
       sodipodi:start="0"
       sodipodi:ry="182.30659"
       sodipodi:rx="182.30659"
       sodipodi:cy="90.74276"
       sodipodi:cx="628.39594"
       sodipodi:type="arc"
       style="opacity:1;fill:none;fill-opacity:1;stroke:#b8a804;stroke-width:30;stroke-linecap:round;stroke-linejoin:round;stroke-miterlimit:4;stroke-dasharray:none;stroke-opacity:1"
       id="path913" />
    <rect
       style="opacity:1;fill:#d7c514;fill-opacity:1;stroke:none;stroke-width:14.63891506;stroke-linecap:square;stroke-linejoin:miter;stroke-miterlimit:4;stroke-dasharray:none;stroke-opacity:1"
       id="rect2430-73"
       width="181.4877"
       height="33.198971"
       x="-90.664261"
       y="611.81476" />
    <circle
       style="opacity:1;fill:#d50000;fill-opacity:1;stroke:none;stroke-width:14.76193237;stroke-linecap:square;stroke-linejoin:miter;stroke-miterlimit:4;stroke-dasharray:none;stroke-opacity:1"
       id="path2432-99"
       cx="-90.743851"
       cy="628.41418"
       r="16.599485" />
    <circle
       r="16.599485"
       cy="628.41418"
       cx="90.743843"
       id="circle2434-1"
       style="opacity:1;fill:#d5d5d5;fill-opacity:1;stroke:none;stroke-width:14.76193237;stroke-linecap:square;stroke-linejoin:miter;stroke-miterlimit:4;stroke-dasharray:none;stroke-opacity:1" />
    <circle
       style="opacity:1;fill:#ffb407;fill-opacity:0.45490196;stroke:none;stroke-width:35.38677216;stroke-linecap:square;stroke-linejoin:miter;stroke-miterlimit:4;stroke-dasharray:none;stroke-opacity:1"
       id="circle911"
       cx="91.703529"
       cy="625.7326"
       r="39.791695" />
    <path
       id="circle954"
       style="opacity:1;fill:#d5110e;fill-opacity:1;stroke:#ffb608;stroke-width:15;stroke-linecap:round;stroke-linejoin:round;stroke-miterlimit:4;stroke-dasharray:none;stroke-opacity:0.45418331"
       sodipodi:type="arc"
       sodipodi:cx="628.39594"
       sodipodi:cy="90.74276"
       sodipodi:rx="182.30659"
       sodipodi:ry="182.30659"
       sodipodi:start="0"
       sodipodi:end="4.733761"
       sodipodi:open="true"
       d="m 632.64785,-122.97409 c -9.54985,-0.10713 -18.95342,0.63115 -28.07462,2.13292 l -0.0225,-0.18571 c -74.12276,11.47215 -138.14335,61.927768 -165.43168,129.7900506 0,1.49e-5 0,2.97e-5 10e-6,4.46e-5 -29.82768,76.7945018 -9.2484,165.9624248 47.581,220.6790148 57.29475,54.26108 144.72173,68.28621 213.57775,37.49566 2e-5,-2e-5 3e-5,-2e-5 4e-5,-10e-6 68.73304,-31.09205 113.08722,-104.27872 110.42489,-176.19512 -2.66236,71.9164 -52.01565,138.16496 -116.45897,161.40453 -10e-6,-1e-5 -2e-5,-1e-5 -3e-5,-1e-5 -64.32033,23.54103 -141.39509,3.47188 -184.71279,-45.05314 -43.78304,-48.0695 -53.77469,-124.094343 -26.43713,-179.284584 2e-5,-10e-6 1e-5,-2.1e-5 1e-5,-3.2e-5 23.48451,-49.36348 76.69064,-83.570686 128.90295,-87.413628 l -0.0214,-0.176298 c 6.53186,-0.394529 13.07342,-0.510516 19.64511,-0.294035 0.37626,-20.967495 0.7187,-41.934063 1.02735,-62.899653 z"
       transform="rotate(90)"
       inkscape:path-effect="#path-effect990" />
    <path
       style="opacity:1;fill:none;fill-opacity:1;stroke:#000000;stroke-width:90;stroke-linecap:round;stroke-linejoin:round;stroke-miterlimit:4;stroke-dasharray:none;stroke-opacity:0.4541833"
       d="m 2646.3457,2435.7188 c -10.1453,0.056 -20.2629,1.0668 -30.2187,3.0195 v -0.9649 l -1062.4297,159.5684 1062.4297,159.5703 v -0.916 c 10.0682,1.9576 20.2999,2.9523 30.5566,2.9707 z"
       transform="scale(0.26458333)"
       id="path981"
       inkscape:connector-curvature="0"
       sodipodi:nodetypes="cccccccc" />
    <circle
       r="24.752728"
       cy="625.02264"
       cx="91.463943"
       id="circle927"
       style="opacity:1;fill:#d50000;fill-opacity:1;stroke:#e85b0b;stroke-width:5;stroke-linecap:square;stroke-linejoin:miter;stroke-miterlimit:4;stroke-dasharray:none;stroke-opacity:1" />
    <path
       sodipodi:nodetypes="cscssc"
       inkscape:connector-curvature="0"
       id="path926"
       d="m -792.86582,142.50533 c 14.12597,10.15745 13.65761,18.91336 28.15661,18.90932 14.49899,-0.004 21.09777,-38.40347 41.23158,-38.5284 21.00171,0 30.01408,38.56018 45.45308,38.56018 15.90662,0 20.64935,-38.26729 36.31392,-38.49729 16.39737,-0.24075 16.19376,9.25254 30.33249,19.55619"
       style="fill:none;stroke:#ffffff;stroke-width:8.78334904;stroke-linecap:round;stroke-linejoin:miter;stroke-miterlimit:4;stroke-dasharray:none;stroke-opacity:0.97368421" />
    <path
       sodipodi:nodetypes="ccc"
       inkscape:connector-curvature="0"
       id="path936"
       d="m -264.97941,223.97285 2.42142,-3.78126 2.42142,-3.78127 2.42142,-3.78127 c 6.51499,4.14827 13.25134,7.70901 20.2517,10.035 6.22817,2.08368 12.74439,3.23346 19.20313,3.22066 6.78194,0.0207 13.681,-1.24122 20.43749,-3.28822 l 1e-5,0 c 8.05999,-2.44283 15.90374,-6.06957 23.62321,-10.21033 8.30328,-4.66837 17.10219,-8.84214 26.48609,-11.85411 7.93656,-2.55796 16.36282,-4.15639 25.01097,-4.2303 17.16996,0.0669 33.312383,6.67077 46.522284,16.34384 -13.209901,-9.67307 -29.352324,-16.27692 -46.522284,-16.34384 -8.64815,0.0739 -17.07441,1.67234 -25.01097,4.2303 -9.3839,3.01197 -18.18281,7.18573 -26.48608,11.85411 l -1e-5,0 c -7.71947,4.14076 -15.56322,7.7675 -23.62321,10.21033 0,0 0,0 -1e-5,0 -6.75649,2.047 -13.65555,3.30895 -20.43749,3.28822 -6.45874,0.0128 -12.97496,-1.13698 -19.20313,-3.22066 -6.95332,-2.31036 -13.64618,-5.83894 -20.12035,-9.95146 l -2.04904,3.208 c 6.65377,4.23944 13.62585,7.90149 20.95801,10.35189 6.59249,2.20983 13.51286,3.42558 20.41557,3.41857 7.23552,0.008 14.50536,-1.309 21.54983,-3.4547 l 0,-10e-6 c 8.39337,-2.55697 16.47686,-6.285 24.34243,-10.51419 8.17015,-4.58404 16.74425,-8.66118 25.81166,-11.56425 7.64982,-2.4541 15.6971,-3.99238 23.87403,-4.04987 16.00429,-0.0146 31.281324,6.24971 43.970444,15.40598 -12.68912,-9.15627 -27.966154,-15.42061 -43.970444,-15.40598 -8.17693,0.0575 -16.22421,1.59577 -23.87403,4.04987 -9.0674,2.90307 -17.6415,6.98021 -25.81165,11.56424 l -1e-5,1e-5 c -7.86557,4.22919 -15.94906,7.95722 -24.34243,10.51419 l 0,10e-6 c -7.04447,2.1457 -14.31431,3.46314 -21.54983,3.4547 -6.90271,0.007 -13.82308,-1.20874 -20.41557,-3.41857 -7.22487,-2.41454 -14.10011,-6.00554 -20.66571,-10.16616 l -1.95967,3.0854 c 6.73826,4.28087 13.87905,7.99823 21.46233,10.54526 6.94227,2.33095 14.25067,3.61003 21.57964,3.60858 7.671,-0.003 15.29683,-1.37408 22.61779,-3.61454 l 10e-6,0 c 8.71344,-2.66657 17.0271,-6.49185 25.03295,-10.80596 8.04234,-4.50305 16.4006,-8.48743 25.16414,-11.28593 7.37451,-2.35438 15.05793,-3.83492 22.78243,-3.87664 15.16525,-0.0934 29.866981,6.06644 42.18773,14.98895 -12.320749,-8.92251 -27.02248,-15.08231 -42.18773,-14.98895 -7.7245,0.0417 -15.40792,1.52226 -22.78243,3.87664 -8.76354,2.7985 -17.1218,6.78288 -25.16414,11.28593 -8.00585,4.31411 -16.31951,8.13939 -25.03295,10.80596 l -10e-6,0 c -7.32096,2.24046 -14.94679,3.61119 -22.61779,3.61454 -7.32897,0.001 -14.63737,-1.27763 -21.57964,-3.60858 -7.73343,-2.59746 -15.00668,-6.41206 -21.86212,-10.80021 l -1.86037,2.90721 c 7.01821,4.50374 14.54544,8.43993 22.62406,11.16498 7.27262,2.44534 14.94748,3.78425 22.67903,3.78804 8.08229,-0.0145 16.04433,-1.43554 23.62642,-3.7655 9.01574,-2.77007 17.54678,-6.6872 25.68511,-11.0815 l 0,0 c 7.92163,-4.42657 16.07604,-8.32333 24.5526,-11.02309 7.1145,-2.26019 14.45427,-3.6862 21.75149,-3.71304 14.1478,-0.1667 28.097119,5.71293 39.959774,14.20175 -11.862655,-8.48882 -25.811974,-14.36845 -39.959774,-14.20175 -7.29722,0.0268 -14.63699,1.45285 -21.75149,3.71304 -8.47656,2.69976 -16.63097,6.59652 -24.55259,11.02309 l -1e-5,0 c -8.13833,4.3943 -16.66937,8.31143 -25.68511,11.0815 0,0 0,0 -10e-6,0 -7.58209,2.32996 -15.54412,3.75101 -23.62641,3.7655 -7.73155,-0.004 -15.40641,-1.3427 -22.67903,-3.78804 -8.04681,-2.71432 -15.54656,-6.63026 -22.54113,-11.11181 l -1.75028,2.73932 c 7.14792,4.59002 14.88626,8.62005 23.2569,11.45407 7.58375,2.55308 15.60375,3.94832 23.71445,3.95705 8.46964,-0.025 16.74831,-1.49342 24.57633,-3.90767 1e-5,0 1e-5,0 1e-5,0 9.30044,-2.86755 18.03622,-6.87119 26.29932,-11.341 7.80794,-4.35455 15.77037,-8.1688 23.97664,-10.77555 6.86963,-2.17149 13.88575,-3.54614 20.78054,-3.55896 13.4043,-0.23875 26.856259,5.5611 38.406572,13.85111"
       style="fill:none;stroke:#ffffff;stroke-width:1.5;stroke-linecap:round;stroke-linejoin:miter;stroke-miterlimit:4;stroke-dasharray:none;stroke-opacity:0.97368421"
       inkscape:path-effect="#path-effect975"
       inkscape:original-d="m -261.534,218.59254 c 29.95285,19.18098 55.20095,19.14865 90.74384,0 35.62467,-19.95124 62.46638,-20.60731 90.743843,0"
       inkscape:export-filename="D:\Documents\Unity\arcadegame1\arcadegame1\Assets\sprites\boards.png"
       inkscape:export-xdpi="96"
       inkscape:export-ydpi="96" />
    <circle
       style="opacity:1;fill:#d5d5d5;fill-opacity:1;stroke:none;stroke-width:8.4989748;stroke-linecap:square;stroke-linejoin:miter;stroke-miterlimit:4;stroke-dasharray:none;stroke-opacity:1"
       id="circle928"
       cx="-261.534"
       cy="218.40988"
       r="9.5569191"
       inkscape:export-filename="D:\Documents\Unity\arcadegame1\arcadegame1\Assets\sprites\boards.png"
       inkscape:export-xdpi="96"
       inkscape:export-ydpi="96" />
    <circle
       style="opacity:1;fill:#d5d5d5;fill-opacity:1;stroke:none;stroke-width:8.4989748;stroke-linecap:square;stroke-linejoin:miter;stroke-miterlimit:4;stroke-dasharray:none;stroke-opacity:1"
       id="circle930"
       cx="-80.046318"
       cy="218.40988"
       r="9.5569201"
       inkscape:export-filename="D:\Documents\Unity\arcadegame1\arcadegame1\Assets\sprites\boards.png"
       inkscape:export-xdpi="96"
       inkscape:export-ydpi="96" />
    <path
       style="fill:none;stroke:#000000;stroke-width:0.26458332px;stroke-linecap:butt;stroke-linejoin:miter;stroke-opacity:1"
       d="m -42.763125,224.03542 v -5.61266 -5.61266 -5.61266 h 19.293436 -19.277056 v 4.75792 h 19.24135 -19.205915 v 4.56814 h 19.251568 -19.298815 v 4.3143 h 19.275396 -19.265814 v 4.06324 h 19.314451"
       id="path1008"
       inkscape:connector-curvature="0"
       sodipodi:nodetypes="ccccccccccccccccc" />
    <path
       inkscape:original-d="m -261.534,218.59254 c 29.95285,19.18098 55.20095,19.14865 90.74384,0 35.62467,-19.95124 62.46638,-20.60731 90.743843,0"
       inkscape:path-effect="#path-effect1026"
       style="fill:none;stroke:#ffffff;stroke-width:1.5;stroke-linecap:round;stroke-linejoin:miter;stroke-miterlimit:4;stroke-dasharray:none;stroke-opacity:0.97368421"
       d="m -264.97941,223.97285 2.42142,-3.78126 2.42142,-3.78127 2.42142,-3.78127 c 6.51499,4.14827 13.25134,7.70901 20.2517,10.035 6.22817,2.08368 12.74439,3.23346 19.20313,3.22066 6.78194,0.0207 13.681,-1.24122 20.43749,-3.28822 l 1e-5,0 c 8.05999,-2.44283 15.90374,-6.06957 23.62321,-10.21033 8.30328,-4.66837 17.10219,-8.84214 26.48609,-11.85411 7.93656,-2.55796 16.36282,-4.15639 25.01097,-4.2303 17.16996,0.0669 33.312383,6.67077 46.522284,16.34384 -13.209901,-9.67307 -29.352324,-16.27692 -46.522284,-16.34384 -8.64815,0.0739 -17.07441,1.67234 -25.01097,4.2303 -9.3839,3.01197 -18.18281,7.18573 -26.48608,11.85411 l -1e-5,0 c -7.71947,4.14076 -15.56322,7.7675 -23.62321,10.21033 0,0 0,0 -1e-5,0 -6.75649,2.047 -13.65555,3.30895 -20.43749,3.28822 -6.45874,0.0128 -12.97496,-1.13698 -19.20313,-3.22066 -6.95332,-2.31036 -13.64618,-5.83894 -20.12035,-9.95146 l -2.04904,3.208 c 6.65377,4.23944 13.62585,7.90149 20.95801,10.35189 6.59249,2.20983 13.51286,3.42558 20.41557,3.41857 7.23552,0.008 14.50536,-1.309 21.54983,-3.4547 l 0,-10e-6 c 8.39337,-2.55697 16.47686,-6.285 24.34243,-10.51419 8.17015,-4.58404 16.74425,-8.66118 25.81166,-11.56425 7.64982,-2.4541 15.6971,-3.99238 23.87403,-4.04987 16.00429,-0.0146 31.281324,6.24971 43.970444,15.40598 -12.68912,-9.15627 -27.966154,-15.42061 -43.970444,-15.40598 -8.17693,0.0575 -16.22421,1.59577 -23.87403,4.04987 -9.0674,2.90307 -17.6415,6.98021 -25.81165,11.56424 l -1e-5,1e-5 c -7.86557,4.22919 -15.94906,7.95722 -24.34243,10.51419 l 0,10e-6 c -7.04447,2.1457 -14.31431,3.46314 -21.54983,3.4547 -6.90271,0.007 -13.82308,-1.20874 -20.41557,-3.41857 -7.22487,-2.41454 -14.10011,-6.00554 -20.66571,-10.16616 l -1.95967,3.0854 c 6.73826,4.28087 13.87905,7.99823 21.46233,10.54526 6.94227,2.33095 14.25067,3.61003 21.57964,3.60858 7.671,-0.003 15.29683,-1.37408 22.61779,-3.61454 l 10e-6,0 c 8.71344,-2.66657 17.0271,-6.49185 25.03295,-10.80596 8.04234,-4.50305 16.4006,-8.48743 25.16414,-11.28593 7.37451,-2.35438 15.05793,-3.83492 22.78243,-3.87664 15.16525,-0.0934 29.866981,6.06644 42.18773,14.98895 -12.320749,-8.92251 -27.02248,-15.08231 -42.18773,-14.98895 -7.7245,0.0417 -15.40792,1.52226 -22.78243,3.87664 -8.76354,2.7985 -17.1218,6.78288 -25.16414,11.28593 -8.00585,4.31411 -16.31951,8.13939 -25.03295,10.80596 l -10e-6,0 c -7.32096,2.24046 -14.94679,3.61119 -22.61779,3.61454 -7.32897,0.001 -14.63737,-1.27763 -21.57964,-3.60858 -7.73343,-2.59746 -15.00668,-6.41206 -21.86212,-10.80021 l -1.86037,2.90721 c 7.01821,4.50374 14.54544,8.43993 22.62406,11.16498 7.27262,2.44534 14.94748,3.78425 22.67903,3.78804 8.08229,-0.0145 16.04433,-1.43554 23.62642,-3.7655 9.01574,-2.77007 17.54678,-6.6872 25.68511,-11.0815 l 0,0 c 7.92163,-4.42657 16.07604,-8.32333 24.5526,-11.02309 7.1145,-2.26019 14.45427,-3.6862 21.75149,-3.71304 14.1478,-0.1667 28.097119,5.71293 39.959774,14.20175 -11.862655,-8.48882 -25.811974,-14.36845 -39.959774,-14.20175 -7.29722,0.0268 -14.63699,1.45285 -21.75149,3.71304 -8.47656,2.69976 -16.63097,6.59652 -24.55259,11.02309 l -1e-5,0 c -8.13833,4.3943 -16.66937,8.31143 -25.68511,11.0815 0,0 0,0 -10e-6,0 -7.58209,2.32996 -15.54412,3.75101 -23.62641,3.7655 -7.73155,-0.004 -15.40641,-1.3427 -22.67903,-3.78804 -8.04681,-2.71432 -15.54656,-6.63026 -22.54113,-11.11181 l -1.75028,2.73932 c 7.14792,4.59002 14.88626,8.62005 23.2569,11.45407 7.58375,2.55308 15.60375,3.94832 23.71445,3.95705 8.46964,-0.025 16.74831,-1.49342 24.57633,-3.90767 1e-5,0 1e-5,0 1e-5,0 9.30044,-2.86755 18.03622,-6.87119 26.29932,-11.341 7.80794,-4.35455 15.77037,-8.1688 23.97664,-10.77555 6.86963,-2.17149 13.88575,-3.54614 20.78054,-3.55896 13.4043,-0.23875 26.856259,5.5611 38.406572,13.85111"
       id="path1024"
       inkscape:connector-curvature="0"
       sodipodi:nodetypes="ccc"
       transform="translate(429.7694,-132.56569)"
       inkscape:export-filename="D:\Documents\Unity\arcadegame1\arcadegame1\Assets\sprites\trail6.png"
       inkscape:export-xdpi="96"
       inkscape:export-ydpi="96" />
    <circle
       style="opacity:1;fill:#d5d5d5;fill-opacity:1;stroke:none;stroke-width:14.76193142;stroke-linecap:square;stroke-linejoin:miter;stroke-miterlimit:4;stroke-dasharray:none;stroke-opacity:1"
       id="circle1028"
       cx="-261.534"
       cy="280.39798"
       r="16.599483"
       inkscape:export-filename="D:\Documents\Unity\arcadegame1\arcadegame1\Assets\sprites\boards.png"
       inkscape:export-xdpi="96"
       inkscape:export-ydpi="96" />
    <circle
       r="16.599483"
       cy="280.39798"
       cx="-80.046318"
       id="circle1030"
       style="opacity:1;fill:#d5d5d5;fill-opacity:1;stroke:none;stroke-width:14.76193142;stroke-linecap:square;stroke-linejoin:miter;stroke-miterlimit:4;stroke-dasharray:none;stroke-opacity:1"
       inkscape:export-filename="D:\Documents\Unity\arcadegame1\arcadegame1\Assets\sprites\boards.png"
       inkscape:export-xdpi="96"
       inkscape:export-ydpi="96" />
    <path
       inkscape:original-d="m -261.534,218.59254 c 29.95285,19.18098 55.20095,19.14865 90.74384,0 35.62467,-19.95124 62.46638,-20.60731 90.743843,0"
       inkscape:path-effect="#path-effect1034"
       style="fill:none;stroke:#ffffff;stroke-width:5;stroke-linecap:round;stroke-linejoin:miter;stroke-miterlimit:4;stroke-dasharray:none;stroke-opacity:0.97368421"
       d="m -233.40586,237.22507 c -1.94112,-4.45104 -3.40574,-8.96681 -4.42569,-13.46454 -0.0427,-0.18617 -0.0848,-0.37231 -0.12611,-0.55842 -3.67123,3.09208 -7.71892,5.89705 -12.03618,8.44587 -1.26949,-5.05484 -2.07972,-10.08393 -2.56993,-15.06223 -3.96797,2.64591 -8.13716,5.10894 -12.42927,7.4084 m 66.19648,12.34925 c -3.82003,-3.27599 -7.31607,-6.77732 -10.37396,-10.47321 -1.85401,4.42184 -4.1465,8.76652 -6.967,12.95904 -0.7313,-0.84515 -1.4384,-1.70145 -2.11991,-2.56858 -2.52763,-3.2172 -4.67892,-6.57358 -6.47439,-10.01128 -2.51346,3.99803 -5.45754,7.84175 -8.78283,11.47924 m 65.86759,-14.13462 c -0.18695,-0.10091 -0.37411,-0.20157 -0.56147,-0.302 -4.24065,-2.16999 -8.38706,-4.45727 -12.36993,-6.88743 -0.51915,4.81765 -1.2458,9.66515 -2.26312,14.53584 -4.53256,-2.53028 -8.84487,-5.26959 -12.83846,-8.25732 -0.21939,1.49188 -0.46711,2.98612 -0.7451,4.48264 -0.59724,3.22011 -1.33876,6.45148 -2.24591,9.67766 m 59.3125,-25.22232 c -2.09872,-1.99717 -4.32482,-3.91851 -6.65213,-5.75805 -1.55241,-1.22859 -3.14691,-2.4241 -4.7787,-3.5883 -1.32903,4.82362 -2.3306,9.63995 -3.08336,14.44243 -4.28439,-2.59215 -8.79935,-4.97799 -13.4516,-7.19446 -0.18542,4.87621 -0.19151,9.71809 -0.0754,14.52319 m 57.06475,-13.40685 c -1.48965,-4.53094 -3.49889,-9.00661 -6.10629,-13.35813 -2.33251,2.63243 -4.41355,5.39167 -6.20964,8.26788 -0.78509,1.24805 -1.52141,2.51019 -2.21167,3.78435 -2.94767,-3.95879 -6.47562,-7.68279 -10.43066,-11.14114 -1.68807,4.61314 -2.97543,9.27297 -3.93464,13.92782 m 55.707352,11.24028 c 0.344349,-4.80898 0.361642,-9.77009 -0.0267,-14.81441 -4.619578,2.02999 -8.997641,4.37259 -13.035147,6.99868 -0.789917,-4.92252 -2.058388,-9.8812 -3.901777,-14.78694 -3.69395,3.24604 -7.03919,6.71429 -9.96485,10.38077"
       id="path1032"
       inkscape:connector-curvature="0"
       sodipodi:nodetypes="ccc"
       transform="translate(0,61.988095)"
       inkscape:export-filename="D:\Documents\Unity\arcadegame1\arcadegame1\Assets\sprites\boards.png"
       inkscape:export-xdpi="96"
       inkscape:export-ydpi="96" />
    <circle
       r="9.5569191"
       cy="280.39798"
       cx="-261.534"
       id="circle1036"
       style="opacity:1;fill:#d5d5d5;fill-opacity:1;stroke:none;stroke-width:8.4989748;stroke-linecap:square;stroke-linejoin:miter;stroke-miterlimit:4;stroke-dasharray:none;stroke-opacity:1"
       inkscape:export-filename="D:\Documents\Unity\arcadegame1\arcadegame1\Assets\sprites\boards.png"
       inkscape:export-xdpi="96"
       inkscape:export-ydpi="96" />
    <circle
       r="9.5569201"
       cy="280.39798"
       cx="-80.046318"
       id="circle1038"
       style="opacity:1;fill:#d5d5d5;fill-opacity:1;stroke:none;stroke-width:8.4989748;stroke-linecap:square;stroke-linejoin:miter;stroke-miterlimit:4;stroke-dasharray:none;stroke-opacity:1"
       inkscape:export-filename="D:\Documents\Unity\arcadegame1\arcadegame1\Assets\sprites\boards.png"
       inkscape:export-xdpi="96"
       inkscape:export-ydpi="96" />
    <path
       sodipodi:nodetypes="csccc"
       inkscape:connector-curvature="0"
       id="path1040"
       d="m -23.948054,271.90526 -7.105987,-12.31337 -7.063667,12.31337 -7.957695,-12.2533 -5.928911,12.76839"
       style="fill:none;stroke:#000000;stroke-width:0.478;stroke-linecap:butt;stroke-linejoin:miter;stroke-opacity:1;stroke-miterlimit:4;stroke-dasharray:none" />
    <path
       transform="translate(425.06545,-57.748653)"
       sodipodi:nodetypes="ccc"
       inkscape:connector-curvature="0"
       id="path1077"
       d="m -233.40586,237.22507 c -1.94112,-4.45104 -3.40574,-8.96681 -4.42569,-13.46454 -0.0427,-0.18617 -0.0848,-0.37231 -0.12611,-0.55842 -3.67123,3.09208 -7.71892,5.89705 -12.03618,8.44587 -1.26949,-5.05484 -2.07972,-10.08393 -2.56993,-15.06223 -3.96797,2.64591 -8.13716,5.10894 -12.42927,7.4084 m 66.19648,12.34925 c -3.82003,-3.27599 -7.31607,-6.77732 -10.37396,-10.47321 -1.85401,4.42184 -4.1465,8.76652 -6.967,12.95904 -0.7313,-0.84515 -1.4384,-1.70145 -2.11991,-2.56858 -2.52763,-3.2172 -4.67892,-6.57358 -6.47439,-10.01128 -2.51346,3.99803 -5.45754,7.84175 -8.78283,11.47924 m 65.86759,-14.13462 c -0.18695,-0.10091 -0.37411,-0.20157 -0.56147,-0.302 -4.24065,-2.16999 -8.38706,-4.45727 -12.36993,-6.88743 -0.51915,4.81765 -1.2458,9.66515 -2.26312,14.53584 -4.53256,-2.53028 -8.84487,-5.26959 -12.83846,-8.25732 -0.21939,1.49188 -0.46711,2.98612 -0.7451,4.48264 -0.59724,3.22011 -1.33876,6.45148 -2.24591,9.67766 m 59.3125,-25.22232 c -2.09872,-1.99717 -4.32482,-3.91851 -6.65213,-5.75805 -1.55241,-1.22859 -3.14691,-2.4241 -4.7787,-3.5883 -1.32903,4.82362 -2.3306,9.63995 -3.08336,14.44243 -4.28439,-2.59215 -8.79935,-4.97799 -13.4516,-7.19446 -0.18542,4.87621 -0.19151,9.71809 -0.0754,14.52319 m 57.06475,-13.40685 c -1.48965,-4.53094 -3.49889,-9.00661 -6.10629,-13.35813 -2.33251,2.63243 -4.41355,5.39167 -6.20964,8.26788 -0.78509,1.24805 -1.52141,2.51019 -2.21167,3.78435 -2.94767,-3.95879 -6.47562,-7.68279 -10.43066,-11.14114 -1.68807,4.61314 -2.97543,9.27297 -3.93464,13.92782 m 55.707352,11.24028 c 0.344349,-4.80898 0.361642,-9.77009 -0.0267,-14.81441 -4.619578,2.02999 -8.997641,4.37259 -13.035147,6.99868 -0.789917,-4.92252 -2.058388,-9.8812 -3.901777,-14.78694 -3.69395,3.24604 -7.03919,6.71429 -9.96485,10.38077"
       style="fill:none;stroke:#ffffff;stroke-width:5;stroke-linecap:round;stroke-linejoin:miter;stroke-miterlimit:4;stroke-dasharray:none;stroke-opacity:0.97368421"
       inkscape:path-effect="#path-effect1079"
       inkscape:original-d="m -261.534,218.59254 c 29.95285,19.18098 55.20095,19.14865 90.74384,0 35.62467,-19.95124 62.46638,-20.60731 90.743843,0"
       inkscape:export-filename="D:\Documents\Unity\arcadegame1\arcadegame1\Assets\sprites\trail7.png"
       inkscape:export-xdpi="96"
       inkscape:export-ydpi="96" />
  </g>
</svg>
