<?xml version="1.0" encoding="UTF-8" standalone="no"?>
<!-- Created with Inkscape (http://www.inkscape.org/) -->

<svg
   xmlns:dc="http://purl.org/dc/elements/1.1/"
   xmlns:cc="http://creativecommons.org/ns#"
   xmlns:rdf="http://www.w3.org/1999/02/22-rdf-syntax-ns#"
   xmlns:svg="http://www.w3.org/2000/svg"
   xmlns="http://www.w3.org/2000/svg"
   xmlns:sodipodi="http://sodipodi.sourceforge.net/DTD/sodipodi-0.dtd"
   xmlns:inkscape="http://www.inkscape.org/namespaces/inkscape"
   width="210mm"
   height="297mm"
   viewBox="0 0 210 297"
   version="1.1"
   id="svg1885"
   inkscape:version="0.92.4 (5da689c313, 2019-01-14)"
   sodipodi:docname="boards.svg">
  <defs
     id="defs1879">
    <inkscape:path-effect
       effect="skeletal"
       id="path-effect5810"
       is_visible="true"
       pattern="#path5828"
       copytype="repeated_stretched"
       prop_scale="2"
       scale_y_rel="false"
       spacing="5"
       normal_offset="0"
       tang_offset="20"
       prop_units="false"
       vertical_pattern="false"
       fuse_tolerance="0" />
    <inkscape:path-effect
       fuse_tolerance="0"
       vertical_pattern="false"
       prop_units="false"
       tang_offset="0"
       normal_offset="0"
       spacing="1.4"
       scale_y_rel="false"
       prop_scale="1.5"
       copytype="repeated"
       pattern="#path2669"
       is_visible="true"
       id="path-effect5805"
       effect="skeletal" />
    <inkscape:path-effect
       fuse_tolerance="0"
       vertical_pattern="false"
       prop_units="false"
       tang_offset="0"
       normal_offset="0"
       spacing="1.3"
       scale_y_rel="false"
       prop_scale="1"
       copytype="repeated"
       pattern="#rect7625"
       is_visible="true"
       id="path-effect5991"
       effect="skeletal" />
    <inkscape:path-effect
       fuse_tolerance="0"
       vertical_pattern="false"
       prop_units="false"
       tang_offset="0"
       normal_offset="0"
       spacing="0.5"
       scale_y_rel="false"
       prop_scale="1.2"
       copytype="repeated"
       pattern="#path2669"
       is_visible="true"
       id="path-effect5983"
       effect="skeletal" />
    <inkscape:path-effect
       effect="skeletal"
       id="path-effect7627"
       is_visible="true"
       pattern="#rect7625"
       copytype="repeated"
       prop_scale="0.8"
       scale_y_rel="false"
       spacing="2.4"
       normal_offset="0"
       tang_offset="0"
       prop_units="false"
       vertical_pattern="false"
       fuse_tolerance="0" />
    <inkscape:path-effect
       effect="skeletal"
       id="path-effect2689"
       is_visible="true"
       pattern="#path2669"
       copytype="repeated"
       prop_scale="1.5"
       scale_y_rel="false"
       spacing="1.4"
       normal_offset="0"
       tang_offset="0"
       prop_units="false"
       vertical_pattern="false"
       fuse_tolerance="0" />
    <inkscape:path-effect
       effect="skeletal"
       id="path-effect7627-6"
       is_visible="true"
       pattern="#rect7625"
       copytype="repeated"
       prop_scale="0.8"
       scale_y_rel="false"
       spacing="2.4"
       normal_offset="0"
       tang_offset="0"
       prop_units="false"
       vertical_pattern="false"
       fuse_tolerance="0" />
    <inkscape:path-effect
       effect="skeletal"
       id="path-effect7627-6-6"
       is_visible="true"
       pattern="#rect7625-0-8"
       copytype="repeated"
       prop_scale="0.76"
       scale_y_rel="false"
       spacing="2"
       normal_offset="0"
       tang_offset="0"
       prop_units="false"
       vertical_pattern="false"
       fuse_tolerance="0" />
    <inkscape:path-effect
       effect="skeletal"
       id="path-effect7627-6-6-7"
       is_visible="true"
       pattern="#rect7625-0-8-7"
       copytype="repeated"
       prop_scale="0.76"
       scale_y_rel="false"
       spacing="2"
       normal_offset="0"
       tang_offset="0"
       prop_units="false"
       vertical_pattern="false"
       fuse_tolerance="0" />
  </defs>
  <sodipodi:namedview
     id="base"
     pagecolor="#cbcbd2"
     bordercolor="#666666"
     borderopacity="1.0"
     inkscape:pageopacity="0"
     inkscape:pageshadow="2"
     inkscape:zoom="0.35"
     inkscape:cx="-2141.5977"
     inkscape:cy="-117.88156"
     inkscape:document-units="mm"
     inkscape:current-layer="layer1"
     showgrid="false"
     inkscape:window-width="1920"
     inkscape:window-height="1001"
     inkscape:window-x="-9"
     inkscape:window-y="-9"
     inkscape:window-maximized="1"
     inkscape:snap-object-midpoints="true"
     inkscape:snap-intersection-paths="true" />
  <metadata
     id="metadata1882">
    <rdf:RDF>
      <cc:Work
         rdf:about="">
        <dc:format>image/svg+xml</dc:format>
        <dc:type
           rdf:resource="http://purl.org/dc/dcmitype/StillImage" />
        <dc:title />
      </cc:Work>
    </rdf:RDF>
  </metadata>
  <g
     inkscape:label="Layer 1"
     inkscape:groupmode="layer"
     id="layer1">
    <path
       style="fill:none;stroke:#fcffff;stroke-width:1.46389151;stroke-linecap:round;stroke-linejoin:miter;stroke-miterlimit:4;stroke-dasharray:none;stroke-opacity:1"
       d="m -259.46269,154.84063 c 70.92459,0 126.53047,0 181.487688,0"
       id="path5993"
       inkscape:connector-curvature="0"
       sodipodi:nodetypes="cc"
       inkscape:export-filename="D:\Documents\Unity\arcadegame1\arcadegame1\Assets\sprites\boards.png"
       inkscape:export-xdpi="96"
       inkscape:export-ydpi="96" />
    <path
       style="fill:none;fill-opacity:1;stroke:#fffffd;stroke-width:0;stroke-linecap:round;stroke-linejoin:miter;stroke-miterlimit:4;stroke-dasharray:none;stroke-opacity:1"
       d="m -261.534,-69.08576 c 29.95285,19.180975 60.27135,14.595331 90.74384,0 31.17639,-14.390907 61.76917,-19.735797 90.743839,0"
       id="path5985"
       inkscape:connector-curvature="0"
       sodipodi:nodetypes="ccc"
       inkscape:export-filename="D:\Documents\Unity\arcadegame1\arcadegame1\Assets\sprites\boards.png"
       inkscape:export-xdpi="96"
       inkscape:export-ydpi="96" />
    <g
       id="g969"
       inkscape:export-filename="D:\Documents\Unity\arcadegame1\arcadegame1\Assets\sprites\boards.png"
       inkscape:export-xdpi="96"
       inkscape:export-ydpi="96"
       transform="matrix(2.927783,0,0,2.927783,-307.72891,-334.29074)">
      <rect
         y="33.928574"
         x="15.805303"
         height="11.339286"
         width="61.988094"
         id="rect2430"
         style="opacity:1;fill:#fffdff;fill-opacity:1;stroke:none;stroke-width:5;stroke-linecap:square;stroke-linejoin:miter;stroke-miterlimit:4;stroke-dasharray:none;stroke-opacity:1" />
      <circle
         r="5.6696429"
         cy="39.598213"
         cx="15.778118"
         id="path2432"
         style="opacity:1;fill:#d5d5d5;fill-opacity:1;stroke:none;stroke-width:5.04201698;stroke-linecap:square;stroke-linejoin:miter;stroke-miterlimit:4;stroke-dasharray:none;stroke-opacity:1" />
      <circle
         style="opacity:1;fill:#d5d5d5;fill-opacity:1;stroke:none;stroke-width:5.04201698;stroke-linecap:square;stroke-linejoin:miter;stroke-miterlimit:4;stroke-dasharray:none;stroke-opacity:1"
         id="circle2434"
         cx="77.766212"
         cy="39.598213"
         r="5.6696429" />
    </g>
    <path
       transform="matrix(2.927783,0,0,2.927783,-302.64421,-237.81845)"
       style="fill:none;stroke:#fcffff;stroke-width:0.9099035;stroke-linecap:round;stroke-linejoin:miter;stroke-miterlimit:4;stroke-dasharray:none;stroke-opacity:1"
       d="m 14.441772,105.5716 h 3.422391 v 6.05966 h -3.422391 z m 5.822391,0 h 3.422391 v 6.05966 h -3.422391 z m 5.822391,0 h 3.422391 v 6.05966 h -3.422391 z m 5.822391,0 h 3.422391 v 6.05966 h -3.422391 z m 5.822391,0 h 3.422391 v 6.05966 h -3.422391 z m 5.822391,0 h 3.422391 v 6.05966 h -3.422391 z m 5.822391,0 h 3.422391 v 6.05966 h -3.422391 z m 5.822391,0 H 58.6209 v 6.05966 h -3.422391 z m 5.822391,0 h 3.422391 v 6.05966 H 61.0209 Z m 5.822391,0 h 3.422391 v 6.05966 h -3.422391 z m 5.822391,0 h 3.422391 v 6.05966 h -3.422391 z"
       id="path2578-0-0"
       inkscape:connector-curvature="0"
       sodipodi:nodetypes="cc"
       inkscape:path-effect="#path-effect7627-6"
       inkscape:original-d="m 14.441772,108.60143 c 24.224676,0 43.217162,0 61.988094,0"
       inkscape:export-filename="D:\Documents\Unity\arcadegame1\arcadegame1\Assets\sprites\boards.png"
       inkscape:export-xdpi="96"
       inkscape:export-ydpi="96" />
    <circle
       style="opacity:1;fill:#d5d5d5;fill-opacity:1;stroke:none;stroke-width:14.76193142;stroke-linecap:square;stroke-linejoin:miter;stroke-miterlimit:4;stroke-dasharray:none;stroke-opacity:1"
       id="path2432-1"
       cx="-261.534"
       cy="79.992279"
       r="16.599483"
       inkscape:export-filename="D:\Documents\Unity\arcadegame1\arcadegame1\Assets\sprites\boards.png"
       inkscape:export-xdpi="96"
       inkscape:export-ydpi="96" />
    <circle
       r="16.599483"
       cy="79.992279"
       cx="-80.046318"
       id="circle2434-34"
       style="opacity:1;fill:#d5d5d5;fill-opacity:1;stroke:none;stroke-width:14.76193142;stroke-linecap:square;stroke-linejoin:miter;stroke-miterlimit:4;stroke-dasharray:none;stroke-opacity:1"
       inkscape:export-filename="D:\Documents\Unity\arcadegame1\arcadegame1\Assets\sprites\boards.png"
       inkscape:export-xdpi="96"
       inkscape:export-ydpi="96" />
    <circle
       style="opacity:1;fill:#a8a8a9;fill-opacity:1;stroke:none;stroke-width:5.04201698;stroke-linecap:square;stroke-linejoin:miter;stroke-miterlimit:4;stroke-dasharray:none;stroke-opacity:1"
       id="path2432-55"
       cx="18.985353"
       cy="287.52454"
       r="5.6696429" />
    <circle
       r="5.6696429"
       cy="287.52454"
       cx="80.97345"
       id="circle2434-9"
       style="opacity:1;fill:#a8a8a9;fill-opacity:1;stroke:none;stroke-width:5.04201698;stroke-linecap:square;stroke-linejoin:miter;stroke-miterlimit:4;stroke-dasharray:none;stroke-opacity:1" />
    <rect
       style="opacity:1;fill:#fffdff;fill-opacity:1;stroke:none;stroke-width:5;stroke-linecap:square;stroke-linejoin:miter;stroke-miterlimit:4;stroke-dasharray:none;stroke-opacity:1"
       id="rect2430-8"
       width="61.988098"
       height="11.339286"
       x="19.012539"
       y="281.85489" />
    <circle
       style="opacity:1;fill:#a8a8a9;fill-opacity:1;stroke:none;stroke-width:5.04201698;stroke-linecap:square;stroke-linejoin:miter;stroke-miterlimit:4;stroke-dasharray:none;stroke-opacity:1"
       id="path2432-9"
       cx="129.64583"
       cy="36.196426"
       r="5.6696429" />
    <circle
       r="5.6696429"
       cy="36.196426"
       cx="191.63393"
       id="circle2434-16"
       style="opacity:1;fill:#a8a8a9;fill-opacity:1;stroke:none;stroke-width:5.04201698;stroke-linecap:square;stroke-linejoin:miter;stroke-miterlimit:4;stroke-dasharray:none;stroke-opacity:1" />
    <rect
       style="opacity:1;fill:#fffdff;fill-opacity:1;stroke:none;stroke-width:5;stroke-linecap:square;stroke-linejoin:miter;stroke-miterlimit:4;stroke-dasharray:none;stroke-opacity:1"
       id="rect2430-4"
       width="61.988098"
       height="11.339286"
       x="129.67302"
       y="30.526787" />
    <circle
       style="opacity:1;fill:#a8a8a9;fill-opacity:1;stroke:none;stroke-width:5.04201698;stroke-linecap:square;stroke-linejoin:miter;stroke-miterlimit:4;stroke-dasharray:none;stroke-opacity:1"
       id="path2432-7"
       cx="133.4256"
       cy="64.166664"
       r="5.6696429" />
    <circle
       r="5.6696429"
       cy="64.166664"
       cx="195.4137"
       id="circle2434-12"
       style="opacity:1;fill:#a8a8a9;fill-opacity:1;stroke:none;stroke-width:5.04201698;stroke-linecap:square;stroke-linejoin:miter;stroke-miterlimit:4;stroke-dasharray:none;stroke-opacity:1" />
    <rect
       style="opacity:1;fill:#fffdff;fill-opacity:1;stroke:none;stroke-width:5;stroke-linecap:square;stroke-linejoin:miter;stroke-miterlimit:4;stroke-dasharray:none;stroke-opacity:1"
       id="rect2430-5"
       width="61.988098"
       height="11.339286"
       x="133.45277"
       y="58.497025" />
    <circle
       style="opacity:1;fill:#a8a8a9;fill-opacity:1;stroke:none;stroke-width:5.04201698;stroke-linecap:square;stroke-linejoin:miter;stroke-miterlimit:4;stroke-dasharray:none;stroke-opacity:1"
       id="path2432-15"
       cx="129.26785"
       cy="91.002975"
       r="5.6696429" />
    <circle
       r="5.6696429"
       cy="91.002975"
       cx="191.25595"
       id="circle2434-6"
       style="opacity:1;fill:#a8a8a9;fill-opacity:1;stroke:none;stroke-width:5.04201698;stroke-linecap:square;stroke-linejoin:miter;stroke-miterlimit:4;stroke-dasharray:none;stroke-opacity:1" />
    <rect
       style="opacity:1;fill:#fffdff;fill-opacity:1;stroke:none;stroke-width:5;stroke-linecap:square;stroke-linejoin:miter;stroke-miterlimit:4;stroke-dasharray:none;stroke-opacity:1"
       id="rect2430-7"
       width="61.988098"
       height="11.339286"
       x="129.29504"
       y="85.333336" />
    <circle
       style="opacity:1;fill:#a8a8a9;fill-opacity:1;stroke:none;stroke-width:5.04201698;stroke-linecap:square;stroke-linejoin:miter;stroke-miterlimit:4;stroke-dasharray:none;stroke-opacity:1"
       id="path2432-58"
       cx="128.13393"
       cy="118.59524"
       r="5.6696429" />
    <circle
       r="5.6696429"
       cy="118.59524"
       cx="190.12202"
       id="circle2434-90"
       style="opacity:1;fill:#a8a8a9;fill-opacity:1;stroke:none;stroke-width:5.04201698;stroke-linecap:square;stroke-linejoin:miter;stroke-miterlimit:4;stroke-dasharray:none;stroke-opacity:1" />
    <rect
       style="opacity:1;fill:#fffdff;fill-opacity:1;stroke:none;stroke-width:5;stroke-linecap:square;stroke-linejoin:miter;stroke-miterlimit:4;stroke-dasharray:none;stroke-opacity:1"
       id="rect2430-87"
       width="61.988098"
       height="11.339286"
       x="128.16112"
       y="112.9256" />
    <circle
       style="opacity:1;fill:#a8a8a9;fill-opacity:1;stroke:none;stroke-width:5.04201698;stroke-linecap:square;stroke-linejoin:miter;stroke-miterlimit:4;stroke-dasharray:none;stroke-opacity:1"
       id="path2432-0"
       cx="128.13393"
       cy="140.51785"
       r="5.6696429" />
    <circle
       r="5.6696429"
       cy="140.51785"
       cx="190.12202"
       id="circle2434-2"
       style="opacity:1;fill:#a8a8a9;fill-opacity:1;stroke:none;stroke-width:5.04201698;stroke-linecap:square;stroke-linejoin:miter;stroke-miterlimit:4;stroke-dasharray:none;stroke-opacity:1" />
    <rect
       style="opacity:1;fill:#fffdff;fill-opacity:1;stroke:none;stroke-width:5;stroke-linecap:square;stroke-linejoin:miter;stroke-miterlimit:4;stroke-dasharray:none;stroke-opacity:1"
       id="rect2430-39"
       width="61.988098"
       height="11.339286"
       x="128.16112"
       y="134.84822" />
    <circle
       style="opacity:1;fill:#a8a8a9;fill-opacity:1;stroke:none;stroke-width:5.04201698;stroke-linecap:square;stroke-linejoin:miter;stroke-miterlimit:4;stroke-dasharray:none;stroke-opacity:1"
       id="path2432-92"
       cx="128.13393"
       cy="159.79465"
       r="5.6696429" />
    <circle
       r="5.6696429"
       cy="159.79465"
       cx="190.12202"
       id="circle2434-91"
       style="opacity:1;fill:#a8a8a9;fill-opacity:1;stroke:none;stroke-width:5.04201698;stroke-linecap:square;stroke-linejoin:miter;stroke-miterlimit:4;stroke-dasharray:none;stroke-opacity:1" />
    <rect
       style="opacity:1;fill:#fffdff;fill-opacity:1;stroke:none;stroke-width:5;stroke-linecap:square;stroke-linejoin:miter;stroke-miterlimit:4;stroke-dasharray:none;stroke-opacity:1"
       id="rect2430-0"
       width="61.988098"
       height="11.339286"
       x="128.16112"
       y="154.125" />
    <circle
       style="opacity:1;fill:#a8a8a9;fill-opacity:1;stroke:none;stroke-width:5.04201698;stroke-linecap:square;stroke-linejoin:miter;stroke-miterlimit:4;stroke-dasharray:none;stroke-opacity:1"
       id="path2432-23"
       cx="128.13393"
       cy="190.41071"
       r="5.6696429" />
    <circle
       r="5.6696429"
       cy="190.41071"
       cx="190.12202"
       id="circle2434-75"
       style="opacity:1;fill:#a8a8a9;fill-opacity:1;stroke:none;stroke-width:5.04201698;stroke-linecap:square;stroke-linejoin:miter;stroke-miterlimit:4;stroke-dasharray:none;stroke-opacity:1" />
    <rect
       style="opacity:1;fill:#fffdff;fill-opacity:1;stroke:none;stroke-width:5;stroke-linecap:square;stroke-linejoin:miter;stroke-miterlimit:4;stroke-dasharray:none;stroke-opacity:1"
       id="rect2430-33"
       width="61.988098"
       height="11.339286"
       x="128.16112"
       y="184.74107" />
    <g
       id="g976"
       transform="matrix(2.927783,0,0,2.927783,-307.72891,-331.55738)"
       inkscape:export-filename="D:\Documents\Unity\arcadegame1\arcadegame1\Assets\sprites\boards.png"
       inkscape:export-xdpi="96"
       inkscape:export-ydpi="96">
      <circle
         r="5.6696429"
         cy="64.166664"
         cx="15.778119"
         id="path2432-5"
         style="opacity:1;fill:#d5d5d5;fill-opacity:1;stroke:none;stroke-width:5.04201698;stroke-linecap:square;stroke-linejoin:miter;stroke-miterlimit:4;stroke-dasharray:none;stroke-opacity:1" />
      <circle
         style="opacity:1;fill:#d5d5d5;fill-opacity:1;stroke:none;stroke-width:5.04201698;stroke-linecap:square;stroke-linejoin:miter;stroke-miterlimit:4;stroke-dasharray:none;stroke-opacity:1"
         id="circle2434-3"
         cx="77.766212"
         cy="64.166664"
         r="5.6696429" />
      <path
         sodipodi:nodetypes="ccc"
         inkscape:connector-curvature="0"
         id="path2578"
         d="m 15.778119,64.166665 c 10.230558,6.551365 18.854181,6.540324 30.994046,0 12.167796,-6.814454 21.335728,-7.038536 30.994047,0"
         style="fill:none;stroke:#ffffff;stroke-width:3;stroke-linecap:round;stroke-linejoin:miter;stroke-miterlimit:4;stroke-dasharray:none;stroke-opacity:0.97368421" />
      <circle
         style="opacity:1;fill:#d5d5d5;fill-opacity:1;stroke:none;stroke-width:2.90287042;stroke-linecap:square;stroke-linejoin:miter;stroke-miterlimit:4;stroke-dasharray:none;stroke-opacity:1"
         id="circle2595"
         cx="15.778119"
         cy="64.166664"
         r="3.2642171" />
      <circle
         style="opacity:1;fill:#d5d5d5;fill-opacity:1;stroke:none;stroke-width:2.90287042;stroke-linecap:square;stroke-linejoin:miter;stroke-miterlimit:4;stroke-dasharray:none;stroke-opacity:1"
         id="circle2595-4"
         cx="77.766212"
         cy="64.166664"
         r="3.2642174" />
    </g>
    <path
       style="fill:#d9dcda;fill-opacity:1;stroke:#fffffd;stroke-width:1;stroke-linecap:round;stroke-linejoin:miter;stroke-miterlimit:4;stroke-dasharray:none;stroke-opacity:1"
       d="m 17.331369,84.945319 -0.591797,1.070279 c 0.06538,0.204254 0.134135,0.408387 0.206217,0.612339 0.253759,0.71821 0.548786,1.434185 0.883119,2.145338 -0.751549,0.229278 -1.526922,0.426933 -2.325842,0.589729 -0.226902,0.04624 -0.455703,0.08967 -0.686398,0.130213 l -0.591797,1.07028 c 0.868958,-0.135027 1.71243,-0.309367 2.530106,-0.519411 0.817676,-0.210044 1.609557,-0.455792 2.375333,-0.733634 -0.384423,-0.718301 -0.727992,-1.443163 -1.028516,-2.1717 -0.300575,-0.728428 -0.558114,-1.460534 -0.770425,-2.193433 z m 4.107744,1.788571 -0.378467,1.159177 c 0.103815,0.187417 0.210615,0.37434 0.320355,0.560711 0.386371,0.65631 0.809203,1.305766 1.266532,1.945781 -0.698718,0.361164 -1.422856,0.697176 -2.172137,1.004802 -0.212803,0.08737 -0.427634,0.172458 -0.644487,0.255178 l -0.378467,1.159179 c 0.817094,-0.293604 1.606985,-0.619558 2.369365,-0.974253 0.762378,-0.354695 1.497245,-0.738131 2.20429,-1.146699 -0.505429,-0.641491 -0.975176,-1.294512 -1.407052,-1.956178 -0.431906,-0.661548 -0.825947,-1.331743 -1.179932,-2.007698 z m 4.429053,1.019149 -0.176019,1.210499 c 0.135747,0.167584 0.274092,0.334303 0.41499,0.500096 0.496093,0.58386 1.023838,1.156247 1.581273,1.714574 -0.632177,0.471902 -1.29137,0.925125 -1.977301,1.356434 -0.19481,0.122501 -0.391777,0.243234 -0.590895,0.362126 l -0.176019,1.2105 c 0.75101,-0.430246 1.4731,-0.885881 2.165961,-1.363294 0.692861,-0.477412 1.356493,-0.976603 1.990587,-1.493962 -0.602693,-0.553739 -1.174877,-1.123976 -1.714361,-1.707827 -0.539495,-0.58373 -1.046297,-1.181074 -1.518216,-1.789146 z m 4.593463,0.295168 0.01555,1.224245 c 0.161179,0.144756 0.324568,0.288274 0.490121,0.430494 0.363062,0.31195 0.736537,0.617658 1.119952,0.916499 0.232833,0.181 0.468696,0.359768 0.707404,0.536393 -0.208896,0.211005 -0.421071,0.420617 -0.63672,0.628779 -0.357173,0.343693 -0.725404,0.682177 -1.104626,1.014672 -0.172923,0.151622 -0.348132,0.301998 -0.525621,0.451055 l 0.01555,1.224246 c 0.586407,-0.476463 1.149395,-0.967011 1.688757,-1.469231 0.07684,-0.07223 0.153255,-0.144625 0.229244,-0.217193 0.604602,-0.577384 1.182436,-1.165512 1.73757,-1.763151 -0.670874,-0.464113 -1.322161,-0.943132 -1.950011,-1.438868 -0.07891,-0.06229 -0.15745,-0.124846 -0.235612,-0.187669 -0.53892,-0.436806 -1.056591,-0.887539 -1.551549,-1.350271 z m 4.685194,-0.368219 0.167074,1.208999 c 0.180745,0.122566 0.362938,0.244102 0.546499,0.364647 0.646342,0.424538 1.309655,0.836776 1.986489,1.23834 -0.494091,0.61246 -1.004186,1.218549 -1.533932,1.817159 -0.150451,0.170016 -0.302487,0.339428 -0.456191,0.508212 l 0.167073,1.209 c 0.575923,-0.618333 1.128585,-1.244977 1.662057,-1.878697 0.533471,-0.63372 1.047752,-1.274515 1.546912,-1.921149 -0.711376,-0.401709 -1.410132,-0.813594 -2.09242,-1.237469 -0.682268,-0.423755 -1.348071,-0.859498 -1.993561,-1.309042 z m 4.760519,-0.879726 0.264781,1.194587 c 0.192921,0.107146 0.386766,0.213616 0.581458,0.31945 0.68554,0.372738 1.381573,0.737572 2.08465,1.096126 -0.455276,0.644577 -0.919511,1.286193 -1.396353,1.923741 -0.135426,0.181074 -0.271868,0.361821 -0.409411,0.542214 l 0.264782,1.194588 c 0.511358,-0.660326 1.007034,-1.325294 1.491097,-1.993668 0.484063,-0.668372 0.956513,-1.34015 1.421421,-2.014098 -0.733517,-0.363903 -1.461384,-0.733255 -2.179751,-1.109867 -0.718339,-0.376494 -1.427179,-0.760247 -2.122674,-1.153073 z m 4.827539,-1.200815 0.316678,1.183509 c 0.200069,0.09846 0.400542,0.196602 0.601338,0.29446 0.707037,0.344655 1.41809,0.685802 2.129709,1.025064 -0.437403,0.655787 -0.876722,1.312025 -1.321603,1.967606 -0.126348,0.186196 -0.253145,0.372339 -0.380474,0.558404 l 0.316679,1.18351 c 0.468516,-0.680637 0.928927,-1.362245 1.385304,-2.043589 0.23624,-0.352691 0.471398,-0.705312 0.706039,-1.057689 0.219148,-0.328 0.437515,-0.656426 0.655696,-0.985127 -0.356531,-0.169006 -0.71273,-0.338036 -1.068057,-0.507376 -0.381851,-0.182112 -0.763557,-0.364652 -1.144586,-0.54787 -0.736055,-0.353832 -1.469578,-0.710195 -2.196723,-1.070902 z m 4.900304,-1.347962 0.327531,1.180515 c 0.203005,0.09581 0.406095,0.191723 0.609171,0.287798 0.715064,0.338378 1.429952,0.678735 2.14033,1.023362 -0.442533,0.653791 -0.879115,1.309354 -1.314497,1.965482 -0.12365,0.186351 -0.247203,0.372747 -0.370769,0.559162 l 0.327532,1.180516 c 0.450164,-0.680132 0.898879,-1.359872 1.351448,-2.037873 0.452569,-0.678001 0.908991,-1.354263 1.374569,-2.02744 -0.732849,-0.364679 -1.47295,-0.722971 -2.215465,-1.077431 -0.742483,-0.354342 -1.487378,-0.704854 -2.22985,-1.054091 z m 5.046099,-1.33096 0.289109,1.189334 c 0.20278,0.101803 0.404995,0.204199 0.606545,0.307241 0.709689,0.36291 1.411141,0.733831 2.10002,1.115052 -0.475677,0.627289 -0.93615,1.260315 -1.386171,1.897871 -0.127807,0.181077 -0.254772,0.362519 -0.381002,0.544299 l 0.289109,1.189336 c 0.4528,-0.66236 0.914106,-1.320061 1.389218,-1.971758 0.475113,-0.651697 0.964032,-1.297389 1.472061,-1.93573 -0.704431,-0.411676 -1.424786,-0.810476 -2.156228,-1.198957 -0.731416,-0.388363 -1.473915,-0.766407 -2.222661,-1.136688 z m 5.251498,-1.066428 0.192027,1.205152 c 0.196497,0.116749 0.391778,0.234578 0.585745,0.353539 0.682979,0.418962 1.349659,0.851966 1.995705,1.301302 -0.536967,0.57517 -1.049477,1.160043 -1.542283,1.753411 -0.139959,0.168527 -0.27833,0.337739 -0.415219,0.507609 l 0.192027,1.205154 c 0.484631,-0.618017 0.98772,-1.227111 1.51457,-1.825934 0.405609,-0.461019 0.825301,-0.915951 1.261495,-1.364181 0.130242,-0.133991 0.262085,-0.267312 0.395596,-0.399874 -0.150288,-0.113217 -0.302068,-0.22537 -0.45523,-0.336436 -0.511928,-0.371534 -1.037774,-0.731939 -1.575332,-1.082383 -0.698225,-0.455074 -1.416205,-0.893342 -2.149101,-1.317359 z m 5.503799,-0.540634 0.02871,1.223758 c 0.184037,0.142389 0.365816,0.286412 0.545156,0.432033 0.631463,0.512836 1.232676,1.045485 1.795686,1.596407 -0.625639,0.478485 -1.216358,0.980914 -1.777024,1.500812 -0.159233,0.147661 -0.316042,0.296732 -0.470537,0.447063 l 0.02871,1.223759 c 0.538747,-0.54851 1.106525,-1.081341 1.70876,-1.59127 0.602234,-0.509928 1.238927,-0.996952 1.915505,-1.45385 -0.548906,-0.604436 -1.143856,-1.189392 -1.775975,-1.753145 -0.632125,-0.563632 -1.301411,-1.106061 -1.998987,-1.625567 z m 5.743473,0.434634 -0.223221,1.201917 c 0.104068,0.118886 0.206521,0.238485 0.307303,0.358785 0.04978,0.05941 0.09911,0.11898 0.147985,0.178716 0.521651,0.637748 0.991216,1.294031 1.408665,1.962205 -0.720883,0.317684 -1.405417,0.674549 -2.049169,1.065648 -0.06031,0.03664 -0.120259,0.07358 -0.179848,0.11082 -0.121424,0.07526 -0.241493,0.15167 -0.36024,0.229174 l -0.223222,1.201919 c 0.112237,-0.07856 0.225733,-0.156063 0.340523,-0.23246 0.507994,-0.342919 1.04595,-0.662713 1.611177,-0.956378 0.692255,-0.359663 1.425416,-0.680132 2.194536,-0.955885 -0.382821,-0.721916 -0.822357,-1.435047 -1.318575,-2.131979 -0.40519,-0.56895 -0.84816,-1.127099 -1.328894,-1.670412 -0.107416,-0.121433 -0.216441,-0.242127 -0.32702,-0.36207 z"
       id="path2578-8"
       inkscape:connector-curvature="0"
       sodipodi:nodetypes="cc"
       inkscape:path-effect="#path-effect2689"
       inkscape:original-d="m 15.77812,87.754408 c 21.662241,11.977854 44.352998,-11.417924 61.988094,0"
       transform="matrix(2.927783,0,0,2.927783,-307.72891,-326.01161)"
       inkscape:export-filename="D:\Documents\Unity\arcadegame1\arcadegame1\Assets\sprites\boards.png"
       inkscape:export-xdpi="96"
       inkscape:export-ydpi="96" />
    <circle
       style="opacity:1;fill:#d5d5d5;fill-opacity:1;stroke:none;stroke-width:14.76193142;stroke-linecap:square;stroke-linejoin:miter;stroke-miterlimit:4;stroke-dasharray:none;stroke-opacity:1"
       id="path2432-5-7"
       cx="-261.534"
       cy="-69.085785"
       r="16.599483"
       inkscape:export-filename="D:\Documents\Unity\arcadegame1\arcadegame1\Assets\sprites\boards.png"
       inkscape:export-xdpi="96"
       inkscape:export-ydpi="96" />
    <circle
       r="16.599483"
       cy="-69.085785"
       cx="-80.046318"
       id="circle2434-3-4"
       style="opacity:1;fill:#d5d5d5;fill-opacity:1;stroke:none;stroke-width:14.76193142;stroke-linecap:square;stroke-linejoin:miter;stroke-miterlimit:4;stroke-dasharray:none;stroke-opacity:1"
       inkscape:export-filename="D:\Documents\Unity\arcadegame1\arcadegame1\Assets\sprites\boards.png"
       inkscape:export-xdpi="96"
       inkscape:export-ydpi="96" />
    <circle
       r="9.5569201"
       cy="-69.085785"
       cx="-261.534"
       id="circle2595-8"
       style="opacity:1;fill:#d5d5d5;fill-opacity:1;stroke:none;stroke-width:8.4989748;stroke-linecap:square;stroke-linejoin:miter;stroke-miterlimit:4;stroke-dasharray:none;stroke-opacity:1"
       inkscape:export-filename="D:\Documents\Unity\arcadegame1\arcadegame1\Assets\sprites\boards.png"
       inkscape:export-xdpi="96"
       inkscape:export-ydpi="96" />
    <circle
       r="9.5569201"
       cy="-69.085785"
       cx="-80.046318"
       id="circle2595-4-1"
       style="opacity:1;fill:#d5d5d5;fill-opacity:1;stroke:none;stroke-width:8.4989748;stroke-linecap:square;stroke-linejoin:miter;stroke-miterlimit:4;stroke-dasharray:none;stroke-opacity:1"
       inkscape:export-filename="D:\Documents\Unity\arcadegame1\arcadegame1\Assets\sprites\boards.png"
       inkscape:export-xdpi="96"
       inkscape:export-ydpi="96" />
    <path
       style="fill:none;stroke:#fcffff;stroke-width:0.9099035;stroke-linecap:round;stroke-linejoin:miter;stroke-miterlimit:4;stroke-dasharray:none;stroke-opacity:1"
       d="m 16.075686,106.04992 c 0.857226,0.54774 1.748561,1.04421 2.665906,1.48489 l -2.623017,5.46481 c -1.140275,-0.54695 -2.246547,-1.16401 -3.310717,-1.84668 z m 4.631392,2.32813 c 0.949844,0.36023 1.920021,0.6615 2.902431,0.89931 L 22.193677,115.16 c -1.232535,-0.29528 -2.444843,-0.66837 -3.628827,-1.11474 z m 4.984474,1.30442 c 0.995586,0.14658 1.997728,0.22653 2.998327,0.23534 l -0.06985,6.05148 c -1.277919,-0.0175 -2.549388,-0.12047 -3.806309,-0.30441 z m 5.1208,0.16146 c 1.018561,-0.0768 2.037554,-0.21839 3.055111,-0.41529 l 1.123238,5.93898 c -1.216647,0.23018 -2.451378,0.40171 -3.702324,0.50519 z m 5.193076,-0.90793 c 1.014623,-0.26989 2.026499,-0.58853 3.033759,-0.94651 l 1.994794,5.74041 c -1.149703,0.40252 -2.320671,0.76238 -3.511034,1.07019 z m 5.145369,-1.75442 c 0.999865,-0.40854 1.993804,-0.84982 2.979945,-1.31445 l 2.577243,5.48436 c -1.07194,0.52042 -2.168324,1.0142 -3.287283,1.47191 z m 5.269056,-2.33763 c 1.104192,-0.46831 2.230114,-0.90812 3.376529,-1.30949 l 2.044073,5.71913 c -1.011433,0.35876 -2.020015,0.75378 -3.024508,1.17509 z m 5.818155,-2.09371 c 1.174549,-0.34254 2.368723,-0.63964 3.581286,-0.88134 l 1.201978,5.91754 c -1.017556,0.20655 -2.034365,0.46631 -3.04919,0.76932 z m 6.158968,-1.30466 c 0.886018,-0.11389 1.781015,-0.19581 2.684535,-0.2421 0.365119,-0.0151 0.730118,-0.0229 1.094777,-0.0236 l 0.02068,6.05484 c -0.283178,0.002 -0.566181,0.009 -0.848787,0.0225 -0.728138,0.0256 -1.456792,0.0857 -2.185507,0.17659 z m 6.469499,-0.1393 c 1.272634,0.12162 2.534328,0.33017 3.775482,0.62207 l -1.387317,5.88889 c -0.976144,-0.23046 -1.966442,-0.39459 -2.961296,-0.48877 z m 6.353,1.35785 c 1.207626,0.407 2.387981,0.8948 3.531465,1.45981 l -2.684436,5.42779 c -0.900199,-0.44574 -1.830883,-0.83129 -2.782454,-1.15302 z"
       id="path2578-0"
       inkscape:connector-curvature="0"
       sodipodi:nodetypes="ccc"
       inkscape:path-effect="#path-effect7627"
       inkscape:original-d="m 14.441772,108.60143 c 10.230559,6.55137 20.586004,4.98512 30.994048,0 10.648463,-4.91529 21.097592,-6.74087 30.994046,0"
       transform="matrix(2.927783,0,0,2.927783,-303.81639,-312.48293)"
       inkscape:export-filename="D:\Documents\Unity\arcadegame1\arcadegame1\Assets\sprites\boards.png"
       inkscape:export-xdpi="96"
       inkscape:export-ydpi="96" />
    <circle
       style="opacity:1;fill:#d5d5d5;fill-opacity:1;stroke:none;stroke-width:14.76193142;stroke-linecap:square;stroke-linejoin:miter;stroke-miterlimit:4;stroke-dasharray:none;stroke-opacity:1"
       id="path2432-5-4"
       cx="-261.534"
       cy="5.4784875"
       r="16.599483"
       inkscape:export-filename="D:\Documents\Unity\arcadegame1\arcadegame1\Assets\sprites\boards.png"
       inkscape:export-xdpi="96"
       inkscape:export-ydpi="96" />
    <circle
       r="16.599483"
       cy="5.4784875"
       cx="-80.046318"
       id="circle2434-3-5"
       style="opacity:1;fill:#d5d5d5;fill-opacity:1;stroke:none;stroke-width:14.76193142;stroke-linecap:square;stroke-linejoin:miter;stroke-miterlimit:4;stroke-dasharray:none;stroke-opacity:1"
       inkscape:export-filename="D:\Documents\Unity\arcadegame1\arcadegame1\Assets\sprites\boards.png"
       inkscape:export-xdpi="96"
       inkscape:export-ydpi="96" />
    <circle
       r="9.5569201"
       cy="5.4784875"
       cx="-261.534"
       id="circle2595-3"
       style="opacity:1;fill:#d5d5d5;fill-opacity:1;stroke:none;stroke-width:8.4989748;stroke-linecap:square;stroke-linejoin:miter;stroke-miterlimit:4;stroke-dasharray:none;stroke-opacity:1"
       inkscape:export-filename="D:\Documents\Unity\arcadegame1\arcadegame1\Assets\sprites\boards.png"
       inkscape:export-xdpi="96"
       inkscape:export-ydpi="96" />
    <circle
       r="9.5569201"
       cy="5.4784875"
       cx="-80.046318"
       id="circle2595-4-6"
       style="opacity:1;fill:#d5d5d5;fill-opacity:1;stroke:none;stroke-width:8.4989748;stroke-linecap:square;stroke-linejoin:miter;stroke-miterlimit:4;stroke-dasharray:none;stroke-opacity:1"
       inkscape:export-filename="D:\Documents\Unity\arcadegame1\arcadegame1\Assets\sprites\boards.png"
       inkscape:export-xdpi="96"
       inkscape:export-ydpi="96" />
    <path
       style="opacity:1;fill:#c8c8c8;fill-opacity:1;stroke:#fffffb;stroke-width:1.39296269;stroke-linecap:round;stroke-linejoin:miter;stroke-miterlimit:4;stroke-dasharray:none;stroke-opacity:1"
       d="m -38.328034,72.988028 v 0.815331 l 0.507483,0.292972 1.786866,1.031761 -1.786866,1.031521 -0.507483,0.292972 v 0.815332 l 1.853331,-1.069913 1.85333,-1.069912 -1.85333,-1.070153 z"
       id="path2669"
       inkscape:connector-curvature="0" />
    <path
       style="opacity:1;fill:#c8c8c8;fill-opacity:1;stroke:#fffffb;stroke-width:3.224;stroke-linecap:round;stroke-linejoin:miter;stroke-miterlimit:4;stroke-dasharray:none;stroke-opacity:1"
       d="m -38.185899,105.26405 h 3.422391 v 7.57457 h -3.422391 z"
       id="rect7625"
       inkscape:connector-curvature="0" />
    <path
       inkscape:connector-curvature="0"
       style="opacity:1;fill:#c8c8c8;fill-opacity:1;stroke:#fffffb;stroke-width:1;stroke-linecap:round;stroke-linejoin:miter;stroke-miterlimit:4;stroke-dasharray:none;stroke-opacity:1"
       d="m -37.136162,124.92634 h 1.322917 v 5.29167 h -1.322917 z"
       id="rect7625-0" />
    <rect
       style="opacity:1;fill:#fffcff;fill-opacity:0.58270677;stroke:#ffffff;stroke-width:0.71109611;stroke-linecap:round;stroke-linejoin:miter;stroke-miterlimit:4;stroke-dasharray:none;stroke-opacity:0.54511276"
       id="rect7726"
       width="43.65625"
       height="6.4983034"
       x="28.151276"
       y="265.35629" />
    <path
       inkscape:connector-curvature="0"
       style="opacity:1;fill:#c8c8c8;fill-opacity:1;stroke:#fffffb;stroke-width:0.61199999;stroke-linecap:round;stroke-linejoin:miter;stroke-miterlimit:4;stroke-dasharray:none;stroke-opacity:1"
       d="m -38.245094,162.81007 c 4.793052,-4.07487 4.071778,-2.87309 1.603903,0 v 6.41561 h -1.603903 z"
       id="rect7625-0-8"
       sodipodi:nodetypes="cccccc" />
    <path
       inkscape:connector-curvature="0"
       style="opacity:1;fill:#c8c8c8;fill-opacity:1;stroke:#fffffb;stroke-width:0.61176282;stroke-linecap:round;stroke-linejoin:miter;stroke-miterlimit:4;stroke-dasharray:none;stroke-opacity:1"
       d="m -34.704999,169.22568 c -4.791195,4.07329 -4.0702,2.87198 -1.603282,0 v -6.41312 h 1.603282 z"
       id="rect7625-0-8-7"
       sodipodi:nodetypes="cccccc" />
    <path
       transform="matrix(2.927783,0,0,2.927783,-304.25707,-159.79969)"
       style="fill:none;stroke:#fcffff;stroke-width:0.68311074;stroke-linecap:round;stroke-linejoin:miter;stroke-miterlimit:4;stroke-dasharray:none;stroke-opacity:1"
       d="m 17.975368,110.04142 c -4.791195,3.0957 -4.0702,2.1827 -1.603282,0 v -4.87397 h 1.603282 z m 5.533597,0 c -4.791195,3.0957 -4.0702,2.1827 -1.603282,0 v -4.87397 h 1.603282 z m 5.533596,0 c -4.791195,3.0957 -4.0702,2.1827 -1.603282,0 v -4.87397 h 1.603282 z m 5.533596,0 c -4.791195,3.0957 -4.0702,2.1827 -1.603282,0 v -4.87397 h 1.603282 z m 5.533597,0 c -4.791195,3.0957 -4.0702,2.1827 -1.603282,0 v -4.87397 h 1.603282 z m 5.533596,0 c -4.791195,3.0957 -4.0702,2.1827 -1.603282,0 v -4.87397 h 1.603282 z m 5.533596,0 c -4.791195,3.0957 -4.0702,2.1827 -1.603282,0 v -4.87397 h 1.603282 z m 5.533597,0 c -4.791195,3.0957 -4.0702,2.1827 -1.603282,0 v -4.87397 h 1.603282 z m 5.533596,0 c -4.791195,3.0957 -4.0702,2.1827 -1.603282,0 v -4.87397 h 1.603282 z m 5.533596,0 c -4.791195,3.0957 -4.0702,2.1827 -1.603282,0 v -4.87397 h 1.603282 z m 5.533597,0 c -4.791195,3.0957 -4.0702,2.1827 -1.603282,0 v -4.87397 h 1.603282 z"
       id="path2578-0-0-8-5"
       inkscape:connector-curvature="0"
       sodipodi:nodetypes="cc"
       inkscape:path-effect="#path-effect7627-6-6-7"
       inkscape:original-d="m 14.441772,108.60143 c 24.224676,0 43.217162,0 61.988094,0"
       inkscape:export-filename="D:\Documents\Unity\arcadegame1\arcadegame1\Assets\sprites\boards.png"
       inkscape:export-xdpi="96"
       inkscape:export-ydpi="96" />
    <path
       transform="matrix(2.927783,0,0,2.927783,-303.32145,-165.63603)"
       style="fill:none;stroke:#fcffff;stroke-width:0.68311074;stroke-linecap:round;stroke-linejoin:miter;stroke-miterlimit:4;stroke-dasharray:none;stroke-opacity:1"
       d="m 14.441772,107.16088 c 4.793052,-3.0969 4.071778,-2.18355 1.603903,0 v 4.87586 h -1.603903 z m 5.534966,0 c 4.793052,-3.0969 4.071778,-2.18355 1.603903,0 v 4.87586 h -1.603903 z m 5.534966,0 c 4.793052,-3.0969 4.071778,-2.18355 1.603903,0 v 4.87586 h -1.603903 z m 5.534966,0 c 4.793052,-3.0969 4.071778,-2.18355 1.603903,0 v 4.87586 H 31.04667 Z m 5.534966,0 c 4.793052,-3.0969 4.071778,-2.18355 1.603903,0 v 4.87586 h -1.603903 z m 5.534966,0 c 4.793052,-3.0969 4.071778,-2.18355 1.603903,0 v 4.87586 h -1.603903 z m 5.534966,0 c 4.793052,-3.0969 4.071778,-2.18355 1.603903,0 v 4.87586 h -1.603903 z m 5.534966,0 c 4.793052,-3.0969 4.071778,-2.18355 1.603903,0 v 4.87586 h -1.603903 z m 5.534966,0 c 4.793052,-3.0969 4.071778,-2.18355 1.603903,0 v 4.87586 H 58.7215 Z m 5.534966,0 c 4.793052,-3.0969 4.071778,-2.18355 1.603903,0 v 4.87586 h -1.603903 z m 5.534966,0 c 4.793052,-3.0969 4.071778,-2.18355 1.603903,0 v 4.87586 h -1.603903 z"
       id="path2578-0-0-8"
       inkscape:connector-curvature="0"
       sodipodi:nodetypes="cc"
       inkscape:path-effect="#path-effect7627-6-6"
       inkscape:original-d="m 14.441772,108.60143 c 24.224676,0 43.217162,0 61.988094,0"
       inkscape:export-filename="D:\Documents\Unity\arcadegame1\arcadegame1\Assets\sprites\boards.png"
       inkscape:export-xdpi="96"
       inkscape:export-ydpi="96" />
    <circle
       style="opacity:1;fill:#d5d5d5;fill-opacity:1;stroke:none;stroke-width:14.76193142;stroke-linecap:square;stroke-linejoin:miter;stroke-miterlimit:4;stroke-dasharray:none;stroke-opacity:1"
       id="path2432-26"
       cx="-261.534"
       cy="154.57932"
       r="16.599483"
       inkscape:export-filename="D:\Documents\Unity\arcadegame1\arcadegame1\Assets\sprites\boards.png"
       inkscape:export-xdpi="96"
       inkscape:export-ydpi="96" />
    <circle
       r="16.599483"
       cy="154.57932"
       cx="-80.046318"
       id="circle2434-7"
       style="opacity:1;fill:#d5d5d5;fill-opacity:1;stroke:none;stroke-width:14.76193142;stroke-linecap:square;stroke-linejoin:miter;stroke-miterlimit:4;stroke-dasharray:none;stroke-opacity:1"
       inkscape:export-filename="D:\Documents\Unity\arcadegame1\arcadegame1\Assets\sprites\boards.png"
       inkscape:export-xdpi="96"
       inkscape:export-ydpi="96" />
    <path
       style="opacity:1;fill:#fffcf9;fill-opacity:1;stroke:none;stroke-width:0.58418173;stroke-linecap:round;stroke-linejoin:miter;stroke-miterlimit:4;stroke-dasharray:none;stroke-opacity:0.54511276"
       d="m 140.38332,240.00471 a 4.2094951,4.2094951 0 0 0 -4.20956,4.20956 4.2094951,4.2094951 0 0 0 4.20956,4.20956 4.2094951,4.2094951 0 0 0 4.20956,-4.20956 4.2094951,4.2094951 0 0 0 -4.20956,-4.20956 z m 0,1.72289 a 2.4867482,2.4867482 0 0 1 2.48667,2.48667 2.4867482,2.4867482 0 0 1 -2.48667,2.48667 2.4867482,2.4867482 0 0 1 -2.48667,-2.48667 2.4867482,2.4867482 0 0 1 2.48667,-2.48667 z"
       id="path996"
       inkscape:connector-curvature="0"
       inkscape:export-filename="D:\Documents\Unity\arcadegame1\arcadegame1\Assets\sprites\store.png"
       inkscape:export-xdpi="96"
       inkscape:export-ydpi="96" />
    <rect
       style="opacity:1;fill:#fffcf9;fill-opacity:1;stroke:none;stroke-width:0.55636364;stroke-linecap:round;stroke-linejoin:miter;stroke-miterlimit:4;stroke-dasharray:none;stroke-opacity:0.54511276"
       id="rect994"
       width="10.690781"
       height="10.690781"
       x="134.97112"
       y="244.41473"
       inkscape:export-filename="D:\Documents\Unity\arcadegame1\arcadegame1\Assets\sprites\store.png"
       inkscape:export-xdpi="96"
       inkscape:export-ydpi="96" />
    <path
       inkscape:connector-curvature="0"
       id="path881"
       d="m 17.139232,-237.52501 v 3.51775 l 2.189532,1.26402 7.709425,4.45153 -7.709425,4.45049 -2.189532,1.26403 v 3.51774 l 7.996187,-4.61613 7.996182,-4.61613 -7.996182,-4.61717 z"
       style="opacity:1;fill:#c8c8c8;fill-opacity:1;stroke:#fffffb;stroke-width:4;stroke-linecap:round;stroke-linejoin:miter;stroke-miterlimit:4;stroke-dasharray:none;stroke-opacity:1"
       inkscape:export-filename="D:\Documents\Unity\arcadegame1\arcadegame1\Assets\sprites\boardTrail1.png"
       inkscape:export-xdpi="96"
       inkscape:export-ydpi="96" />
    <path
       inkscape:connector-curvature="0"
       id="path883"
       d="m 17.752472,-145.17985 h 14.765889 v 32.68044 H 17.752472 Z"
       style="opacity:1;fill:#000000;fill-opacity:0;stroke:#fffffb;stroke-width:4;stroke-linecap:round;stroke-linejoin:miter;stroke-miterlimit:4;stroke-dasharray:none;stroke-opacity:1"
       inkscape:export-filename="D:\Documents\Unity\arcadegame1\arcadegame1\Assets\sprites\boardTrail2.png"
       inkscape:export-xdpi="96"
       inkscape:export-ydpi="96" />
    <path
       id="path885"
       d="m 22.281557,-40.802424 h 5.707719 v 22.830883 h -5.707719 z"
       style="opacity:1;fill:#c8c8c8;fill-opacity:1;stroke:#fffffb;stroke-width:4;stroke-linecap:round;stroke-linejoin:miter;stroke-miterlimit:4;stroke-dasharray:none;stroke-opacity:1"
       inkscape:connector-curvature="0"
       inkscape:export-filename="D:\Documents\Unity\arcadegame1\arcadegame1\Assets\sprites\boardTrail3.png"
       inkscape:export-xdpi="96"
       inkscape:export-ydpi="96" />
    <g
       id="g891"
       inkscape:export-filename="D:\Documents\Unity\arcadegame1\arcadegame1\Assets\sprites\boardTrail4.png"
       inkscape:export-xdpi="96"
       inkscape:export-ydpi="96">
      <path
         inkscape:export-ydpi="96"
         inkscape:export-xdpi="96"
         inkscape:export-filename="D:\Documents\Unity\arcadegame1\arcadegame1\Assets\sprites\boardTrails.png"
         inkscape:connector-curvature="0"
         style="opacity:1;fill:#c8c8c8;fill-opacity:1;stroke:#fffffb;stroke-width:4;stroke-linecap:round;stroke-linejoin:miter;stroke-miterlimit:4;stroke-dasharray:none;stroke-opacity:1"
         d="m 18.933415,150.01176 c 20.679598,-17.581 17.567665,-12.39593 6.920031,0 v 27.68012 h -6.920031 z"
         id="path887"
         sodipodi:nodetypes="cccccc" />
      <path
         inkscape:export-ydpi="96"
         inkscape:export-xdpi="96"
         inkscape:export-filename="D:\Documents\Unity\arcadegame1\arcadegame1\Assets\sprites\boardTrails.png"
         inkscape:connector-curvature="0"
         style="opacity:1;fill:#c8c8c8;fill-opacity:1;stroke:#fffffb;stroke-width:4;stroke-linecap:round;stroke-linejoin:miter;stroke-miterlimit:4;stroke-dasharray:none;stroke-opacity:1"
         d="m 32.770797,177.69188 c -20.671586,17.57419 -17.560856,12.39114 -6.917351,0 v -27.66937 h 6.917351 z"
         id="path889"
         sodipodi:nodetypes="cccccc" />
    </g>
    <path
       style="fill:#ffffff;fill-rule:evenodd;stroke:#000000;stroke-width:1.365;stroke-miterlimit:4;stroke-dasharray:none;fill-opacity:1"
       d="m -535.96076,426.01907 c -2.91465,4.3666 -6.70242,7.96014 -11.22743,10.6493 l -23.61663,-39.11254 c -1.2567,0.71572 -2.20294,1.61112 -2.9746,2.81752 z m -24.04982,15.17798 c -4.81684,0.72992 -9.50141,0.64465 -13.94193,-0.20932 l 9.23949,-44.6454 c -0.70987,-0.0819 -1.5465,-0.0407 -2.62166,0.0772 z m -24.97469,-4.19203 c -1.42588,-0.78611 -2.80668,-1.66819 -4.13704,-2.64402 -2.13544,-1.54678 -4.1021,-3.25451 -5.88892,-5.10689 l 32.96076,-31.6221 c -0.10384,-0.0981 -0.23179,-0.20258 -0.3949,-0.32957 -0.20601,-0.16646 -0.41048,-0.30908 -0.61874,-0.43011 z m -16.34936,-16.17273 c -1.99593,-3.48477 -3.5111,-7.27093 -4.50276,-11.29548 l 44.35908,-10.78481 c -0.0905,-0.31783 -0.16015,-0.53291 -0.25184,-0.70826 z m -5.62881,-21.5945 c -0.0103,-3.84139 0.42756,-7.59095 1.29039,-11.19737 l 44.24906,11.01084 c -0.0572,0.0911 -0.0988,0.14005 -0.10155,0.0955 z m 4.52068,-20.31111 c 1.48415,-3.09637 3.32104,-6.02877 5.49176,-8.75545 0.14605,-0.18399 0.29319,-0.36681 0.44139,-0.54845 l 35.44541,28.77954 c -0.0113,0.0148 -0.0222,0.0295 -0.0329,0.0442 -0.0353,0.0707 -0.0936,0.1855 -0.15607,0.30276 z M -590.1,363.05486 c 2.63419,-2.25376 5.48112,-4.2211 8.50614,-5.88061 l 22.02105,40.02239 c -0.31931,0.18061 -0.63135,0.39252 -0.90144,0.61433 z m 16.84264,-9.51879 c 2.58108,-0.86059 5.25197,-1.52264 7.99623,-1.97602 0.76209,-0.10451 1.52257,-0.19374 2.28111,-0.26785 l 5.11109,45.29071 c -0.0753,0.02 -0.14711,0.0437 -0.2152,0.0713 -0.1937,0.0142 -0.41785,0.069 -0.65603,0.15424 z m 19.21415,-2.41995 c 3.3507,0.19884 6.63588,0.69711 9.82616,1.48099 l -11.17802,44.19883 c -0.50305,-0.15018 -0.99062,-0.24913 -1.43335,-0.28303 z m 17.97206,4.18923 c 3.00148,1.27363 5.88232,2.82075 8.61315,4.62751 l -25.13655,38.1578 c -0.4577,-0.29369 -0.95504,-0.56211 -1.46264,-0.79142 z m 15.35228,9.89122 c 2.34927,2.13885 4.50438,4.44671 6.45243,6.90182 l -35.81248,28.33877 c -0.41998,-0.53744 -0.87327,-1.03059 -1.34696,-1.45767 z m 11.08659,13.67823 c 1.57537,2.69637 2.93239,5.52089 4.05813,8.45181 l -42.57793,16.45912 c -0.24961,-0.62698 -0.55673,-1.25051 -0.90846,-1.84884 z m 6.47552,16.38457 c 0.40976,1.78779 0.73887,3.60459 0.98487,5.44625 0.14678,1.3366 0.25154,2.66902 0.31499,3.99581 l -45.48298,2.59483 c -0.0284,-0.28241 -0.0708,-0.55734 -0.12809,-0.82334 -0.0319,-0.34076 -0.0891,-0.6909 -0.16922,-1.04624 z m 1.16926,17.59227 c -0.2469,3.06406 -0.71624,6.08009 -1.39886,9.02905 l -44.34699,-10.51517 c 0.19605,-0.75674 0.33059,-1.50742 0.39447,-2.23299 z m -3.67763,16.61182 c -1.04925,2.81687 -2.30374,5.55003 -3.75431,8.18043 l -40.00609,-22.0809 c 0.39454,-0.71257 0.74478,-1.45476 1.04154,-2.20755 z m -8.01169,14.84384 c -0.95153,1.29695 -1.95638,2.56004 -3.01316,3.7864 -0.90632,1.05054 -1.84208,2.069 -2.80576,3.0545 l -32.64441,-31.9142 c 0.28317,-0.28988 0.5535,-0.58668 0.80945,-0.88953 0.26685,-0.31489 0.5248,-0.64578 0.77246,-0.98979 z m -11.51958,12.02739 c -2.27342,1.83704 -4.66147,3.51575 -7.14921,5.02749 l -23.72532,-39.03016 c 0.77368,-0.47079 1.51659,-0.98945 2.21378,-1.54735 z m -13.90653,8.61017 c -2.65096,1.21257 -5.38854,2.2506 -8.19781,3.10546 l -13.35089,-43.63117 c 0.83662,-0.26077 1.67047,-0.58562 2.48662,-0.96591 z m -15.73563,4.92452 c -1.46101,0.26353 -2.93666,0.47941 -4.42509,0.64657 -1.4772,0.1352 -2.95005,0.22399 -4.41689,0.26719 l -1.68785,-45.53416 c 0.43652,-0.0274 0.86603,-0.0737 1.28688,-0.13991 0.40781,-0.034 0.82005,-0.087 1.23486,-0.15795 z m -16.48385,0.72553 c -2.87999,-0.22792 -5.72429,-0.63236 -8.51959,-1.20679 l 9.355,-44.59003 c 0.93072,0.20729 1.85846,0.35086 2.76988,0.4242 z m -15.7439,-3.1034 c -2.69921,-0.86728 -5.33775,-1.89884 -7.90228,-3.08817 l 19.29989,-41.40151 c 0.89505,0.4234 1.8121,0.79531 2.73783,1.10922 z m -14.46261,-6.57261 c -2.42466,-1.46075 -4.76365,-3.07356 -7.00364,-4.83193 l 28.14681,-35.96859 c 0.7656,0.59364 1.5782,1.14801 2.42447,1.65661 z m -12.59692,-9.72535 c -2.00633,-1.94729 -3.89169,-3.99911 -5.64989,-6.14462 l 35.34543,-28.90936 c 0.65752,0.80802 1.35552,1.57175 2.08781,2.28034 z m -9.97356,-11.99141 c -1.53066,-2.3013 -2.92874,-4.68675 -4.18803,-7.1455 l 40.62492,-20.86043 c 0.48384,0.93593 1.01977,1.84797 1.60161,2.72523 z m -7.17385,-13.76859 c -1.01141,-2.57883 -1.87862,-5.22144 -2.59544,-7.91696 l 44.07409,-11.76847 c 0.26657,0.98738 0.59686,1.97124 0.98467,2.94071 z m -4.12887,-15.11537 c -0.24865,-1.54095 -0.44943,-3.09523 -0.60128,-4.661 -0.0981,-1.25072 -0.16584,-2.49877 -0.20364,-3.74326 l 45.55383,-1.73512 c 0.0268,0.45202 0.068,0.89987 0.12389,1.34268 0.0397,0.54058 0.10173,1.08486 0.18499,1.63098 z m -0.68406,-15.69478 c 0.17554,-2.75344 0.49754,-5.48037 0.96113,-8.17094 l 44.86269,7.86192 c -0.19337,1.05824 -0.32372,2.11398 -0.3862,3.15738 z m 2.50214,-15.15145 c 0.70793,-2.61929 1.55317,-5.1936 2.53087,-7.71305 l 42.51218,16.6384 c -0.41264,1.03293 -0.7714,2.08184 -1.07142,3.13689 z m 5.40194,-14.20136 c 1.20602,-2.41582 2.54023,-4.76816 3.99776,-7.04718 l 38.50229,24.59433 c -0.59762,0.9383 -1.15051,1.91105 -1.65379,2.90842 z m 8.10878,-12.86108 c 1.07399,-1.37831 2.19722,-2.72272 3.36841,-4.03061 0.64125,-0.71484 1.29414,-1.4171 1.95829,-2.10657 l 32.90002,31.65467 c -0.27971,0.29153 -0.55289,0.58747 -0.81915,0.88759 -0.46456,0.52152 -0.91367,1.06348 -1.34604,1.62326 z m 10.41621,-10.98056 c 2.0099,-1.75259 4.10103,-3.40063 6.26512,-4.93947 l 26.44429,37.23521 c -0.94734,0.6709 -1.85886,1.3851 -2.72629,2.13795 z m 12.11484,-8.72903 c 2.2856,-1.34394 4.63693,-2.5746 7.04573,-3.68732 l 19.20418,41.4243 c -1.05268,0.49201 -2.08503,1.03607 -3.08879,1.62751 z m 13.50288,-6.33692 c 2.50316,-0.90252 5.05656,-1.68303 7.65194,-2.33686 l 11.17968,44.22192 c -1.09988,0.28036 -2.19493,0.6215 -3.27688,1.01876 z m 14.56373,-3.76039 c 1.97923,-0.3184 3.97766,-0.56454 5.99189,-0.73653 0.68178,-0.0535 1.36366,-0.0984 2.0455,-0.1347 l 2.46231,45.59155 c -0.29593,0.0165 -0.59117,0.0368 -0.88557,0.061 -0.81313,0.053 -1.63098,0.14377 -2.45016,0.27037 z m 15.01157,-0.94558 c 2.64861,0.0847 5.28871,0.29789 7.9114,0.63827 l -5.88285,45.27723 c -1.16075,-0.15121 -2.3278,-0.24632 -3.49224,-0.28396 z m 14.7578,1.82457 c 2.58535,0.56208 5.14548,1.2501 7.67148,2.06266 l -13.9933,43.46225 c -1.10577,-0.35675 -2.23455,-0.66002 -3.37743,-0.90842 z m 14.18713,4.47743 c 2.42666,1.01782 4.79582,2.14338 7.10145,3.37112 l -21.49412,40.27561 c -1.05987,-0.56834 -2.13885,-1.08271 -3.2309,-1.53754 z m 13.01035,6.82915 c 2.18967,1.40249 4.31051,2.90228 6.35648,4.4938 l -28.03623,36.05546 c -0.96689,-0.75124 -1.96423,-1.45895 -2.98597,-2.11757 z m 11.55787,8.88459 c 1.91867,1.75476 3.75266,3.58782 5.49834,5.4927 l -33.67175,30.83318 c -0.83079,-0.90879 -1.69813,-1.77472 -2.59837,-2.5913 z m 9.88025,10.65972 c 1.58816,2.02572 3.08482,4.11756 4.48636,6.26905 l -38.27399,24.92146 c -0.68094,-1.04676 -1.40523,-2.06283 -2.16923,-3.04173 z m 7.94819,12.05612 c 1.2321,2.25098 2.36589,4.55592 3.39774,6.90833 l -41.78281,18.39833 c -0.50554,-1.13904 -1.06124,-2.25957 -1.66345,-3.3551 z m 5.87237,13.19539 c 0.85049,2.43058 1.59586,4.90293 2.23249,7.41057 l -44.19823,11.26379 c -0.3046,-1.18563 -0.66615,-2.36494 -1.08104,-3.53142 z m 3.65278,14.07757 c 0.44333,2.56448 0.77473,5.15856 0.99059,7.77575 l -45.52023,3.51784 c -0.0781,-1.18655 -0.21997,-2.37895 -0.42198,-3.5707 z m 1.24886,14.55152 c -0.001,2.5725 -0.11408,5.1402 -0.33715,7.69608 l -45.48269,-3.97867 c 0.1094,-1.24474 0.16474,-2.49189 0.16486,-3.7344 z m -1.17649,14.38097 c -0.41539,2.52973 -0.94004,5.04144 -1.57276,7.5281 l -44.24915,-11.25827 c 0.30804,-1.21088 0.56424,-2.43739 0.76743,-3.67249 z m -3.48357,14.00065 c -0.25582,0.75929 -0.52201,1.51555 -0.79857,2.26856 -0.61295,1.65497 -1.27147,3.28787 -1.97412,4.89712 l -41.84266,-18.24717 c 0.34711,-0.79797 0.66835,-1.60297 0.96227,-2.41343 0.1338,-0.36255 0.2627,-0.72743 0.38667,-1.09443 z m -5.66617,13.19032 c -1.18033,2.24629 -2.4499,4.43846 -3.80433,6.57169 l -38.52985,-24.5089 c 0.69357,-1.08639 1.34079,-2.19667 1.93726,-3.32602 z m -7.5562,12.0389 c -1.49973,2.02625 -3.08047,3.98933 -4.73782,5.88442 l -34.40404,-30.03038 c 0.85204,-0.97978 1.66597,-1.9925 2.43739,-3.03333 z m -9.27365,10.71646 c -1.78815,1.77677 -3.64205,3.47809 -5.55647,5.10106 l -29.50571,-34.84585 c 0.99736,-0.84257 1.95742,-1.72174 2.87494,-2.63459 z m -10.72337,9.18393 c -2.01641,1.48346 -4.08875,2.88603 -6.21178,4.20478 l -24.09954,-38.79702 c 1.11891,-0.69505 2.21034,-1.43214 3.26905,-2.20837 z m -11.90432,7.4756 c -2.20782,1.16969 -4.46176,2.25302 -6.75656,3.24709 l -18.20337,-41.86639 c 1.20363,-0.52703 2.38958,-1.10158 3.55264,-1.72072 z m -12.87792,5.65206 c -2.36239,0.83544 -4.76107,1.57906 -7.19081,2.22797 l -11.81718,-44.05393 c 1.25149,-0.33856 2.49513,-0.73008 3.72569,-1.17165 z m -13.64416,3.71328 c -2.48012,0.48072 -4.98671,0.86417 -7.51453,1.14744 l -4.94098,-45.35966 c 1.26251,-0.1296 2.52699,-0.31763 3.7882,-0.56116 z m -14.15707,1.64137 c -2.51021,0.0895 -5.01896,0.0804 -7.52051,-0.0261 l 1.94633,-45.61338 c 1.30998,0.0561 2.61908,0.0604 3.9216,0.0117 z m -14.07426,-0.5298 c -2.48458,-0.27655 -4.95696,-0.64969 -7.41144,-1.11842 l 8.56755,-44.84809 c 1.29311,0.24719 2.59608,0.4444 3.90318,0.59062 z m -13.81676,-2.56964 c -2.4187,-0.63543 -4.81448,-1.36557 -7.18163,-2.1894 l 15.01868,-43.11966 c 1.236,0.43115 2.49259,0.81422 3.76404,1.1482 z m -13.30152,-4.56362 c -2.28922,-0.97827 -4.53543,-2.03931 -6.73469,-3.17956 l 21.034,-40.51606 c 1.18633,0.61739 2.39124,1.18702 3.6108,1.70535 z m -12.40365,-6.35612 c -2.11397,-1.2763 -4.17754,-2.62869 -6.18676,-4.05363 l 26.43528,-37.24124 c 1.10273,0.78404 2.23143,1.527 3.38217,2.22532 z m -11.33925,-7.96299 c -1.70007,-1.37831 -3.35439,-2.81157 -4.96019,-4.29727 -0.20017,-0.18519 -0.39955,-0.37112 -0.59814,-0.55778 l 31.24314,-33.29735 c 0.1085,0.10146 0.21737,0.20241 0.32662,0.30285 0.88846,0.81672 1.803,1.60588 2.74083,2.365 z m -10.13443,-9.43682 c -1.6826,-1.79437 -3.29754,-3.64562 -4.84243,-5.54945 l 35.4741,-28.75149 c 0.85763,1.06044 1.75093,2.08732 2.67751,3.07632 z m -8.73954,-10.67091 c -1.42033,-1.99264 -2.76851,-4.03409 -4.04218,-6.12002 l 38.97885,-23.8041 c 0.71544,1.1712 1.47102,2.31692 2.26435,3.43286 z m -7.21623,-11.70143 c -1.14127,-2.16058 -2.20593,-4.36187 -3.19159,-6.59957 l 41.7574,-18.4552 c 0.55648,1.25162 1.15757,2.48585 1.80087,3.69838 z m -5.59848,-12.56119 c -0.84544,-2.29817 -1.6098,-4.62897 -2.29069,-6.98809 l 43.80976,-12.70479 c 0.38074,1.3017 0.81055,2.5941 1.28706,3.87288 z m -3.88633,-13.25019 c -0.53284,-2.40543 -0.98012,-4.83539 -1.33946,-7.28559 l 45.13592,-6.55285 c 0.18822,1.32143 0.42999,2.64165 0.72292,3.95634 z m -2.07977,-13.76843 c -0.0526,-0.64126 -0.0991,-1.28362 -0.13961,-1.92701 -0.10374,-1.82229 -0.15902,-3.64472 -0.16618,-5.46536 l 45.65514,-0.19145 c 0.005,1.00885 0.0367,2.01567 0.0965,3.01855 0.0165,0.34064 0.0367,0.68154 0.0606,1.0226 z m -0.13041,-13.83287 c 0.14291,-2.44543 0.37252,-4.88345 0.68795,-7.30934 l 45.27544,5.89528 c -0.17719,1.35741 -0.30627,2.72001 -0.38639,4.08307 z m 1.71394,-13.65348 c 0.46514,-2.40099 1.01535,-4.7857 1.64976,-7.1494 l 44.09893,11.83535 c -0.35457,1.32128 -0.66269,2.65663 -0.92347,4.00131 z m 3.51023,-13.3097 c 0.4074,-1.21151 0.83749,-2.41618 1.29014,-3.61333 0.41617,-1.09364 0.84973,-2.17901 1.30035,-3.25577 l 42.12882,17.58775 c -0.25266,0.60785 -0.49426,1.21895 -0.72447,1.83294 -0.25173,0.66369 -0.49116,1.33301 -0.71816,2.00727 z m 5.23476,-12.69362 c 1.06995,-2.18166 2.21183,-4.32281 3.42271,-6.42017 l 39.52416,22.85531 c -0.69895,1.20535 -1.35509,2.43107 -1.96549,3.67388 z m 6.76179,-11.82902 c 1.32951,-2.01811 2.72544,-3.98954 4.18486,-5.91102 l 36.36652,27.62819 c -0.84924,1.11737 -1.66117,2.26126 -2.43287,3.4284 z m 8.16443,-10.84349 c 0.97796,-1.14198 1.9796,-2.26341 3.00421,-3.36351 0.62158,-0.6674 1.25096,-1.32651 1.88793,-1.97721 l 32.64249,31.92343 c -0.36727,0.37616 -0.72918,0.75664 -1.08554,1.14134 -0.59517,0.64251 -1.17755,1.29725 -1.74643,1.96342 z m 9.45984,-9.74528 c 1.78321,-1.62302 3.61689,-3.185 5.49744,-4.68395 l 28.44279,35.72353 c -1.10457,0.87778 -2.17815,1.78979 -3.21712,2.73404 z m 10.545,-8.47673 c 1.95988,-1.38698 3.96346,-2.70917 6.00712,-3.9646 l 23.90807,38.9152 c -1.20816,0.74237 -2.39209,1.5227 -3.5482,2.339 z m 11.46775,-7.10883 c 2.11112,-1.13692 4.25917,-2.20533 6.44052,-3.20324 l 19.03834,41.49844 c -1.28632,0.59297 -2.5552,1.22762 -3.80302,1.90197 z m 12.24742,-5.66213 c 2.23694,-0.87287 4.50404,-1.67349 6.79766,-2.39989 l 13.8336,43.47326 c -1.33908,0.42956 -2.66748,0.90454 -3.98159,1.42294 z m 12.88402,-4.13665 c 2.33735,-0.59482 4.69807,-1.11367 7.07855,-1.55456 l 8.29382,44.83966 c -1.3664,0.25216 -2.7289,0.55346 -4.08389,0.90193 z m 13.37756,-2.53241 c 2.41233,-0.30278 4.84126,-0.52585 7.28317,-0.66723 l 2.41903,45.59762 c -1.3683,0.0608 -2.73948,0.17441 -4.10993,0.33893 z"
       id="path5807"
       inkscape:path-effect="#path-effect5810"
       inkscape:original-d="m -561.67261,403.58929 c 0,-4.43456 5.9777,-2.18786 7.37054,0 3.77449,5.92895 -1.66001,12.92336 -7.37053,14.74108 -10.21477,3.25147 -20.04467,-5.00085 -22.11161,-14.74106 -3.03333,-14.29415 8.35662,-27.29298 22.11158,-29.48216 18.3332,-2.91783 34.59035,11.71372 36.8527,29.48212 2.84694,22.35971 -15.07048,41.91206 -36.85265,44.22324 -26.38112,2.79914 -49.24769,-18.42685 -51.59378,-44.22318 -2.76477,-30.40009 21.78294,-56.59203 51.59371,-58.96432 34.41772,-2.7389 63.94218,25.13885 66.33486,58.96424 2.71872,38.43455 -28.49465,71.2964 -66.33477,73.7054 -42.45089,2.70254 -78.65358,-31.85037 -81.07594,-73.7053 -2.68928,-46.46691 35.20603,-86.01298 81.07583,-88.44648" />
    <path
       inkscape:connector-curvature="0"
       id="path5812"
       d="m -260.94984,319.37353 v 3.6807 l 2.29095,1.32262 8.06659,4.65774 -8.06659,4.65666 -2.29095,1.32257 v 3.6807 l 8.36661,-4.82996 8.36661,-4.82997 -8.36661,-4.8311 z"
       style="opacity:1;fill:#c8c8c8;fill-opacity:1;stroke:#fffffb;stroke-width:3.388;stroke-linecap:round;stroke-linejoin:miter;stroke-miterlimit:4;stroke-dasharray:none;stroke-opacity:1" />
    <path
       inkscape:export-ydpi="96"
       inkscape:export-xdpi="96"
       inkscape:export-filename="D:\Documents\Unity\arcadegame1\arcadegame1\Assets\sprites\boardTrail3.png"
       inkscape:connector-curvature="0"
       style="opacity:1;fill:#e1c8c8;fill-opacity:1;stroke:#fffffb;stroke-width:4;stroke-linecap:round;stroke-linejoin:miter;stroke-miterlimit:4;stroke-dasharray:none;stroke-opacity:1"
       d="m -334.52797,409.7452 h 5.70772 v 22.83088 h -5.70772 z"
       id="path5828" />
  </g>
</svg>
