<?xml version="1.0" encoding="UTF-8" standalone="no"?>
<!-- Created with Inkscape (http://www.inkscape.org/) -->

<svg
   xmlns:dc="http://purl.org/dc/elements/1.1/"
   xmlns:cc="http://creativecommons.org/ns#"
   xmlns:rdf="http://www.w3.org/1999/02/22-rdf-syntax-ns#"
   xmlns:svg="http://www.w3.org/2000/svg"
   xmlns="http://www.w3.org/2000/svg"
   xmlns:sodipodi="http://sodipodi.sourceforge.net/DTD/sodipodi-0.dtd"
   xmlns:inkscape="http://www.inkscape.org/namespaces/inkscape"
   width="210mm"
   height="297mm"
   viewBox="0 0 210 297"
   version="1.1"
   id="svg6266"
   inkscape:version="0.92.4 (5da689c313, 2019-01-14)"
   sodipodi:docname="drawing.svg">
  <defs
     id="defs6260">
    <inkscape:path-effect
       effect="skeletal"
       id="path-effect7265"
       is_visible="true"
       pattern="#path7222"
       copytype="repeated_stretched"
       prop_scale="0.35"
       scale_y_rel="false"
       spacing="-12"
       normal_offset="0"
       tang_offset="0"
       prop_units="false"
       vertical_pattern="false"
       fuse_tolerance="0" />
    <inkscape:path-effect
       effect="skeletal"
       id="path-effect7067"
       is_visible="true"
       pattern="M 0,0 H 1"
       copytype="repeated_stretched"
       prop_scale="1"
       scale_y_rel="false"
       spacing="0"
       normal_offset="0"
       tang_offset="0"
       prop_units="false"
       vertical_pattern="false"
       fuse_tolerance="0" />
    <inkscape:path-effect
       effect="skeletal"
       id="path-effect6827"
       is_visible="true"
       pattern="M 0,0 H 1"
       copytype="repeated_stretched"
       prop_scale="-1000000"
       scale_y_rel="false"
       spacing="11.4"
       normal_offset="1"
       tang_offset="0"
       prop_units="false"
       vertical_pattern="true"
       fuse_tolerance="1" />
    <filter
       inkscape:collect="always"
       style="color-interpolation-filters:sRGB"
       id="filter8088"
       x="-0.067536056"
       width="1.1350721"
       y="-0.25390586"
       height="1.5078117">
      <feGaussianBlur
         inkscape:collect="always"
         stdDeviation="4.2279343"
         id="feGaussianBlur8090" />
    </filter>
    <filter
       inkscape:collect="always"
       style="color-interpolation-filters:sRGB"
       id="filter8128"
       x="-0.031990763"
       width="1.0639815"
       y="-0.1202712"
       height="1.2405424">
      <feGaussianBlur
         inkscape:collect="always"
         stdDeviation="2.0027057"
         id="feGaussianBlur8130" />
    </filter>
    <filter
       inkscape:collect="always"
       style="color-interpolation-filters:sRGB"
       id="filter8804"
       x="-0.11658856"
       width="1.2331771"
       y="-0.4383217"
       height="1.8766434">
      <feGaussianBlur
         inkscape:collect="always"
         stdDeviation="7.2987497"
         id="feGaussianBlur8806" />
    </filter>
  </defs>
  <sodipodi:namedview
     id="base"
     pagecolor="#c8c8c8"
     bordercolor="#666666"
     borderopacity="1.0"
     inkscape:pageopacity="1"
     inkscape:pageshadow="2"
     inkscape:zoom="0.22627417"
     inkscape:cx="1125.3624"
     inkscape:cy="-306.93373"
     inkscape:document-units="mm"
     inkscape:current-layer="layer1"
     showgrid="false"
     inkscape:window-width="1920"
     inkscape:window-height="1001"
     inkscape:window-x="-9"
     inkscape:window-y="-9"
     inkscape:window-maximized="1" />
  <metadata
     id="metadata6263">
    <rdf:RDF>
      <cc:Work
         rdf:about="">
        <dc:format>image/svg+xml</dc:format>
        <dc:type
           rdf:resource="http://purl.org/dc/dcmitype/StillImage" />
        <dc:title></dc:title>
      </cc:Work>
    </rdf:RDF>
  </metadata>
  <g
     inkscape:label="Layer 1"
     inkscape:groupmode="layer"
     id="layer1">
    <rect
       style="opacity:0.91000001;fill:#010000;fill-opacity:1;stroke:none;stroke-width:5.98799992;stroke-linecap:round;stroke-miterlimit:6;stroke-dasharray:none;stroke-opacity:0.98804782"
       id="rect7328"
       width="502.70831"
       height="418.37238"
       x="134.77214"
       y="140.73045"
       ry="1.1368696e-13" />
    <text
       xml:space="preserve"
       style="font-style:normal;font-variant:normal;font-weight:normal;font-stretch:normal;font-size:42.87368011px;line-height:1.25;font-family:'Liberation Mono';-inkscape-font-specification:'Liberation Mono, Normal';font-variant-ligatures:normal;font-variant-caps:normal;font-variant-numeric:normal;font-feature-settings:normal;text-align:start;letter-spacing:0px;word-spacing:0px;writing-mode:lr-tb;text-anchor:start;fill:#041564;fill-opacity:1;stroke:#001773;stroke-width:6;stroke-miterlimit:4;stroke-dasharray:none;stroke-opacity:1;filter:url(#filter8804)"
       x="271.2435"
       y="394.70468"
       id="text7309"
       transform="matrix(2.3138193,0,0,2.9614052,-422.39132,-722.72895)"
       inkscape:export-xdpi="96"
       inkscape:export-ydpi="96"><tspan
         sodipodi:role="line"
         id="tspan7307"
         x="271.2435"
         y="394.70468"
         style="font-style:normal;font-variant:normal;font-weight:normal;font-stretch:normal;font-size:42.87368011px;font-family:'Liberation Mono';-inkscape-font-specification:'Liberation Mono, Normal';font-variant-ligatures:normal;font-variant-caps:normal;font-variant-numeric:normal;font-feature-settings:normal;text-align:start;writing-mode:lr-tb;text-anchor:start;fill:#041564;fill-opacity:1;stroke:#001773;stroke-width:6;stroke-miterlimit:4;stroke-dasharray:none;stroke-opacity:1">Spiral</tspan></text>
    <text
       transform="matrix(2.3138193,0,0,2.9614052,-422.39132,-523.77408)"
       id="text7374"
       y="327.52209"
       x="271.2435"
       style="font-style:normal;font-variant:normal;font-weight:normal;font-stretch:normal;font-size:42.87368011px;line-height:1.25;font-family:'Liberation Mono';-inkscape-font-specification:'Liberation Mono, Normal';font-variant-ligatures:normal;font-variant-caps:normal;font-variant-numeric:normal;font-feature-settings:normal;text-align:start;letter-spacing:0px;word-spacing:0px;writing-mode:lr-tb;text-anchor:start;fill:#165abc;fill-opacity:0.86454181;stroke:#00289b;stroke-width:4;stroke-miterlimit:4;stroke-dasharray:none;stroke-opacity:1;filter:url(#filter8088)"
       xml:space="preserve"
       inkscape:export-xdpi="96"
       inkscape:export-ydpi="96"><tspan
         style="font-style:normal;font-variant:normal;font-weight:normal;font-stretch:normal;font-size:42.87368011px;font-family:'Liberation Mono';-inkscape-font-specification:'Liberation Mono, Normal';font-variant-ligatures:normal;font-variant-caps:normal;font-variant-numeric:normal;font-feature-settings:normal;text-align:start;writing-mode:lr-tb;text-anchor:start;fill:#165abc;fill-opacity:0.86454181;stroke:#00289b;stroke-width:4;stroke-miterlimit:4;stroke-dasharray:none;stroke-opacity:1"
         y="327.52209"
         x="271.2435"
         id="tspan7372"
         sodipodi:role="line">Spiral</tspan></text>
    <text
       xml:space="preserve"
       style="font-style:normal;font-variant:normal;font-weight:normal;font-stretch:normal;font-size:42.87368011px;line-height:1.25;font-family:'Liberation Mono';-inkscape-font-specification:'Liberation Mono, Normal';font-variant-ligatures:normal;font-variant-caps:normal;font-variant-numeric:normal;font-feature-settings:normal;text-align:start;letter-spacing:0px;word-spacing:0px;writing-mode:lr-tb;text-anchor:start;fill:#5098cf;fill-opacity:0.76892431;stroke:#3e77a2;stroke-width:2.67199993;stroke-miterlimit:4;stroke-dasharray:none;stroke-opacity:0.98039216;filter:url(#filter8128)"
       x="271.2435"
       y="255.68842"
       id="text7378"
       transform="matrix(2.3138193,0,0,2.9614052,-422.39133,-311.04546)"
       inkscape:export-xdpi="96"
       inkscape:export-ydpi="96"><tspan
         sodipodi:role="line"
         id="tspan7376"
         x="271.2435"
         y="255.68842"
         style="font-style:normal;font-variant:normal;font-weight:normal;font-stretch:normal;font-size:42.87368011px;font-family:'Liberation Mono';-inkscape-font-specification:'Liberation Mono, Normal';font-variant-ligatures:normal;font-variant-caps:normal;font-variant-numeric:normal;font-feature-settings:normal;text-align:start;writing-mode:lr-tb;text-anchor:start;fill:#5098cf;fill-opacity:0.76892431;stroke:#3e77a2;stroke-width:2.67199993;stroke-miterlimit:4;stroke-dasharray:none;stroke-opacity:0.98039216">Spiral</tspan></text>
    <path
       transform="translate(14.741071,-5.2916667)"
       inkscape:connector-curvature="0"
       inkscape:original-d="M 188.23214,31.660713 A 74.083336,74.083336 0 0 1 114.1488,105.74405 74.083336,74.083336 0 0 1 40.065468,31.660713 74.083336,74.083336 0 0 1 114.1488,-42.422623 74.083336,74.083336 0 0 1 188.23214,31.660713 Z"
       inkscape:path-effect="#path-effect6827"
       id="path6811"
       d="M 500188.23,31.660713 H 1500188.2 M 487074.53,86930.575 1460849.2,260705.4 M 465761.69,165631.89 1396916.6,496787.16 M 436249.92,236135.42 1308390.6,708276.71 M 398539.4,298440.96 1195271.6,895173.87 M 352630.32,352548.32 1057559.5,1057478.5 M 298522.88,398457.32 895254.68,1195190.3 M 236217.26,436167.76 708357.28,1308309.1 M 165713.66,465679.45 496867.49,1396834.8 M 87012.268,486992.2 260785.51,1460767.2 M 114.14873,500105.28 V 1500104.3 M -86785.572,486991.87 -260562.01,1460766.2 m 95075.2,-995087.24 -331156.72,931154.44 M -235990.26,436167.11 -708132.85,1308307.2 M -298295.72,398456.51 -895029.77,1195187.8 M -352403,352547.35 -1057334.1,1057475.5 M -398311.92,298439.83 -1195045.7,895170.49 M -436022.28,236134.13 -1308164.3,708272.84 M -465533.89,165630.45 -1396689.8,496782.81 M -486846.57,86928.97 -1460621.9,260700.59 M -499959.76,29.891115 -1499959.4,26.352371 M -486845.9,-86868.869 l -973774,-173778.061 m 995087,95076.9 -931153.9,-331158.17 m 960665.83,260654.81 -872139.43,-472143.88 m 909850.11,409838.5 -796730.51,-596735.19 m 842639.75,542627.99 -704927.25,-704932.13 m 759034.85,659023.29 -596729.53,-796734.59 m 659035.31,759024.31 -472137.43,-872142.71 M -165483.91,-465616.63 -496634.82,-1396773 M -86782.351,-486929.22 -260552.35,-1460704.9 M 116.81024,-500042.16 122.13242,-1500041.6 M 87015.489,-486928.21 260795.17,-1460701.8 m -95078.6,995086.66 331159.63,-931153.36 m -260656.35,960665.37 472145.18,-872138.77 m -409839.88,909849.53 596736.32,-796729.73 m -542629.2,842639.05 704933.03,-704926.25 m -659024.27,759033.93 796735.37,-596728.39 m -759025.17,659034.25 872143.37,-472136.13 m -842631.92,542639.97 931156.82,-331149.46 m -909844.3,409851.099 973776,-173768.389"
       style="opacity:1;fill:#e1e1e1;fill-opacity:1;stroke:#000000;stroke-width:2.92199993;stroke-linecap:round;stroke-miterlimit:4;stroke-dasharray:none;stroke-opacity:1" />
    <g
       id="g6824">
      <rect
         ry="1.1368696e-13"
         y="129.68927"
         x="-145.39462"
         height="4.2763124"
         width="29.934185"
         id="rect6813"
         style="opacity:1;fill:#000000;fill-opacity:1;stroke:none;stroke-width:2.92199993;stroke-linecap:round;stroke-miterlimit:4;stroke-dasharray:none;stroke-opacity:1" />
      <rect
         style="opacity:1;fill:#000000;fill-opacity:1;stroke:none;stroke-width:2.92199993;stroke-linecap:round;stroke-miterlimit:4;stroke-dasharray:none;stroke-opacity:1"
         id="rect6815"
         width="29.934185"
         height="4.2763124"
         x="-145.39462"
         y="159.54939"
         ry="1.1368696e-13" />
      <rect
         ry="1.1368696e-13"
         y="133.69539"
         x="-135.63673"
         height="27.044203"
         width="9.0145864"
         id="rect6817"
         style="opacity:1;fill:#000000;fill-opacity:1;stroke:none;stroke-width:2.92199993;stroke-linecap:round;stroke-miterlimit:4;stroke-dasharray:none;stroke-opacity:1" />
    </g>
    <path
       style="fill:none;stroke:#000000;stroke-width:5;stroke-linecap:butt;stroke-linejoin:miter;stroke-opacity:1;stroke-miterlimit:4;stroke-dasharray:none"
       d="m -88.282464,250.81248 h -36.248426 v 20.46282 h 36.248426 v 22.21678 h -36.248426"
       id="path7102"
       inkscape:connector-curvature="0" />
    <path
       id="path1610"
       d="m 60.198634,-61.521054 c 0,0 12.29751,-46.025646 12.29751,-46.025646 0,0 -20.46212,-0.14333 -20.46212,-0.14333 0,0 -9.75873,36.296 -9.75873,36.296 0,0 -19.459635,-10.719233 -19.459635,-10.719233 0,0 7.002342,-25.732387 7.002342,-25.732387 m -0.717687,81.113577 c 0,0 31.09832,-34.788981 31.09832,-34.788981 0,0 -17.92334,-9.872976 -17.92334,-9.872976 0,0 -25.113013,28.042524 -25.113013,28.042524 0,0 -12.961296,-18.04396 -12.961296,-18.04396 0,0 18.614674,-20.717797 18.614674,-20.717797 M -14.87033,-8.8933528 c 0,0 43.970644,-17.8387202 43.970644,-17.8387202 0,0 -11.938033,-16.619433 -11.938033,-16.619433 0,0 -34.834964,14.188296 -34.834964,14.188296 0,0 -3.042555,-22.007275 -3.042555,-22.007275 0,0 24.916223,-10.224981 24.916223,-10.224981 m -66.930176,46.164543 c 0,0 47.858861,6.3375702 47.858861,6.3375702 0,0 -2.802353,-20.2698572 -2.802353,-20.2698572 0,0 -37.244271,-4.980419 -37.244271,-4.980419 0,0 8.481858,-20.533796 8.481858,-20.533796 0,0 25.719858,3.50694 25.719858,3.50694 m -80.130462,8.79034 c 0,0 38.116509,27.149222 38.116509,27.149222 0,0 7.812237,-18.912706 7.812237,-18.912706 0,0 -30.648863,-21.847083 -30.648863,-21.847083 0,0 16.58959,-14.777191 16.58959,-14.777191 0,0 22.541131,16.090478 22.541131,16.090478 m -77.113084,-28.955644 c 0,0 22.70248,41.252924 22.70248,41.252924 0,0 15.279883,-13.610567 15.279883,-13.610567 0,0 -18.214023,-32.927554 -18.214023,-32.927554 0,0 21.462781,-5.738214 21.462781,-5.738214 0,0 13.340832,23.888577 13.340832,23.888577 m -54.571923,-60.991477 c 0,0 -3e-5,48.126311 -3e-5,48.126311 0,0 19.76834,-5.285197 19.76834,-5.285197 0,0 2e-5,-37.555834 2e-5,-37.555834 0,0 21.462749,5.73831 21.462749,5.73831 0,0 1.2e-5,26.07931 1.2e-5,26.07931 m -18.528751,-78.35598 c 0,0 -22.70234,41.25308 -22.70234,41.25308 0,0 19.76833,5.28528 19.76833,5.28528 0,0 18.213809,-32.92771 18.213809,-32.92771 0,0 16.589504,14.77729 16.589504,14.77729 0,0 -13.340564,23.88873 -13.340564,23.88873 m 19.587947,-79.42576 c 0,0 -38.116686,27.14909 -38.116686,27.14909 0,0 15.279799,13.61065 15.279799,13.61065 0,0 30.648945,-21.84697 30.648945,-21.84697 0,0 8.481663,20.53388 8.481663,20.53388 0,0 -22.541104,16.09038 -22.541104,16.09038 m 54.10622,-61.87441 c 0,0 -47.858837,6.33738 -47.858837,6.33738 0,0 7.812058,18.91277 7.812058,18.91277 0,0 37.244306,-4.98031 37.244306,-4.98031 0,0 -3.042687,22.00725 -3.042687,22.00725 0,0 -25.719956,3.50694 -25.719956,3.50694 m 75.535474,-27.94526 c 0,0 -43.970358,-17.83877 -43.970358,-17.83877 0,0 -2.802473,20.26984 -2.802473,20.26984 0,0 34.834896,14.18843 34.834896,14.18843 0,0 -12.96119,18.04404 -12.96119,18.04404 0,0 -24.916393,-10.22522 -24.916393,-10.22522 m 80.913841,10.35084 c 0,0 -31.098323,-34.78916 -31.098323,-34.78916 0,0 -11.937935,16.6195 -11.937935,16.6195 0,0 25.112908,28.04262 25.112908,28.04262 0,0 -19.459641,10.71922 -19.459641,10.71922 0,0 -18.614457,-20.7178 -18.614457,-20.7178 m 68.294838,46.15129 c 0,0 -12.29739,-46.02567 -12.29739,-46.02567 0,0 -17.92335,9.87296 -17.92335,9.87296 0,0 9.75862,36.29604 9.75862,36.29604 0,0 -22.216023,0.15562 -22.216023,0.15562 0,0 -7.002238,-25.73244 -7.002238,-25.73244"
       style="fill:none;stroke:#c8c8c8;stroke-width:5;stroke-linecap:butt;stroke-linejoin:miter;stroke-miterlimit:4;stroke-dasharray:none;stroke-opacity:1"
       inkscape:connector-curvature="0"
       inkscape:export-xdpi="96"
       inkscape:export-ydpi="96" />
    <path
       style="fill:none;stroke:#000000;stroke-width:3.90769172;stroke-linecap:butt;stroke-linejoin:miter;stroke-miterlimit:4;stroke-dasharray:none;stroke-opacity:1"
       d="m 43.503591,99.959452 c 13.561985,-24.247184 135.156759,-350.048002 26.926534,0 -8.984613,29.058848 2.398011,62.256568 33.066735,-1.240234"
       id="path7222"
       inkscape:connector-curvature="0"
       sodipodi:nodetypes="csc" />
    <path
       style="opacity:0.91;fill:#ffffff;fill-opacity:0;stroke:#c8c8c8;stroke-width:5.98800003;stroke-linecap:round;stroke-miterlimit:6.0000001;stroke-dasharray:none;stroke-opacity:1"
       d="m 362.64388,33.029567 c 1.10621,1.245299 3.87587,3.781843 7.13489,7.822019 3.33055,4.128846 6.91348,9.519891 10.04632,16.509425 6.60666,14.739813 8.91234,31.579887 7.53068,46.478739 -1.44864,15.62108 -5.03449,19.4151 -6.20967,13.36676 -0.75517,-3.88665 -1.16032,-11.60923 -3.49389,-23.040635 -2.19379,-10.746671 -6.88283,-27.35316 -17.91336,-41.447426 -3.77065,-4.817942 -9.25481,-5.294403 -11.55477,-2.623622 -2.95858,3.435602 -1.56356,8.740095 -0.10794,25.333186 m -0.0643,-0.628737 c 0.0842,3.650054 2.08249,14.895629 -0.58663,30.347824 -2.79034,16.15392 -9.76186,31.20756 -19.4563,42.87309 -10.35145,12.45612 -15.38224,12.95017 -12.95521,7.62998 1.65469,-3.62721 5.84013,-10.21441 10.26359,-20.96266 4.29963,-10.44737 9.04224,-26.10618 7.91472,-44.685125 -0.37935,-6.250724 -4.63942,-9.758975 -8.25399,-8.619629 -4.7338,1.492141 -6.2311,6.933155 -13.84281,21.563624 m 0.27822,-0.5546 c -2.07302,3.43527 -7.28448,16.36892 -21.67834,28.30244 -9.06701,7.46077 -19.8604,12.75444 -30.71648,15.87133 -10.49767,3.01399 -19.53585,3.51025 -22.90587,2.71348 -3.96578,-0.93761 -0.33768,-2.52928 9.48163,-6.855 4.78791,-2.10922 12.30301,-5.50197 19.99158,-10.41802 7.69849,-4.9224 17.11519,-12.33614 24.14914,-22.87917 0.70224,-1.01088 1.38352,-2.04909 2.04101,-3.11503 3.39716,-5.50754 1.50347,-11.078597 -2.04101,-12.17987 -4.21003,-0.711234 -7.98708,2.738853 -22.24347,8.81069 m 0.56509,-0.25087 c -1.56187,0.55162 -4.91318,2.17435 -9.84239,3.86904 -5.0215,1.72641 -11.35943,3.40402 -19.00814,4.28197 -16.21607,1.86136 -32.84284,-0.55292 -46.72417,-6.15412 -14.59417,-5.888823 -16.986,-10.444882 -10.98884,-9.826741 3.92139,0.404188 11.39296,2.246211 22.99531,3.240336 11.10725,0.951702 27.95288,1.025748 45.23508,-5.16008 5.83917,-2.090021 8.01021,-7.167914 5.95802,-10.350377 -2.61517,-4.055514 -8.39306,-4.405263 -24.8885,-7.604612 m 0.62524,0.11207 C 227.97715,73.911198 216.14867,72.668359 202.35772,65.667707 187.73423,58.244439 175.57008,46.711799 167.41236,33.029569 162.52231,24.0861 160.9018,17.05357 162.16238,16.366538 c 1.33907,-0.729805 5.24719,5.547834 16.58316,16.663021 0,4e-6 1e-5,9e-6 1e-5,9e-6 8.68224,8.252183 22.65343,19.152583 42.33405,23.653933 5.98731,1.369418 10.50887,-1.649388 10.60699,-5.193222 0.13274,-4.794313 -4.31006,-7.122466 -14.95147,-18.460711 -0.14479,-0.143163 -0.29028,-0.287938 -0.43645,-0.434346 m 0.44765,0.43431 c -1.10621,-1.2453 -3.87586,-3.781846 -7.13488,-7.822023 -3.33055,-4.128848 -6.91349,-9.519894 -10.04632,-16.5094301 -6.60665,-14.7398165 -8.91232,-31.5798909 -7.53066,-46.4787379 1.44865,-15.621086 5.0345,-19.415102 6.20968,-13.366763 0.75517,3.886649 1.16032,11.609236 3.49388,23.040637 2.19378,10.746673 6.88282,27.35316383 17.91334,41.447435 3.77064,4.817944 9.25481,5.294408 11.55477,2.623627 2.95858,-3.4356 1.56356,-8.7400947 0.10795,-25.3331861 m 0.0643,0.6287364 c -0.0842,-3.6500533 -2.08249,-14.8956303 0.58664,-30.3478253 2.79035,-16.153917 9.76188,-31.207554 19.45633,-42.873082 10.35145,-12.456116 15.38224,-12.950161 12.95521,-7.629971 -1.6547,3.627207 -5.84013,10.214404 -10.2636,20.962657 -4.29963,10.447363 -9.04225,26.106171 -7.91474,44.685119 0.37934,6.250724 4.63941,9.758977 8.25398,8.619632 4.73381,-1.492139 6.2311,-6.933152 13.84283,-21.563619 m -0.27823,0.554605 c 0.97006,-1.607519 2.81171,-5.729097 6.21885,-10.964358 3.47095,-5.333303 8.3716,-11.461698 15.45946,-17.338031 9.06701,-7.460779 19.86041,-12.754457 30.7165,-15.871347 10.49768,-3.013988 19.53587,-3.510246 22.9059,-2.713484 3.96579,0.937617 0.33769,2.529285 -9.48163,6.854999 -4.78792,2.109226 -12.30303,5.501971 -19.99161,10.418031 -7.6985,4.922398 -17.11521,12.336143 -24.14916,22.879189 -0.70223,1.010863 -1.3835,2.049057 -2.04098,3.114977 -3.39715,5.507527 -1.50348,11.078575 2.04098,12.179867 4.21002,0.711261 7.98708,-2.738829 22.2435,-8.810673 m -0.56509,0.250866 c 3.57472,-1.262507 13.05482,-6.337898 28.85053,-8.150995 16.21608,-1.861348 32.84284,0.55294 46.72417,6.15414 14.59417,5.888832 16.986,10.444893 10.98884,9.826749 -3.92139,-0.404189 -11.39296,-2.246216 -22.99531,-3.240346 -11.10725,-0.951706 -27.95288,-1.02576 -45.23508,5.160061 -5.83917,2.090018 -8.01021,7.167911 -5.95802,10.350374 2.61517,4.055516 8.39306,4.405267 24.88849,7.6046229 m -0.62524,-0.1120701 c 3.37633,0.8815589 15.12036,2.1201725 28.82334,9.03173269 14.53279,7.33010281 26.69457,18.73283451 34.92547,32.37592851 8.93417,14.808802 7.58035,19.874271 3.29014,15.595084 -3.00408,-2.996368 -8.07356,-9.62145 -16.94266,-17.57591 -8.70135,-7.804019 -21.87871,-17.212678 -39.79756,-21.3110871 -6.02963,-1.3790978 -10.56367,1.6870181 -10.60845,5.2655781 -0.0614,4.902726 4.48823,7.131797 15.35854,18.822569"
       id="path7224"
       inkscape:path-effect="#path-effect7265"
       inkscape:original-d="M 384.70107,33.029568 A 95.005966,95.005966 0 0 1 289.6951,128.03553 95.005966,95.005966 0 0 1 194.68913,33.029568 95.005966,95.005966 0 0 1 289.6951,-61.976398 95.005966,95.005966 0 0 1 384.70107,33.029568 Z"
       inkscape:export-xdpi="96"
       inkscape:export-ydpi="96" />
    <path
       style="opacity:0.91000001;fill:#ffffff;fill-opacity:1;stroke:none;stroke-width:22.63181114;stroke-linecap:round;stroke-miterlimit:6;stroke-dasharray:none;stroke-opacity:1"
       d="M 109.375 675.64453 L 109.375 1022.5195 L 456.25 1022.5195 L 456.25 1022.4922 L 109.40234 675.64453 L 109.375 675.64453 z "
       transform="scale(0.26458333)"
       id="rect7301"
       inkscape:export-xdpi="96"
       inkscape:export-ydpi="96" />
    <text
       inkscape:export-ydpi="96"
       inkscape:export-xdpi="96"
       xml:space="preserve"
       style="font-style:normal;font-variant:normal;font-weight:normal;font-stretch:normal;font-size:112.2288208px;line-height:1.25;font-family:'Liberation Mono';-inkscape-font-specification:'Liberation Mono, Normal';font-variant-ligatures:normal;font-variant-caps:normal;font-variant-numeric:normal;font-feature-settings:normal;text-align:start;letter-spacing:0px;word-spacing:0px;writing-mode:lr-tb;text-anchor:start;fill:#000000;fill-opacity:0.27091633;stroke:none;stroke-width:2.80572033"
       x="229.10486"
       y="397.47366"
       id="text8810"
       transform="scale(0.88392579,1.1313167)"><tspan
         sodipodi:role="line"
         id="tspan8808"
         x="229.10486"
         y="397.47366"
         style="font-style:normal;font-variant:normal;font-weight:normal;font-stretch:normal;font-size:112.2288208px;font-family:'Liberation Mono';-inkscape-font-specification:'Liberation Mono, Normal';font-variant-ligatures:normal;font-variant-caps:normal;font-variant-numeric:normal;font-feature-settings:normal;text-align:start;writing-mode:lr-tb;text-anchor:start;fill:#000000;fill-opacity:0.27091633;stroke-width:2.80572033">Spiral</tspan></text>
    <text
       transform="scale(0.88392579,1.1313167)"
       id="text7326"
       y="394.36487"
       x="232.16557"
       style="font-style:normal;font-variant:normal;font-weight:normal;font-stretch:normal;font-size:112.2288208px;line-height:1.25;font-family:'Liberation Mono';-inkscape-font-specification:'Liberation Mono, Normal';font-variant-ligatures:normal;font-variant-caps:normal;font-variant-numeric:normal;font-feature-settings:normal;text-align:start;letter-spacing:0px;word-spacing:0px;writing-mode:lr-tb;text-anchor:start;fill:#ffffff;fill-opacity:1;stroke:none;stroke-width:2.80572033"
       xml:space="preserve"
       inkscape:export-xdpi="96"
       inkscape:export-ydpi="96"><tspan
         style="font-style:normal;font-variant:normal;font-weight:normal;font-stretch:normal;font-size:112.2288208px;font-family:'Liberation Mono';-inkscape-font-specification:'Liberation Mono, Normal';font-variant-ligatures:normal;font-variant-caps:normal;font-variant-numeric:normal;font-feature-settings:normal;text-align:start;writing-mode:lr-tb;text-anchor:start;fill:#ffffff;fill-opacity:1;stroke-width:2.80572033"
         y="394.36487"
         x="232.16557"
         id="tspan7324"
         sodipodi:role="line">Spiral</tspan></text>
  </g>
</svg>
