<?xml version="1.0" encoding="UTF-8" standalone="no"?>
<!-- Created with Inkscape (http://www.inkscape.org/) -->

<svg
   xmlns:dc="http://purl.org/dc/elements/1.1/"
   xmlns:cc="http://creativecommons.org/ns#"
   xmlns:rdf="http://www.w3.org/1999/02/22-rdf-syntax-ns#"
   xmlns:svg="http://www.w3.org/2000/svg"
   xmlns="http://www.w3.org/2000/svg"
   xmlns:sodipodi="http://sodipodi.sourceforge.net/DTD/sodipodi-0.dtd"
   xmlns:inkscape="http://www.inkscape.org/namespaces/inkscape"
   width="210mm"
   height="297mm"
   viewBox="0 0 210 297"
   version="1.1"
   id="svg979"
   inkscape:version="0.92.4 (5da689c313, 2019-01-14)"
   sodipodi:docname="logo.svg">
  <defs
     id="defs973">
    <inkscape:path-effect
       fuse_tolerance="0"
       vertical_pattern="false"
       prop_units="false"
       tang_offset="0"
       normal_offset="0"
       spacing="0"
       scale_y_rel="false"
       prop_scale="0.3"
       copytype="single_stretched"
       pattern="#path981"
       is_visible="true"
       id="path-effect874"
       effect="skeletal" />
    <inkscape:path-effect
       effect="skeletal"
       id="path-effect870"
       is_visible="true"
       pattern="#path981"
       copytype="single_stretched"
       prop_scale="0.4"
       scale_y_rel="false"
       spacing="0"
       normal_offset="0"
       tang_offset="0"
       prop_units="false"
       vertical_pattern="false"
       fuse_tolerance="0" />
    <inkscape:path-effect
       effect="skeletal"
       id="path-effect943"
       is_visible="true"
       pattern="#path981"
       copytype="single_stretched"
       prop_scale="0.3"
       scale_y_rel="false"
       spacing="0"
       normal_offset="0"
       tang_offset="0"
       prop_units="false"
       vertical_pattern="false"
       fuse_tolerance="0" />
    <inkscape:path-effect
       fuse_tolerance="0"
       vertical_pattern="false"
       prop_units="false"
       tang_offset="0"
       normal_offset="0"
       spacing="0"
       scale_y_rel="false"
       prop_scale="0.45"
       copytype="single_stretched"
       pattern="#path981"
       is_visible="true"
       id="path-effect961"
       effect="skeletal" />
    <inkscape:path-effect
       effect="skeletal"
       id="path-effect943-0"
       is_visible="true"
       pattern="#path981"
       copytype="single_stretched"
       prop_scale="0.2"
       scale_y_rel="false"
       spacing="0"
       normal_offset="0"
       tang_offset="0"
       prop_units="false"
       vertical_pattern="false"
       fuse_tolerance="0" />
    <inkscape:path-effect
       fuse_tolerance="0"
       vertical_pattern="false"
       prop_units="false"
       tang_offset="0"
       normal_offset="0"
       spacing="0"
       scale_y_rel="false"
       prop_scale="0.2"
       copytype="single_stretched"
       pattern="#path981"
       is_visible="true"
       id="path-effect961-6"
       effect="skeletal" />
    <inkscape:path-effect
       effect="skeletal"
       id="path-effect943-6"
       is_visible="true"
       pattern="#path981"
       copytype="single_stretched"
       prop_scale="0.2"
       scale_y_rel="false"
       spacing="0"
       normal_offset="0"
       tang_offset="0"
       prop_units="false"
       vertical_pattern="false"
       fuse_tolerance="0" />
    <inkscape:path-effect
       fuse_tolerance="0"
       vertical_pattern="false"
       prop_units="false"
       tang_offset="0"
       normal_offset="0"
       spacing="0"
       scale_y_rel="false"
       prop_scale="0.2"
       copytype="single_stretched"
       pattern="#path981"
       is_visible="true"
       id="path-effect961-1"
       effect="skeletal" />
    <inkscape:path-effect
       effect="skeletal"
       id="path-effect990"
       is_visible="true"
       pattern="#path981"
       copytype="single_stretched"
       prop_scale="0.2"
       scale_y_rel="false"
       spacing="0"
       normal_offset="0"
       tang_offset="0"
       prop_units="false"
       vertical_pattern="false"
       fuse_tolerance="0" />
    <inkscape:path-effect
       effect="skeletal"
       id="path-effect990-7"
       is_visible="true"
       pattern="#path981"
       copytype="single_stretched"
       prop_scale="0.2"
       scale_y_rel="false"
       spacing="0"
       normal_offset="0"
       tang_offset="0"
       prop_units="false"
       vertical_pattern="false"
       fuse_tolerance="0" />
    <inkscape:path-effect
       effect="skeletal"
       id="path-effect990-7-4"
       is_visible="true"
       pattern="#path981"
       copytype="single_stretched"
       prop_scale="1.6"
       scale_y_rel="false"
       spacing="0"
       normal_offset="0"
       tang_offset="0"
       prop_units="false"
       vertical_pattern="false"
       fuse_tolerance="0" />
    <inkscape:path-effect
       effect="skeletal"
       id="path-effect943-1"
       is_visible="true"
       pattern="#path981"
       copytype="single_stretched"
       prop_scale="0.8"
       scale_y_rel="false"
       spacing="0"
       normal_offset="0"
       tang_offset="0"
       prop_units="false"
       vertical_pattern="false"
       fuse_tolerance="0" />
    <inkscape:path-effect
       fuse_tolerance="0"
       vertical_pattern="false"
       prop_units="false"
       tang_offset="0"
       normal_offset="0"
       spacing="0"
       scale_y_rel="false"
       prop_scale="0.8"
       copytype="single_stretched"
       pattern="#path981"
       is_visible="true"
       id="path-effect961-7"
       effect="skeletal" />
  </defs>
  <sodipodi:namedview
     id="base"
     pagecolor="#ffffff"
     bordercolor="#666666"
     borderopacity="1.0"
     inkscape:pageopacity="0.0"
     inkscape:pageshadow="2"
     inkscape:zoom="0.0875"
     inkscape:cx="-180.74278"
     inkscape:cy="-483.24288"
     inkscape:document-units="mm"
     inkscape:current-layer="layer1"
     showgrid="false"
     inkscape:window-width="1920"
     inkscape:window-height="1001"
     inkscape:window-x="-9"
     inkscape:window-y="-9"
     inkscape:window-maximized="1" />
  <metadata
     id="metadata976">
    <rdf:RDF>
      <cc:Work
         rdf:about="">
        <dc:format>image/svg+xml</dc:format>
        <dc:type
           rdf:resource="http://purl.org/dc/dcmitype/StillImage" />
        <dc:title />
      </cc:Work>
    </rdf:RDF>
  </metadata>
  <g
     inkscape:label="Layer 1"
     inkscape:groupmode="layer"
     id="layer1">
    <path
       inkscape:path-effect="#path-effect961-7"
       id="path959-6"
       style="opacity:1;fill:#ffff00;fill-opacity:0.35686275;stroke:none;stroke-width:9.38853359;stroke-linecap:round;stroke-linejoin:round;stroke-miterlimit:4;stroke-dasharray:none;stroke-opacity:0.35686275"
       sodipodi:type="arc"
       sodipodi:cx="628.39594"
       sodipodi:cy="90.74276"
       sodipodi:rx="182.30659"
       sodipodi:ry="182.30659"
       sodipodi:start="0"
       sodipodi:end="4.733761"
       sodipodi:open="true"
       d="m 632.70141,-125.72885 c -9.68344,-0.10259 -19.21538,0.66306 -28.45333,2.21371 l -0.0245,-0.20197 c -75.08206,11.8066 -139.5759,62.973768 -167.03072,131.6460258 0,1.5e-5 0,3e-5 10e-6,4.51e-5 -29.93675,77.7407961 -8.89373,167.4844091 48.50712,222.4921491 57.90697,54.51233 145.78739,68.27273 214.84209,37.16464 10e-6,-2e-5 3e-5,-2e-5 4e-5,-2e-5 68.92094,-31.43599 113.05616,-104.92656 110.1606,-176.84297 -2.8956,71.91641 -52.46786,137.86107 -116.72328,160.75669 -10e-6,0 -2e-5,0 -2e-5,0 -64.12166,23.22349 -140.743,2.8896 -183.44849,-45.38418 -43.2116,-47.77835 -52.7395,-123.227514 -25.51101,-177.471462 2e-5,-10e-6 2e-5,-2.1e-5 2e-5,-3.1e-5 23.3178,-48.553001 76.04988,-82.048425 127.30229,-85.557441 l -0.0233,-0.191742 c 6.41396,-0.345453 12.82528,-0.434404 19.262,-0.21419 0.41691,-22.804103 0.79703,-45.607204 1.14041,-68.409254 z"
       transform="matrix(0,0.24897939,-0.24897939,0,234.18274,444.31412)"
       inkscape:export-filename="D:\Documents\Unity\arcadegame1\arcadegame1\Assets\sprites\logo.png"
       inkscape:export-xdpi="96"
       inkscape:export-ydpi="96" />
    <path
       transform="matrix(0,0.53256455,-0.53256455,0,256.78993,269.0982)"
       d="m 632.70141,-125.72885 c -9.68344,-0.10259 -19.21538,0.66306 -28.45333,2.21371 l -0.0245,-0.20197 c -75.08206,11.8066 -139.5759,62.973768 -167.03072,131.6460258 0,1.5e-5 0,3e-5 10e-6,4.51e-5 -29.93675,77.7407961 -8.89373,167.4844091 48.50712,222.4921491 57.90697,54.51233 145.78739,68.27273 214.84209,37.16464 10e-6,-2e-5 3e-5,-2e-5 4e-5,-2e-5 68.92094,-31.43599 113.05616,-104.92656 110.1606,-176.84297 -2.8956,71.91641 -52.46786,137.86107 -116.72328,160.75669 -10e-6,0 -2e-5,0 -2e-5,0 -64.12166,23.22349 -140.743,2.8896 -183.44849,-45.38418 -43.2116,-47.77835 -52.7395,-123.227514 -25.51101,-177.471462 2e-5,-10e-6 2e-5,-2.1e-5 2e-5,-3.1e-5 23.3178,-48.553001 76.04988,-82.048425 127.30229,-85.557441 l -0.0233,-0.191742 c 6.41396,-0.345453 12.82528,-0.434404 19.262,-0.21419 0.41691,-22.804103 0.79703,-45.607204 1.14041,-68.409254 z"
       sodipodi:open="true"
       sodipodi:end="4.733761"
       sodipodi:start="0"
       sodipodi:ry="182.30659"
       sodipodi:rx="182.30659"
       sodipodi:cy="90.74276"
       sodipodi:cx="628.39594"
       sodipodi:type="arc"
       style="opacity:1;fill:#ffff00;fill-opacity:0.35686275;stroke:none;stroke-width:9.38853359;stroke-linecap:round;stroke-linejoin:round;stroke-miterlimit:4;stroke-dasharray:none;stroke-opacity:0.35686275"
       id="path913-4"
       inkscape:path-effect="#path-effect943-1"
       inkscape:export-filename="D:\Documents\Unity\arcadegame1\arcadegame1\Assets\sprites\logo.png"
       inkscape:export-xdpi="96"
       inkscape:export-ydpi="96" />
    <path
       inkscape:path-effect="#path-effect961"
       id="path959"
       style="opacity:1;fill:#ffff00;fill-opacity:0.35686275;stroke:none;stroke-width:9.38853359;stroke-linecap:round;stroke-linejoin:round;stroke-miterlimit:4;stroke-dasharray:none;stroke-opacity:0.35686275"
       sodipodi:type="arc"
       sodipodi:cx="628.39594"
       sodipodi:cy="90.74276"
       sodipodi:rx="182.30659"
       sodipodi:ry="182.30659"
       sodipodi:start="0"
       sodipodi:end="4.733761"
       sodipodi:open="true"
       d="m 632.40566,-110.76584 c -8.95774,-0.1271 -17.79227,0.49018 -26.39671,1.7756 l -0.0138,-0.11362 c -69.86932,9.991519 -131.79027,57.292997 -158.34011,121.564161 0,1.4e-5 10e-6,2.8e-5 10e-6,4.2e-5 -29.34431,72.600854 -10.82021,159.217537 43.47673,212.643837 54.58164,53.14762 139.99911,68.34595 207.97468,38.96263 10e-6,-2e-5 2e-5,-2e-5 4e-5,-2e-5 67.90032,-29.56778 113.22487,-101.40766 111.59612,-173.32403 -1.62878,71.91637 -50.01166,139.51168 -115.28763,164.2755 -10e-6,0 -10e-6,0 -2e-5,0 -65.20073,24.94824 -144.28498,6.05232 -190.31579,-43.58612 -46.31549,-49.35976 -58.36232,-127.935818 -30.54142,-187.319695 2e-5,-1.1e-5 2e-5,-2.3e-5 2e-5,-3.5e-5 24.22276,-52.954082 79.52772,-90.315205 135.99286,-95.639325 l -0.0131,-0.107855 c 7.05435,-0.612179 14.1731,-0.848206 21.34328,-0.648463 0.19562,-12.82814 0.37054,-25.655686 0.52479,-38.482607 z"
       transform="matrix(0,0.24897939,-0.24897939,0,352.35237,-86.714667)" />
    <path
       transform="matrix(0,0.53256455,-0.53256455,0,374.95955,-261.93059)"
       d="m 632.27892,-104.35312 c -8.64676,-0.1376 -17.18236,0.41609 -25.51531,1.58783 l -0.009,-0.0757 c -67.63529,9.213617 -128.45357,54.858372 -154.61556,117.243353 0,1.4e-5 10e-6,2.8e-5 10e-6,4.2e-5 -29.09041,70.398021 -11.64585,155.674595 41.32085,208.423125 53.15649,52.56275 137.51842,68.37734 205.03149,39.7332 2e-5,-2e-5 3e-5,-2e-5 4e-5,-1e-5 67.46293,-28.76712 113.29718,-99.89957 112.21135,-171.81592 -1.08585,71.91635 -48.959,140.21908 -114.67235,165.78356 -10e-6,0 -10e-6,0 -2e-5,0 C 630.36705,282.21375 550.22727,263.9341 502.77133,213.7108 455.1256,163.67329 441.99921,83.757135 470.07401,22.170432 c 2e-5,-1.2e-5 2e-5,-2.4e-5 2e-5,-3.6e-5 24.6106,-54.84026 81.01822,-93.858111 139.71739,-99.960133 l -0.009,-0.0719 c 7.32895,-0.726483 14.75059,-1.025555 22.23526,-0.83458 0.10077,-8.552727 0.18775,-17.105033 0.26096,-25.656899 z"
       sodipodi:open="true"
       sodipodi:end="4.733761"
       sodipodi:start="0"
       sodipodi:ry="182.30659"
       sodipodi:rx="182.30659"
       sodipodi:cy="90.74276"
       sodipodi:cx="628.39594"
       sodipodi:type="arc"
       style="opacity:1;fill:#ffff00;fill-opacity:0.35686275;stroke:none;stroke-width:9.38853359;stroke-linecap:round;stroke-linejoin:round;stroke-miterlimit:4;stroke-dasharray:none;stroke-opacity:0.35686275"
       id="path913"
       inkscape:path-effect="#path-effect943" />
    <path
       transform="matrix(0,0.3780399,-0.3780399,0,363.47064,-167.30424)"
       d="m 632.36341,-108.62826 c -8.85408,-0.1306 -17.58897,0.46548 -26.10291,1.713 l -0.0122,-0.10099 c -69.12464,9.732218 -130.67803,56.481455 -157.09859,120.123892 0,1.4e-5 10e-6,2.8e-5 10e-6,4.2e-5 -29.25968,71.866576 -11.09542,158.036556 42.7581,211.236936 54.10659,52.95266 139.17222,68.35641 206.99362,39.21949 1e-5,-3e-5 3e-5,-2e-5 4e-5,-2e-5 67.75453,-29.3009 113.24897,-100.90496 111.8012,-172.82133 -1.4478,71.91637 -49.66077,139.74748 -115.08254,164.77819 -10e-6,0 -10e-6,-1e-5 -2e-5,-1e-5 C 630.26519,280.71559 550.8291,262.02509 504.32325,212.1917 457.56435,162.60602 445.15766,83.58326 473.0632,23.465107 c 2e-5,-1.1e-5 2e-5,-2.3e-5 1e-5,-3.5e-5 24.35205,-53.582808 80.02456,-91.496174 137.23437,-97.079595 l -0.0116,-0.09587 c 7.14588,-0.65028 14.3656,-0.907322 21.64061,-0.710502 0.164,-11.403002 0.30961,-22.805468 0.43684,-34.207364 z"
       sodipodi:open="true"
       sodipodi:end="4.733761"
       sodipodi:start="0"
       sodipodi:ry="182.30659"
       sodipodi:rx="182.30659"
       sodipodi:cy="90.74276"
       sodipodi:cx="628.39594"
       sodipodi:type="arc"
       style="opacity:1;fill:#ffff00;fill-opacity:0.35686275;stroke:none;stroke-width:9.38853359;stroke-linecap:round;stroke-linejoin:round;stroke-miterlimit:4;stroke-dasharray:none;stroke-opacity:0.35686275"
       id="path868"
       inkscape:path-effect="#path-effect870" />
    <path
       inkscape:path-effect="#path-effect874"
       id="path872"
       style="opacity:1;fill:#ffff00;fill-opacity:0.35686275;stroke:none;stroke-width:9.38853359;stroke-linecap:round;stroke-linejoin:round;stroke-miterlimit:4;stroke-dasharray:none;stroke-opacity:0.35686275"
       sodipodi:type="arc"
       sodipodi:cx="628.39594"
       sodipodi:cy="90.74276"
       sodipodi:rx="182.30659"
       sodipodi:ry="182.30659"
       sodipodi:start="0"
       sodipodi:end="4.733761"
       sodipodi:open="true"
       d="m 632.27892,-104.35312 c -8.64676,-0.1376 -17.18236,0.41609 -25.51531,1.58783 l -0.009,-0.0757 c -67.63529,9.213617 -128.45357,54.858372 -154.61556,117.243353 0,1.4e-5 10e-6,2.8e-5 10e-6,4.2e-5 -29.09041,70.398021 -11.64585,155.674595 41.32085,208.423125 53.15649,52.56275 137.51842,68.37734 205.03149,39.7332 2e-5,-2e-5 3e-5,-2e-5 4e-5,-1e-5 67.46293,-28.76712 113.29718,-99.89957 112.21135,-171.81592 -1.08585,71.91635 -48.959,140.21908 -114.67235,165.78356 -10e-6,0 -10e-6,0 -2e-5,0 C 630.36705,282.21375 550.22727,263.9341 502.77133,213.7108 455.1256,163.67329 441.99921,83.757135 470.07401,22.170432 c 2e-5,-1.2e-5 2e-5,-2.4e-5 2e-5,-3.6e-5 24.6106,-54.84026 81.01822,-93.858111 139.71739,-99.960133 l -0.009,-0.0719 c 7.32895,-0.726483 14.75059,-1.025555 22.23526,-0.83458 0.10077,-8.552727 0.18775,-17.105033 0.26096,-25.656899 z"
       transform="matrix(0,0.65063357,-0.65063357,0,386.95396,-337.52058)" />
    <path
       style="opacity:1;fill:#fee814;fill-opacity:1;stroke:#cf9608;stroke-width:5;stroke-linecap:square;stroke-linejoin:miter;stroke-miterlimit:4;stroke-dasharray:none;stroke-opacity:0.4541833"
       d="m 326.70977,56.147018 c 62.0612,24.26186 122.27137,19.83306 181.48771,0 v 33.19897 c -60.16567,18.493312 -120.6101,21.375442 -181.48771,0 z"
       id="rect2430-73"
       inkscape:connector-curvature="0"
       sodipodi:nodetypes="ccccc" />
    <circle
       style="opacity:1;fill:#d50000;fill-opacity:1;stroke:none;stroke-width:17.28293991;stroke-linecap:square;stroke-linejoin:miter;stroke-miterlimit:4;stroke-dasharray:none;stroke-opacity:1"
       id="path2432-99"
       cx="326.63019"
       cy="72.746445"
       r="19.434307" />
    <circle
       r="16.599485"
       cy="72.746445"
       cx="508.11786"
       id="circle2434-1"
       style="opacity:1;fill:#d5d5d5;fill-opacity:1;stroke:none;stroke-width:14.76193237;stroke-linecap:square;stroke-linejoin:miter;stroke-miterlimit:4;stroke-dasharray:none;stroke-opacity:1" />
    <circle
       style="opacity:1;fill:#ffb407;fill-opacity:0.45490196;stroke:none;stroke-width:35.38677216;stroke-linecap:square;stroke-linejoin:miter;stroke-miterlimit:4;stroke-dasharray:none;stroke-opacity:1"
       id="circle911"
       cx="509.07755"
       cy="70.06485"
       r="39.791698" />
    <path
       inkscape:connector-curvature="0"
       id="path941"
       d="m 334.43646,-130.76861 c -55.1261,0.2464 -109.13293,22.29088 -146.81378,61.485116 -54.3404,57.488035 -68.2818,145.058392 -37.39101,213.977134 31.20064,68.79236 104.48318,113.07752 176.39959,110.34157 -71.91641,-2.736 -138.069,-52.15874 -161.19999,-116.54274 -23.44078,-64.257602 -3.28825,-141.1893892 45.15745,-184.313829 47.9776,-43.602641 123.8211,-53.447787 178.7126,-26.144639 49.1077,23.431897 83.08981,76.4884788 86.82726,128.397846 l 0.1814,-0.0217 c 0.0339,0.58187 0.0629,1.16367 0.0925,1.74564 a 34.352092,34.352092 0 0 0 -1.91666,11.19931 34.352092,34.352092 0 0 0 34.35241,34.351922 34.352092,34.352092 0 0 0 34.35191,-34.351922 34.352092,34.352092 0 0 0 -3.24683,-14.48644 c -0.25776,-2.03433 -0.55097,-4.05701 -0.88368,-6.06528 l 0.19071,-0.0233 C 527.67267,-25.645629 476.99236,-89.81561 408.8743,-117.15654 c -24.09164,-9.33191 -49.38052,-13.7241 -74.43784,-13.61207 z"
       style="opacity:1;fill:none;fill-opacity:1;stroke:#ffb608;stroke-width:35;stroke-linecap:round;stroke-linejoin:round;stroke-miterlimit:4;stroke-dasharray:none;stroke-opacity:0.4541833" />
    <path
       inkscape:connector-curvature="0"
       style="opacity:1;fill:#d5110e;fill-opacity:1;stroke:#ffb608;stroke-width:15;stroke-linecap:round;stroke-linejoin:round;stroke-miterlimit:4;stroke-dasharray:none;stroke-opacity:0.4541833"
       d="m 334.43646,-130.76861 c -55.1261,0.2464 -109.13293,22.29088 -146.81378,61.485116 -54.3404,57.488035 -68.2818,145.058392 -37.39101,213.977134 31.20064,68.79236 104.48318,113.07752 176.39959,110.34157 -71.91641,-2.736 -138.069,-52.15874 -161.19999,-116.54274 -23.44078,-64.257602 -3.28825,-141.1893892 45.15745,-184.313829 47.9776,-43.602641 123.8211,-53.447787 178.7126,-26.144639 49.1077,23.431897 83.08981,76.4884788 86.82726,128.397846 l 0.1814,-0.0217 c 0.0339,0.58187 0.0629,1.16367 0.0925,1.74564 a 34.352092,34.352092 0 0 0 -1.91666,11.19931 34.352092,34.352092 0 0 0 34.35241,34.351922 34.352092,34.352092 0 0 0 34.35191,-34.351922 34.352092,34.352092 0 0 0 -3.24683,-14.48644 c -0.25776,-2.03433 -0.55097,-4.05701 -0.88368,-6.06528 l 0.19071,-0.0233 C 527.67267,-25.645629 476.99236,-89.81561 408.8743,-117.15654 c -24.09164,-9.33191 -49.38052,-13.7241 -74.43784,-13.61207 z"
       id="circle954" />
    <path
       inkscape:path-effect="#path-effect961-6"
       id="path959-3"
       style="opacity:1;fill:#ffff00;fill-opacity:0.35686275;stroke:none;stroke-width:9.38853359;stroke-linecap:round;stroke-linejoin:round;stroke-miterlimit:4;stroke-dasharray:none;stroke-opacity:0.35686275"
       sodipodi:type="arc"
       sodipodi:cx="628.39594"
       sodipodi:cy="90.74276"
       sodipodi:rx="182.30659"
       sodipodi:ry="182.30659"
       sodipodi:start="0"
       sodipodi:end="4.733761"
       sodipodi:open="true"
       d="m 632.19442,-100.07797 c -8.43943,-0.14461 -16.77574,0.366691 -24.92771,1.46265 l -0.006,-0.05049 c -66.14593,8.695021 -126.2291,53.235293 -152.13252,114.36282 0,1.3e-5 1e-5,2.7e-5 1e-5,4e-5 -28.92114,68.929466 -12.19628,153.312635 39.88359,205.609325 52.2064,52.17283 135.86462,68.39826 203.06938,40.24691 10e-6,-2e-5 3e-5,-2e-5 4e-5,-10e-6 67.17132,-28.23335 113.34538,-98.89417 112.62149,-170.81051 -0.7239,71.91634 -48.25722,140.69069 -114.26216,166.78894 -10e-6,-10e-6 -10e-6,-10e-6 -2e-5,-10e-6 -65.9715,26.18022 -146.81497,8.31142 -195.221,-42.30178 -48.53255,-50.48935 -62.37863,-131.298899 -34.13458,-194.354153 3e-5,-1.2e-5 2e-5,-2.5e-5 2e-5,-3.7e-5 24.86917,-56.097712 82.01189,-96.220048 142.20041,-102.840672 l -0.006,-0.04794 c 7.51203,-0.802685 15.13557,-1.143789 22.82992,-0.958658 0.0375,-5.702451 0.0659,-11.404599 0.0851,-17.106424 z"
       transform="matrix(0,0.24897939,-0.24897939,0,-397.45956,-235.93198)" />
    <path
       transform="matrix(0,0.53256455,-0.53256455,0,-374.85238,-411.1479)"
       d="m 632.19442,-100.07797 c -8.43943,-0.14461 -16.77574,0.366691 -24.92771,1.46265 l -0.006,-0.05049 c -66.14593,8.695021 -126.2291,53.235293 -152.13252,114.36282 0,1.3e-5 1e-5,2.7e-5 1e-5,4e-5 -28.92114,68.929466 -12.19628,153.312635 39.88359,205.609325 52.2064,52.17283 135.86462,68.39826 203.06938,40.24691 10e-6,-2e-5 3e-5,-2e-5 4e-5,-10e-6 67.17132,-28.23335 113.34538,-98.89417 112.62149,-170.81051 -0.7239,71.91634 -48.25722,140.69069 -114.26216,166.78894 -10e-6,-10e-6 -10e-6,-10e-6 -2e-5,-10e-6 -65.9715,26.18022 -146.81497,8.31142 -195.221,-42.30178 -48.53255,-50.48935 -62.37863,-131.298899 -34.13458,-194.354153 3e-5,-1.2e-5 2e-5,-2.5e-5 2e-5,-3.7e-5 24.86917,-56.097712 82.01189,-96.220048 142.20041,-102.840672 l -0.006,-0.04794 c 7.51203,-0.802685 15.13557,-1.143789 22.82992,-0.958658 0.0375,-5.702451 0.0659,-11.404599 0.0851,-17.106424 z"
       sodipodi:open="true"
       sodipodi:end="4.733761"
       sodipodi:start="0"
       sodipodi:ry="182.30659"
       sodipodi:rx="182.30659"
       sodipodi:cy="90.74276"
       sodipodi:cx="628.39594"
       sodipodi:type="arc"
       style="opacity:1;fill:#ffff00;fill-opacity:0.35686275;stroke:none;stroke-width:9.38853359;stroke-linecap:round;stroke-linejoin:round;stroke-miterlimit:4;stroke-dasharray:none;stroke-opacity:0.35686275"
       id="path913-8"
       inkscape:path-effect="#path-effect943-0" />
    <path
       inkscape:connector-curvature="0"
       style="opacity:1;fill:#d7c514;fill-opacity:1;stroke:#cf9608;stroke-width:5;stroke-linecap:square;stroke-linejoin:miter;stroke-miterlimit:4;stroke-dasharray:none;stroke-opacity:0.4541833"
       d="m -423.10216,-93.070289 h 181.48771 v 33.19897 h -181.48771 z"
       id="rect2430-73-6" />
    <circle
       style="opacity:1;fill:#d50000;fill-opacity:1;stroke:none;stroke-width:17.28293991;stroke-linecap:square;stroke-linejoin:miter;stroke-miterlimit:4;stroke-dasharray:none;stroke-opacity:1"
       id="path2432-99-3"
       cx="-423.18176"
       cy="-76.470856"
       r="19.434307" />
    <circle
       r="16.599485"
       cy="-76.470856"
       cx="-241.69406"
       id="circle2434-1-6"
       style="opacity:1;fill:#d5d5d5;fill-opacity:1;stroke:none;stroke-width:14.76193237;stroke-linecap:square;stroke-linejoin:miter;stroke-miterlimit:4;stroke-dasharray:none;stroke-opacity:1" />
    <circle
       style="opacity:1;fill:#ffb407;fill-opacity:0.45490196;stroke:none;stroke-width:35.38677216;stroke-linecap:square;stroke-linejoin:miter;stroke-miterlimit:4;stroke-dasharray:none;stroke-opacity:1"
       id="circle911-8"
       cx="-240.73438"
       cy="-79.152451"
       r="39.791698" />
    <path
       inkscape:connector-curvature="0"
       id="path941-8"
       d="m -415.37547,-279.98592 c -55.1261,0.24641 -109.13293,22.29088 -146.81378,61.48512 -54.3404,57.48803 -68.2818,145.058391 -37.39101,213.9771311 31.20064,68.7923599 104.48318,113.0775189 176.39959,110.3415689 -71.91641,-2.736 -138.069,-52.158739 -161.19999,-116.542739 -23.44078,-64.2576 -3.28825,-141.189391 45.15745,-184.313831 47.9776,-43.60264 123.8211,-53.44779 178.7126,-26.14464 49.1077,23.4319 83.08981,76.48848 86.82726,128.397851 l 0.1814,-0.0217 c 0.0339,0.58187 0.0629,1.16367 0.0925,1.74564 a 34.352092,34.352092 0 0 0 -1.91666,11.19931 34.352092,34.352092 0 0 0 34.35241,34.35192 34.352092,34.352092 0 0 0 34.35191,-34.35192 34.352092,34.352092 0 0 0 -3.24683,-14.48644 c -0.25776,-2.03433 -0.55097,-4.05701 -0.88368,-6.065281 l 0.19071,-0.0233 c -11.57767,-74.42571 -62.25798,-138.59569 -130.37604,-165.93662 -24.09164,-9.33191 -49.38052,-13.7241 -74.43784,-13.61207 z"
       style="opacity:1;fill:none;fill-opacity:1;stroke:#ffb608;stroke-width:35;stroke-linecap:round;stroke-linejoin:round;stroke-miterlimit:4;stroke-dasharray:none;stroke-opacity:0.4541833" />
    <path
       inkscape:connector-curvature="0"
       style="opacity:1;fill:#d5110e;fill-opacity:1;stroke:#ffb608;stroke-width:15;stroke-linecap:round;stroke-linejoin:round;stroke-miterlimit:4;stroke-dasharray:none;stroke-opacity:0.4541833"
       d="m -415.37547,-279.98592 c -55.1261,0.24641 -109.13293,22.29088 -146.81378,61.48512 -54.3404,57.48803 -68.2818,145.058391 -37.39101,213.9771311 31.20064,68.7923599 104.48318,113.0775189 176.39959,110.3415689 -71.91641,-2.736 -138.069,-52.158739 -161.19999,-116.542739 -23.44078,-64.2576 -3.28825,-141.189391 45.15745,-184.313831 47.9776,-43.60264 123.8211,-53.44779 178.7126,-26.14464 49.1077,23.4319 83.08981,76.48848 86.82726,128.397851 l 0.1814,-0.0217 c 0.0339,0.58187 0.0629,1.16367 0.0925,1.74564 a 34.352092,34.352092 0 0 0 -1.91666,11.19931 34.352092,34.352092 0 0 0 34.35241,34.35192 34.352092,34.352092 0 0 0 34.35191,-34.35192 34.352092,34.352092 0 0 0 -3.24683,-14.48644 c -0.25776,-2.03433 -0.55097,-4.05701 -0.88368,-6.065281 l 0.19071,-0.0233 c -11.57767,-74.42571 -62.25798,-138.59569 -130.37604,-165.93662 -24.09164,-9.33191 -49.38052,-13.7241 -74.43784,-13.61207 z"
       id="circle954-6" />
    <path
       transform="matrix(0,0.53256455,-0.53256455,0,-1161.0429,-510.93361)"
       d="m 632.19442,-100.07797 c -8.43943,-0.14461 -16.77574,0.366691 -24.92771,1.46265 l -0.006,-0.05049 c -66.14593,8.695021 -126.2291,53.235293 -152.13252,114.36282 0,1.3e-5 1e-5,2.7e-5 1e-5,4e-5 -28.92114,68.929466 -12.19628,153.312635 39.88359,205.609325 52.2064,52.17283 135.86462,68.39826 203.06938,40.24691 10e-6,-2e-5 3e-5,-2e-5 4e-5,-10e-6 67.17132,-28.23335 113.34538,-98.89417 112.62149,-170.81051 -0.7239,71.91634 -48.25722,140.69069 -114.26216,166.78894 -10e-6,-10e-6 -10e-6,-10e-6 -2e-5,-10e-6 -65.9715,26.18022 -146.81497,8.31142 -195.221,-42.30178 -48.53255,-50.48935 -62.37863,-131.298899 -34.13458,-194.354153 3e-5,-1.2e-5 2e-5,-2.5e-5 2e-5,-3.7e-5 24.86917,-56.097712 82.01189,-96.220048 142.20041,-102.840672 l -0.006,-0.04794 c 7.51203,-0.802685 15.13557,-1.143789 22.82992,-0.958658 0.0375,-5.702451 0.0659,-11.404599 0.0851,-17.106424 z"
       sodipodi:open="true"
       sodipodi:end="4.733761"
       sodipodi:start="0"
       sodipodi:ry="182.30659"
       sodipodi:rx="182.30659"
       sodipodi:cy="90.74276"
       sodipodi:cx="628.39594"
       sodipodi:type="arc"
       style="opacity:1;fill:#ffff00;fill-opacity:0.35686275;stroke:none;stroke-width:9.38853359;stroke-linecap:round;stroke-linejoin:round;stroke-miterlimit:4;stroke-dasharray:none;stroke-opacity:0.35686275"
       id="path913-3"
       inkscape:path-effect="#path-effect943-6" />
    <path
       inkscape:path-effect="#path-effect961-1"
       id="path959-7"
       style="opacity:1;fill:#ffff00;fill-opacity:0.35686275;stroke:none;stroke-width:9.38853359;stroke-linecap:round;stroke-linejoin:round;stroke-miterlimit:4;stroke-dasharray:none;stroke-opacity:0.35686275"
       sodipodi:type="arc"
       sodipodi:cx="628.39594"
       sodipodi:cy="90.74276"
       sodipodi:rx="182.30659"
       sodipodi:ry="182.30659"
       sodipodi:start="0"
       sodipodi:end="4.733761"
       sodipodi:open="true"
       d="m 632.19442,-100.07797 c -8.43943,-0.14461 -16.77574,0.366691 -24.92771,1.46265 l -0.006,-0.05049 c -66.14593,8.695021 -126.2291,53.235293 -152.13252,114.36282 0,1.3e-5 1e-5,2.7e-5 1e-5,4e-5 -28.92114,68.929466 -12.19628,153.312635 39.88359,205.609325 52.2064,52.17283 135.86462,68.39826 203.06938,40.24691 10e-6,-2e-5 3e-5,-2e-5 4e-5,-10e-6 67.17132,-28.23335 113.34538,-98.89417 112.62149,-170.81051 -0.7239,71.91634 -48.25722,140.69069 -114.26216,166.78894 -10e-6,-10e-6 -10e-6,-10e-6 -2e-5,-10e-6 -65.9715,26.18022 -146.81497,8.31142 -195.221,-42.30178 -48.53255,-50.48935 -62.37863,-131.298899 -34.13458,-194.354153 3e-5,-1.2e-5 2e-5,-2.5e-5 2e-5,-3.7e-5 24.86917,-56.097712 82.01189,-96.220048 142.20041,-102.840672 l -0.006,-0.04794 c 7.51203,-0.802685 15.13557,-1.143789 22.82992,-0.958658 0.0375,-5.702451 0.0659,-11.404599 0.0851,-17.106424 z"
       transform="matrix(0,0.24897939,-0.24897939,0,-1183.65,-335.71769)" />
    <circle
       style="opacity:1;fill:#d50000;fill-opacity:1;stroke:none;stroke-width:14.76193237;stroke-linecap:square;stroke-linejoin:miter;stroke-miterlimit:4;stroke-dasharray:none;stroke-opacity:1"
       id="path2432-99-1"
       cx="-1209.3722"
       cy="-176.25658"
       r="16.599485" />
    <circle
       r="16.599485"
       cy="-176.25658"
       cx="-1027.8845"
       id="circle2434-1-5"
       style="opacity:1;fill:#d5d5d5;fill-opacity:1;stroke:none;stroke-width:14.76193237;stroke-linecap:square;stroke-linejoin:miter;stroke-miterlimit:4;stroke-dasharray:none;stroke-opacity:1" />
    <circle
       style="opacity:1;fill:#ffb407;fill-opacity:0.45490196;stroke:none;stroke-width:35.38677216;stroke-linecap:square;stroke-linejoin:miter;stroke-miterlimit:4;stroke-dasharray:none;stroke-opacity:1"
       id="circle911-4"
       cx="-1026.9248"
       cy="-178.93817"
       r="39.791698" />
    <path
       inkscape:connector-curvature="0"
       id="path941-3"
       d="m -1201.566,-379.77164 c -55.1261,0.24641 -109.1329,22.29088 -146.8137,61.48512 -54.3404,57.48804 -68.2818,145.0584 -37.391,213.97714 31.2006,68.792357 104.4831,113.0775169 176.3995,110.3415669 -71.9164,-2.736 -138.0689,-52.1587399 -161.1999,-116.5427369 -23.4408,-64.2576 -3.2883,-141.18939 45.1574,-184.31383 47.9776,-43.60264 123.8211,-53.44779 178.7126,-26.14464 49.1077,23.43189 83.0898,76.48848 86.8273,128.39785 l 0.1814,-0.0217 c 0.034,0.58187 0.063,1.16367 0.092,1.74564 a 34.352092,34.352092 0 0 0 -1.9167,11.19931 34.352092,34.352092 0 0 0 34.3524,34.35192 34.352092,34.352092 0 0 0 34.35193,-34.35192 34.352092,34.352092 0 0 0 -3.24683,-14.48644 c -0.25776,-2.03433 -0.55097,-4.05701 -0.88368,-6.06528 l 0.19071,-0.0233 c -11.57763,-74.42571 -62.25803,-138.59569 -130.37603,-165.93662 -24.0917,-9.33191 -49.3805,-13.7241 -74.4379,-13.61208 z"
       style="opacity:1;fill:none;fill-opacity:1;stroke:#ffb608;stroke-width:35;stroke-linecap:round;stroke-linejoin:round;stroke-miterlimit:4;stroke-dasharray:none;stroke-opacity:0.4541833" />
    <path
       inkscape:connector-curvature="0"
       style="opacity:1;fill:#d5110e;fill-opacity:1;stroke:#ffb608;stroke-width:15;stroke-linecap:round;stroke-linejoin:round;stroke-miterlimit:4;stroke-dasharray:none;stroke-opacity:0.4541833"
       d="m -1201.566,-379.77164 c -55.1261,0.24641 -109.1329,22.29088 -146.8137,61.48512 -54.3404,57.48804 -68.2818,145.0584 -37.391,213.97714 31.2006,68.792357 104.4831,113.0775169 176.3995,110.3415669 -71.9164,-2.736 -138.0689,-52.1587399 -161.1999,-116.5427369 -23.4408,-64.2576 -3.2883,-141.18939 45.1574,-184.31383 47.9776,-43.60264 123.8211,-53.44779 178.7126,-26.14464 49.1077,23.43189 83.0898,76.48848 86.8273,128.39785 l 0.1814,-0.0217 c 0.034,0.58187 0.063,1.16367 0.092,1.74564 a 34.352092,34.352092 0 0 0 -1.9167,11.19931 34.352092,34.352092 0 0 0 34.3524,34.35192 34.352092,34.352092 0 0 0 34.35193,-34.35192 34.352092,34.352092 0 0 0 -3.24683,-14.48644 c -0.25776,-2.03433 -0.55097,-4.05701 -0.88368,-6.06528 l 0.19071,-0.0233 c -11.57763,-74.42571 -62.25803,-138.59569 -130.37603,-165.93662 -24.0917,-9.33191 -49.3805,-13.7241 -74.4379,-13.61208 z"
       id="circle954-1" />
    <path
       id="path917"
       style="opacity:1;fill:none;fill-opacity:1;stroke:#b8a804;stroke-width:8.85046101;stroke-linecap:round;stroke-linejoin:round;stroke-miterlimit:4;stroke-dasharray:none;stroke-opacity:1"
       sodipodi:type="arc"
       sodipodi:cx="-313.806"
       sodipodi:cy="2350.5938"
       sodipodi:rx="53.783249"
       sodipodi:ry="53.783249"
       sodipodi:start="0"
       sodipodi:end="4.733761"
       sodipodi:open="true"
       d="m -260.02275,2350.5938 a 53.783249,53.783249 0 0 1 -33.46707,49.7985 53.783249,53.783249 0 0 1 -58.75089,-12.1766 53.783249,53.783249 0 0 1 -10.91826,-58.9977 53.783249,53.783249 0 0 1 50.50234,-32.3952"
       transform="rotate(90)" />
    <path
       transform="rotate(90)"
       d="m -216.71725,2350.5947 a 97.090027,97.090027 0 0 1 -60.41508,89.8968 97.090027,97.090027 0 0 1 -106.05766,-21.9813 97.090027,97.090027 0 0 1 -19.70973,-106.5032 97.090027,97.090027 0 0 1 91.16729,-58.4801"
       sodipodi:open="true"
       sodipodi:end="4.733761"
       sodipodi:start="0"
       sodipodi:ry="97.090027"
       sodipodi:rx="97.090027"
       sodipodi:cy="2350.5947"
       sodipodi:cx="-313.80728"
       sodipodi:type="arc"
       style="opacity:1;fill:none;fill-opacity:1;stroke:#b8a804;stroke-width:15.97693634;stroke-linecap:round;stroke-linejoin:round;stroke-miterlimit:4;stroke-dasharray:none;stroke-opacity:1"
       id="path913-1" />
    <rect
       style="opacity:1;fill:#d7c514;fill-opacity:1;stroke:none;stroke-width:14.63891506;stroke-linecap:square;stroke-linejoin:miter;stroke-miterlimit:4;stroke-dasharray:none;stroke-opacity:1"
       id="rect2430-73-1"
       width="181.48772"
       height="33.198975"
       x="-2350.5181"
       y="-330.39108" />
    <circle
       style="opacity:1;fill:#d50000;fill-opacity:1;stroke:none;stroke-width:14.76193237;stroke-linecap:square;stroke-linejoin:miter;stroke-miterlimit:4;stroke-dasharray:none;stroke-opacity:1"
       id="path2432-99-5"
       cx="-2350.5977"
       cy="-313.79166"
       r="16.599485" />
    <circle
       r="16.599485"
       cy="-313.79166"
       cx="-2169.1101"
       id="circle2434-1-1"
       style="opacity:1;fill:#d5d5d5;fill-opacity:1;stroke:none;stroke-width:14.76193237;stroke-linecap:square;stroke-linejoin:miter;stroke-miterlimit:4;stroke-dasharray:none;stroke-opacity:1" />
    <circle
       style="opacity:1;fill:#ffb407;fill-opacity:0.45490196;stroke:none;stroke-width:35.38677216;stroke-linecap:square;stroke-linejoin:miter;stroke-miterlimit:4;stroke-dasharray:none;stroke-opacity:1"
       id="circle911-9"
       cx="-2168.1504"
       cy="-316.47321"
       r="39.791698" />
    <path
       id="circle954-5"
       style="opacity:1;fill:#d5110e;fill-opacity:1;stroke:#ffb608;stroke-width:15;stroke-linecap:round;stroke-linejoin:round;stroke-miterlimit:4;stroke-dasharray:none;stroke-opacity:0.4541833"
       sodipodi:type="arc"
       sodipodi:cx="628.39594"
       sodipodi:cy="90.74276"
       sodipodi:rx="182.30659"
       sodipodi:ry="182.30659"
       sodipodi:start="0"
       sodipodi:end="4.733761"
       sodipodi:open="true"
       d="m 632.19442,-100.07797 c -8.43943,-0.14461 -16.77574,0.366691 -24.92771,1.46265 l -0.006,-0.05049 c -66.14593,8.695021 -126.2291,53.235293 -152.13252,114.36282 0,1.3e-5 1e-5,2.7e-5 1e-5,4e-5 -28.92114,68.929466 -12.19628,153.312635 39.88359,205.609325 52.2064,52.17283 135.86462,68.39826 203.06938,40.24691 10e-6,-2e-5 3e-5,-2e-5 4e-5,-10e-6 67.17132,-28.23335 113.34538,-98.89417 112.62149,-170.81051 -0.7239,71.91634 -48.25722,140.69069 -114.26216,166.78894 -10e-6,-10e-6 -10e-6,-10e-6 -2e-5,-10e-6 -65.9715,26.18022 -146.81497,8.31142 -195.221,-42.30178 -48.53255,-50.48935 -62.37863,-131.298899 -34.13458,-194.354153 3e-5,-1.2e-5 2e-5,-2.5e-5 2e-5,-3.7e-5 24.86917,-56.097712 82.01189,-96.220048 142.20041,-102.840672 l -0.006,-0.04794 c 7.51203,-0.802685 15.13557,-1.143789 22.82992,-0.958658 0.0375,-5.702451 0.0659,-11.404599 0.0851,-17.106424 z"
       transform="rotate(90,-658.82404,-1601.0299)"
       inkscape:path-effect="#path-effect990" />
    <circle
       r="24.752728"
       cy="-317.1832"
       cx="-2168.3899"
       id="circle927"
       style="opacity:1;fill:#d50000;fill-opacity:1;stroke:#e85b0b;stroke-width:5;stroke-linecap:square;stroke-linejoin:miter;stroke-miterlimit:4;stroke-dasharray:none;stroke-opacity:1" />
    <path
       id="path917-0"
       style="opacity:1;fill:none;fill-opacity:1;stroke:#b8a804;stroke-width:8.85046101;stroke-linecap:round;stroke-linejoin:round;stroke-miterlimit:4;stroke-dasharray:none;stroke-opacity:1"
       sodipodi:type="arc"
       sodipodi:cx="-428.71075"
       sodipodi:cy="3608.4985"
       sodipodi:rx="53.783249"
       sodipodi:ry="53.783249"
       sodipodi:start="0"
       sodipodi:end="4.733761"
       sodipodi:open="true"
       d="m -374.92751,3608.4985 a 53.783249,53.783249 0 0 1 -33.46707,49.7985 53.783249,53.783249 0 0 1 -58.75089,-12.1765 53.783249,53.783249 0 0 1 -10.91825,-58.9977 53.783249,53.783249 0 0 1 50.50233,-32.3952"
       transform="rotate(90)" />
    <path
       transform="rotate(90)"
       d="m -331.62201,3608.4995 a 97.090027,97.090027 0 0 1 -60.41507,89.8967 97.090027,97.090027 0 0 1 -106.05767,-21.9812 97.090027,97.090027 0 0 1 -19.70972,-106.5032 97.090027,97.090027 0 0 1 91.16729,-58.4801"
       sodipodi:open="true"
       sodipodi:end="4.733761"
       sodipodi:start="0"
       sodipodi:ry="97.090027"
       sodipodi:rx="97.090027"
       sodipodi:cy="3608.4995"
       sodipodi:cx="-428.71204"
       sodipodi:type="arc"
       style="opacity:1;fill:none;fill-opacity:1;stroke:#b8a804;stroke-width:15.97693634;stroke-linecap:round;stroke-linejoin:round;stroke-miterlimit:4;stroke-dasharray:none;stroke-opacity:1"
       id="path913-0" />
    <rect
       style="opacity:1;fill:#d7c514;fill-opacity:1;stroke:none;stroke-width:14.63891506;stroke-linecap:square;stroke-linejoin:miter;stroke-miterlimit:4;stroke-dasharray:none;stroke-opacity:1"
       id="rect2430-73-2"
       width="181.48772"
       height="33.198975"
       x="-3608.4229"
       y="-445.29584" />
    <circle
       style="opacity:1;fill:#d50000;fill-opacity:1;stroke:none;stroke-width:14.76193237;stroke-linecap:square;stroke-linejoin:miter;stroke-miterlimit:4;stroke-dasharray:none;stroke-opacity:1"
       id="path2432-99-7"
       cx="-3608.5024"
       cy="-428.69641"
       r="16.599485" />
    <circle
       r="16.599485"
       cy="-428.69641"
       cx="-3427.0149"
       id="circle2434-1-9"
       style="opacity:1;fill:#d5d5d5;fill-opacity:1;stroke:none;stroke-width:14.76193237;stroke-linecap:square;stroke-linejoin:miter;stroke-miterlimit:4;stroke-dasharray:none;stroke-opacity:1" />
    <circle
       style="opacity:1;fill:#ffb407;fill-opacity:0.45490196;stroke:none;stroke-width:35.38677216;stroke-linecap:square;stroke-linejoin:miter;stroke-miterlimit:4;stroke-dasharray:none;stroke-opacity:1"
       id="circle911-2"
       cx="-3426.0552"
       cy="-431.37796"
       r="39.791698" />
    <path
       id="circle954-2"
       style="opacity:1;fill:#d5110e;fill-opacity:1;stroke:#ffb608;stroke-width:15;stroke-linecap:round;stroke-linejoin:round;stroke-miterlimit:4;stroke-dasharray:none;stroke-opacity:0.4541833"
       sodipodi:type="arc"
       sodipodi:cx="628.39594"
       sodipodi:cy="90.74276"
       sodipodi:rx="182.30659"
       sodipodi:ry="182.30659"
       sodipodi:start="0"
       sodipodi:end="4.733761"
       sodipodi:open="true"
       d="m 632.19442,-100.07797 c -8.43943,-0.14461 -16.77574,0.366691 -24.92771,1.46265 l -0.006,-0.05049 c -66.14593,8.695021 -126.2291,53.235293 -152.13252,114.36282 0,1.3e-5 1e-5,2.7e-5 1e-5,4e-5 -28.92114,68.929466 -12.19628,153.312635 39.88359,205.609325 52.2064,52.17283 135.86462,68.39826 203.06938,40.24691 10e-6,-2e-5 3e-5,-2e-5 4e-5,-10e-6 67.17132,-28.23335 113.34538,-98.89417 112.62149,-170.81051 -0.7239,71.91634 -48.25722,140.69069 -114.26216,166.78894 -10e-6,-10e-6 -10e-6,-10e-6 -2e-5,-10e-6 -65.9715,26.18022 -146.81497,8.31142 -195.221,-42.30178 -48.53255,-50.48935 -62.37863,-131.298899 -34.13458,-194.354153 3e-5,-1.2e-5 2e-5,-2.5e-5 2e-5,-3.7e-5 24.86917,-56.097712 82.01189,-96.220048 142.20041,-102.840672 l -0.006,-0.04794 c 7.51203,-0.802685 15.13557,-1.143789 22.82992,-0.958658 0.0375,-5.702451 0.0659,-11.404599 0.0851,-17.106424 z"
       transform="rotate(90,-1230.324,-2287.4346)"
       inkscape:path-effect="#path-effect990-7" />
    <circle
       r="24.752728"
       cy="-432.08795"
       cx="-3426.2947"
       id="circle927-5"
       style="opacity:1;fill:#d50000;fill-opacity:1;stroke:#e85b0b;stroke-width:15;stroke-linecap:square;stroke-linejoin:miter;stroke-miterlimit:4;stroke-dasharray:none;stroke-opacity:1" />
    <path
       style="opacity:1;fill:none;fill-opacity:1;stroke:#000000;stroke-width:23.8125;stroke-linecap:round;stroke-linejoin:round;stroke-miterlimit:4;stroke-dasharray:none;stroke-opacity:0.4541833"
       d="m -1884.61,215.75017 c -2.6843,0.0148 -5.3612,0.28226 -7.9954,0.79891 v -0.2553 l -281.1012,42.21914 281.1012,42.21965 v -0.24236 c 2.6639,0.51795 5.371,0.78113 8.0848,0.78599 z"
       id="path981"
       inkscape:connector-curvature="0"
       sodipodi:nodetypes="cccccccc" />
    <path
       style="opacity:1;fill:#fee814;fill-opacity:1;stroke:#cf9608;stroke-width:5;stroke-linecap:square;stroke-linejoin:miter;stroke-miterlimit:4;stroke-dasharray:none;stroke-opacity:0.4541833"
       d="m 214.79375,585.35059 c 62.0612,24.26186 122.27137,19.83306 181.48771,0 v 33.19897 c -60.16567,18.49331 -120.6101,21.37544 -181.48771,0 z"
       id="rect2430-73-0"
       inkscape:connector-curvature="0"
       sodipodi:nodetypes="ccccc"
       inkscape:export-filename="D:\Documents\Unity\arcadegame1\arcadegame1\Assets\sprites\logo.png"
       inkscape:export-xdpi="96"
       inkscape:export-ydpi="96" />
    <circle
       style="opacity:1;fill:#d50000;fill-opacity:1;stroke:none;stroke-width:14.76193237;stroke-linecap:square;stroke-linejoin:miter;stroke-miterlimit:4;stroke-dasharray:none;stroke-opacity:1"
       id="path2432-99-7-3"
       cx="214.71414"
       cy="601.95001"
       r="16.599485"
       inkscape:export-filename="D:\Documents\Unity\arcadegame1\arcadegame1\Assets\sprites\logo.png"
       inkscape:export-xdpi="96"
       inkscape:export-ydpi="96" />
    <circle
       r="16.599485"
       cy="601.95001"
       cx="396.20169"
       id="circle2434-1-9-9"
       style="opacity:1;fill:#d5d5d5;fill-opacity:1;stroke:none;stroke-width:14.76193237;stroke-linecap:square;stroke-linejoin:miter;stroke-miterlimit:4;stroke-dasharray:none;stroke-opacity:1"
       inkscape:export-filename="D:\Documents\Unity\arcadegame1\arcadegame1\Assets\sprites\logo.png"
       inkscape:export-xdpi="96"
       inkscape:export-ydpi="96" />
    <circle
       style="opacity:1;fill:#ffb407;fill-opacity:0.45490196;stroke:none;stroke-width:35.38677216;stroke-linecap:square;stroke-linejoin:miter;stroke-miterlimit:4;stroke-dasharray:none;stroke-opacity:1"
       id="circle911-2-1"
       cx="397.16141"
       cy="599.26843"
       r="39.791702"
       inkscape:export-filename="D:\Documents\Unity\arcadegame1\arcadegame1\Assets\sprites\logo.png"
       inkscape:export-xdpi="96"
       inkscape:export-ydpi="96" />
    <path
       style="opacity:1;fill:#d5110e;fill-opacity:1;stroke:#ffb608;stroke-width:132.28346252;stroke-linecap:round;stroke-linejoin:round;stroke-miterlimit:4;stroke-dasharray:none;stroke-opacity:0.4541833"
       d="M 875.48828 1412.5801 C 630.8912 1411.9611 396.92193 1513.5652 237.67188 1688.7695 C 19.851456 1936.3578 -19.735679 2289.781 112.73828 2560.0977 C 247.69083 2829.4032 539.71107 2985.9404 811.52148 2964.0527 C 539.71107 2942.1647 304.73131 2744.5289 234.33594 2510.4902 C 161.46215 2277.4627 250.73757 2009.1482 421.40039 1876.4688 C 588.31836 1739.9636 846.46701 1725.7129 1007.0801 1823.5059 C 1089.0048 1868.7304 1154.3482 1944.6374 1195.377 2028.8789 A 384.37203 384.37203 0 0 0 1115.8047 2262.2676 A 384.37203 384.37203 0 0 0 1500.1777 2646.6406 A 384.37203 384.37203 0 0 0 1884.5488 2262.2676 A 384.37203 384.37203 0 0 0 1663.6133 1914.8809 C 1558.8685 1705.78 1379.9684 1543.0889 1163.666 1461.9785 C 1068.5397 1428.7165 971.20018 1412.8223 875.48828 1412.5801 z "
       transform="scale(0.26458333)"
       id="circle954-2-8"
       inkscape:export-filename="D:\Documents\Unity\arcadegame1\arcadegame1\Assets\sprites\logo.png"
       inkscape:export-xdpi="96"
       inkscape:export-ydpi="96" />
    <circle
       style="opacity:1;fill:#d50000;fill-opacity:1;stroke:none;stroke-width:17.28293991;stroke-linecap:square;stroke-linejoin:miter;stroke-miterlimit:4;stroke-dasharray:none;stroke-opacity:1"
       id="path2432-99-10"
       cx="214.71417"
       cy="601.95001"
       r="19.434307"
       inkscape:export-filename="D:\Documents\Unity\arcadegame1\arcadegame1\Assets\sprites\logo.png"
       inkscape:export-xdpi="96"
       inkscape:export-ydpi="96" />
  </g>
</svg>
